<?xml version="1.0" encoding="UTF-8"?><svg id="uuid-ac754b45-03d0-46c3-a0f0-e36a7d246112" xmlns="http://www.w3.org/2000/svg" xmlns:xlink="http://www.w3.org/1999/xlink" viewBox="0 0 440.11 322"><defs><linearGradient id="uuid-fc7b5d9e-8328-4ea9-8a3a-39ed9fe4043b" x1="0" y1="177" x2="440.11" y2="177" gradientTransform="translate(0 338) scale(1 -1)" gradientUnits="userSpaceOnUse"><stop offset="0" stop-color="#60a5fa"/><stop offset="1" stop-color="#3b82f6"/></linearGradient></defs><g id="uuid-7cfeb31e-e708-402f-a878-3d8b0ed8d1db"><path d="M439.14,4.54c-1.48-2.91-4.68-4.54-7.94-4.54h-37.47c-1.55,0-3.08.42-4.4,1.22-.92.56-23.13,13.98-58,43.8-30.95,26.48-88.89,72.27-139.56,137.2-.05.06-.14.05-.17-.02l-1.32-3.73c-6.88-43.65-34.64-63.92-70.11-63.92-33.22,0-53.72,19.27-61.92,31.99h-1.23l-2.87-27.47H0c.82,17.63,1.64,38.96,1.64,63.98v136.56h62.33v-115.65c0-5.75.82-11.89,2.46-15.59,4.11-11.48,14.36-23.38,31.58-23.38,3.24,0,10.3.1,17.29,4.86,6.85,4.65,9.67,11.5,10.92,14.53,2.54,6.15,6.33,15.1,11.12,26.42,9.29,24.38,28.21,72.04,48.73,106.99,1.54,2.62,4.38,4.21,7.42,4.21,3.06-.02,5.87-1.66,7.38-4.32,1.16-2.05,128.92-207.04,236.37-302.74,2.82-2.51,3.77-6.71,1.88-10.41h.01Z" fill="url(#uuid-fc7b5d9e-8328-4ea9-8a3a-39ed9fe4043b)"/></g></svg>