<?xml version="1.0" encoding="UTF-8"?>
<svg id="Layer_2" xmlns="http://www.w3.org/2000/svg" viewBox="0 0 244.57 174.94">
    <defs>
        <style>
            .cls-1 {
                fill: #00d4e8;
            }

            .cls-2 {
                fill: #01c4d8;
            }

            .cls-3 {
                fill: #00daed;
            }

            .cls-4 {
                fill: #009eb6;
            }

            .cls-5 {
                fill: #00aac1;
            }

            .cls-6 {
                fill: #00a2ba;
            }

            .cls-7 {
                fill: #0094ac;
            }

            .cls-8 {
                fill: #03dff1;
            }

            .cls-9 {
                fill: #00b5cb;
            }

            .cls-10 {
                fill: #00e4f6;
            }

            .cls-11 {
                fill: #00b2c8;
            }

            .cls-12 {
                fill: #02c7db;
            }

            .cls-13 {
                fill: #00cde1;
            }

            .cls-14 {
                fill: #02ebfd;
            }

            .cls-15 {
                fill: #008099;
            }

            .cls-16 {
                fill: #00728c;
            }

            .cls-17 {
                fill: #01ecfe;
            }

            .cls-18 {
                fill: #00b7cc;
            }

            .cls-19 {
                fill: #fefefe;
            }

            .cls-20 {
                fill: #00dcee;
            }

            .cls-21 {
                fill: #00bed3;
            }

            .cls-22 {
                fill: #008ca4;
            }

            .cls-23 {
                fill: #0099b1;
            }

            .cls-24 {
                fill: #00d6e9;
            }

            .cls-25 {
                fill: #00c8dd;
            }

            .cls-26 {
                fill: #00ecfe;
            }

            .cls-27 {
                fill: #00e3f5;
            }

            .cls-28 {
                fill: #00bcd1;
            }
        </style>
    </defs>
    <g id="Layer_1-2">
        <path class="cls-26"
            d="M109.63,50.62c-8.39,0-16.78.02-25.17.03-8.07,0-16.14,0-24.21-.01-.78,0-1.28.2-1.79.86-7,9.17-16.3,13.64-27.81,13.19-15.59-.61-28.59-13.06-30.43-28.58C-1.81,18.96,10.37,2.71,27.7.36c12.56-1.71,22.77,2.78,30.61,12.67.6.76,1.17,1.09,2.16,1.08,22.93-.03,45.86-.02,68.79-.05.9,0,1.42.23,1.9,1.04,3.42,5.86,6.9,11.68,10.35,17.51.2.34.37.7.55,1.06-.38.27-.73.61-1.15.8-4.93,2.25-9.87,4.46-14.8,6.7-4.97,2.26-9.92,4.55-14.88,6.83-1.87.85-1.87.84-1.6,2.62ZM18.48,32.41c.02,7.71,6.26,13.89,14.01,13.87,7.61-.02,13.83-6.3,13.81-13.95-.01-7.63-6.25-13.87-13.9-13.87-7.72,0-13.94,6.24-13.92,13.95Z" />
        <path class="cls-26"
            d="M207.69,85.36c-1.88,3.59-3.79,7.17-5.65,10.76-3.32,6.41-6.62,12.83-9.92,19.25-.28.55-.52.96-1.3.96-14.34-.03-28.69-.02-43.03-.03-.12,0-.24-.03-.36-.04.18-.35.36-.7.55-1.04,1.21-2.12,2.43-4.24,3.65-6.36,1.03-1.74,2.07-3.48,3.1-5.22l4.09-7.01c1.43-2.39,2.85-4.78,4.28-7.18,1.67-2.8,3.34-5.6,5.01-8.39.34-.63.68-1.27,1.02-1.9,1.69-2.79,3.41-5.57,5.07-8.38,11.02-18.65,22.03-37.31,33.03-55.97.37-.63.72-.99,1.55-.99,11.59.03,23.17.02,34.76.03.28,0,.55.05.83.08,0,.06-.01.12-.02.18-1.48,2.82-2.97,5.63-4.43,8.46-2.33,4.54-4.63,9.1-6.95,13.66-.86,1.67-1.73,3.34-2.59,5.01-1.25,2.41-2.5,4.81-3.75,7.22-.88,1.68-1.75,3.36-2.63,5.03-.5,1.03-1.01,2.06-1.51,3.09-.78,1.53-1.57,3.06-2.35,4.58-1.44,2.8-2.87,5.6-4.31,8.39-1.84,3.59-3.69,7.18-5.53,10.78-.86,1.61-1.73,3.22-2.59,4.83-.02.07-.03.15-.02.22v-.03Z" />
        <path class="cls-14"
            d="M244.51,100.96c.02.36.06.72.06,1.07,0,23.94,0,47.87,0,71.81,0,.32,0,.64,0,1.06h-36.73c-.02-.4-.05-.79-.05-1.18,0-14.98,0-29.97,0-44.95,0-.4.06-.79.1-1.19.4-.15.85-.23,1.18-.47,2.35-1.7,4.69-3.42,7.01-5.16,4.7-3.54,9.38-7.1,14.08-10.63,4-3.01,8.02-6,12.04-8.97.72-.53,1.54-.92,2.32-1.38Z" />
        <path class="cls-17"
            d="M16.02,116.34c.2-.35.34-.74.6-1.04,9.81-11.58,19.62-23.17,29.47-34.72.38-.45,1.09-.86,1.65-.87,14.02-.05,28.05-.04,42.07-.04.28,0,.55.03.93.05v36.62c-12.69,0-25.41,0-38.13,0-.48-.02-.95-.05-1.43-.05-10.25,0-20.5,0-30.75,0-1.47,0-2.95.03-4.42.05Z" />
        <path class="cls-24"
            d="M111.67,147.48c0,4.55,0,9.11,0,13.66-3.27.33-6.54.66-9.81.98-1.97.19-3.95.31-5.92.52-2.72.28-5.43.63-8.14.9-2.17.22-4.35.34-6.52.55-2.76.27-5.51.61-8.27.89-2.13.21-4.27.35-6.4.56-2.68.27-5.35.61-8.03.87-2.25.22-4.51.32-6.76.54-2.72.27-5.43.63-8.14.9-2.13.21-4.27.32-6.4.53-2.8.28-5.59.63-8.38.91-1.42.15-2.85.2-4.27.33-2.84.27-5.67.58-8.51.87,0-4.56,0-9.11,0-13.67,1.89-.17,3.79-.33,5.68-.51,3.9-.38,7.8-.78,11.7-1.17,1.81-.18,3.63-.34,5.44-.53,2.72-.29,5.43-.63,8.14-.9,2.92-.29,5.85-.49,8.77-.76,3.15-.29,6.31-.61,9.46-.92,1.74-.17,3.47-.34,5.21-.52,3.11-.31,6.23-.62,9.34-.92,1.77-.17,3.55-.35,5.32-.52,3.03-.3,6.07-.62,9.1-.91,2.72-.27,5.45-.5,8.17-.77,3.07-.3,6.15-.61,9.22-.91Z" />
        <path class="cls-12"
            d="M111.67,147.48c-3.07.3-6.15.61-9.22.91-2.72.26-5.45.5-8.17.77-3.03.3-6.07.61-9.1.91-1.77.18-3.55.35-5.32.52-3.11.31-6.23.61-9.34.92-1.74.17-3.47.35-5.21.52-3.15.31-6.3.63-9.46.92-2.92.27-5.85.48-8.77.76-2.72.27-5.43.61-8.14.9-1.81.19-3.63.35-5.44.53-3.9.39-7.8.79-11.7,1.17-1.89.18-3.79.34-5.68.51,0-3.36,0-6.71,0-10.07,1.3-.16,2.59-.35,3.89-.47,2.96-.27,5.93-.45,8.89-.75,4.25-.43,8.5-.96,12.75-1.4,4.14-.43,8.28-.8,12.42-1.2,4.89-.48,9.78-.96,14.67-1.44,4.14-.4,8.28-.81,12.42-1.19,4.5-.42,9.01-.75,13.49-1.27.73-.08,1.81.37,2.28-.72,3.46-.03,6.92-.07,10.39-.1,1.43-.01,2.85,0,4.36,0v9.28Z" />
        <path class="cls-8"
            d="M16.11,170.49c2.84-.29,5.67-.6,8.51-.87,1.42-.14,2.85-.19,4.27-.33,2.8-.29,5.59-.64,8.38-.91,2.13-.21,4.27-.32,6.4-.53,2.72-.27,5.43-.63,8.14-.9,2.25-.22,4.51-.33,6.76-.54,2.68-.26,5.35-.6,8.03-.87,2.13-.21,4.27-.35,6.4-.56,2.76-.28,5.51-.62,8.27-.89,2.17-.21,4.35-.33,6.52-.55,2.72-.27,5.43-.62,8.14-.9,1.97-.2,3.95-.33,5.92-.52,3.27-.31,6.54-.65,9.81-.98,0,4.58,0,9.16,0,13.8H16.11v-4.45Z" />
        <path class="cls-10"
            d="M109.63,50.62c-.27-1.78-.27-1.77,1.6-2.62,4.96-2.27,9.92-4.56,14.88-6.83,4.93-2.24,9.87-4.46,14.8-6.7.42-.19.77-.53,1.15-.8,3.02,5.08,6.03,10.17,9.05,15.25-.19.05-.39.08-.57.16-3.81,1.7-7.63,3.41-11.44,5.12-6.35,2.85-12.7,5.7-19.04,8.58-.89.4-1.69.99-2.53,1.5-2.16-3.74-4.31-7.48-6.47-11.22-.47-.82-.96-1.63-1.44-2.45Z" />
        <path class="cls-27"
            d="M244.51,100.96c-.77.46-1.6.85-2.32,1.38-4.03,2.97-8.04,5.97-12.04,8.97-4.7,3.53-9.38,7.1-14.08,10.63-2.32,1.74-4.66,3.46-7.01,5.16-.33.24-.78.32-1.18.47-.03-2.98-.09-5.95-.09-8.93,0-2.54.06-5.08.09-7.62.36-.15.77-.24,1.08-.47,3.69-2.76,7.35-5.55,11.03-8.31,6.93-5.19,13.86-10.38,20.82-15.54,1.16-.86,2.46-1.54,3.7-2.3,0,5.51,0,11.03,0,16.54Z" />
        <path class="cls-20"
            d="M117.53,64.29c.84-.5,1.65-1.09,2.53-1.5,6.34-2.88,12.69-5.73,19.04-8.58,3.81-1.71,7.62-3.42,11.44-5.12.18-.08.38-.11.57-.16,1.56,2.59,3.13,5.18,4.68,7.78.1.16.09.38.13.57-.12.11-.21.25-.35.31-4.31,1.96-8.63,3.92-12.94,5.88-6.78,3.07-13.56,6.15-20.34,9.22-1.59-2.8-3.17-5.6-4.76-8.4Z" />
        <path class="cls-3"
            d="M244.51,84.42c-1.24.76-2.54,1.44-3.7,2.3-6.96,5.16-13.89,10.35-20.82,15.54-3.69,2.76-7.35,5.55-11.03,8.31-.3.23-.72.31-1.08.47,0-3.12,0-6.23,0-9.35.33-.11.7-.15.97-.35,4.05-2.99,8.1-5.98,12.13-9,7.45-5.59,14.89-11.2,22.35-16.79.33-.25.79-.32,1.19-.48,0,3.12,0,6.23,0,9.35Z" />
        <path class="cls-1"
            d="M122.29,72.69c6.78-3.07,13.56-6.15,20.34-9.22,4.32-1.96,8.63-3.91,12.94-5.88.14-.06.23-.21.35-.31,1.53,2.57,3.05,5.13,4.58,7.7-.12.02-.25.02-.35.07-5.59,2.51-11.18,5.01-16.76,7.53-3.34,1.5-6.68,2.99-10,4.53-2.27,1.05-4.5,2.17-6.75,3.26-1.45-2.56-2.9-5.12-4.35-7.67Z" />
        <path class="cls-25"
            d="M126.64,80.36c2.25-1.09,4.48-2.21,6.75-3.26,3.32-1.54,6.66-3.03,10-4.53,5.59-2.51,11.18-5.02,16.76-7.53.11-.05.23-.05.35-.07,1.37,2.23,2.74,4.47,4.11,6.7-.78.3-1.57.57-2.32.92-3.81,1.73-7.6,3.48-11.41,5.21-6.81,3.09-13.63,6.18-20.44,9.27-1.27-2.24-2.54-4.47-3.8-6.71Z" />
        <path class="cls-28"
            d="M96.92,138.3c-.48,1.09-1.56.64-2.28.72-4.49.52-8.99.85-13.49,1.27-4.14.38-8.28.79-12.42,1.19-4.89.48-9.78.96-14.67,1.44-4.14.4-8.28.77-12.42,1.2-4.25.44-8.5.97-12.75,1.4-2.96.3-5.93.48-8.89.75-1.3.12-2.59.31-3.89.47,0-1.52,0-3.04,0-4.56,2.01-.18,4.02-.33,6.03-.53,2.91-.29,5.82-.61,8.73-.9,1.97-.2,3.94-.34,5.91-.54,2.91-.29,5.82-.61,8.73-.9,1.85-.19,3.71-.31,5.55-.53.44-.05.84-.43,1.26-.65.52.02,1.03.06,1.55.06,13.96.02,27.91.03,41.87.04.4,0,.79.04,1.19.06Z" />
        <path class="cls-2"
            d="M207.7,85.17c.86-1.61,1.73-3.22,2.6-4.83.44-.15.96-.2,1.31-.47,9.71-7.27,19.4-14.58,29.12-21.85,1.19-.89,2.52-1.59,3.79-2.37,0,2.32,0,4.63,0,6.95-.39.15-.84.21-1.17.45-2.01,1.48-4,2.99-6,4.49-8.51,6.36-17.01,12.73-25.53,19.08-1.26.94-2.62,1.73-3.93,2.59-.07-1.28-.13-2.56-.2-3.84,0,0,0,.03,0,.03,0-.07.01-.15.02-.22Z" />
        <path class="cls-1"
            d="M244.51,75.07c-.4.16-.86.23-1.19.48-7.46,5.59-14.89,11.2-22.35,16.79-4.03,3.02-8.07,6.01-12.13,9-.26.2-.64.24-.97.35,0-2.24,0-4.48,0-6.71.47-.19.99-.3,1.39-.59,1.42-1.02,2.79-2.1,4.19-3.15,5.24-3.94,10.48-7.88,15.73-11.81,3.95-2.95,7.89-5.9,11.87-8.82,1.11-.81,2.3-1.5,3.45-2.25,0,2.24,0,4.48,0,6.71Z" />
        <path class="cls-13"
            d="M244.51,68.35c-1.15.75-2.34,1.44-3.45,2.25-3.97,2.92-7.92,5.86-11.87,8.82-5.25,3.93-10.49,7.87-15.73,11.81-1.4,1.05-2.77,2.13-4.19,3.15-.4.29-.92.4-1.39.59,0-1.92,0-3.85,0-5.77,1.31-.86,2.67-1.66,3.93-2.59,8.52-6.34,17.03-12.71,25.53-19.08,2-1.5,3.98-3.01,6-4.49.32-.24.77-.3,1.17-.45,0,1.92,0,3.84,0,5.76Z" />
        <path class="cls-18"
            d="M244.51,55.64c-1.27.79-2.6,1.48-3.79,2.37-9.72,7.27-19.41,14.57-29.12,21.85-.35.27-.87.32-1.31.47,1.84-3.59,3.69-7.18,5.53-10.78.43-.15.94-.2,1.29-.46,7.97-5.93,15.91-11.9,23.89-17.83,1.09-.81,2.33-1.41,3.51-2.1,0,2.16,0,4.32,0,6.47Z" />
        <path class="cls-21"
            d="M130.44,87.07c6.81-3.09,13.63-6.17,20.44-9.27,3.8-1.73,7.6-3.48,11.41-5.21.76-.34,1.55-.61,2.32-.92.91,1.53,1.82,3.06,2.74,4.58-.38.12-.77.2-1.12.36-3.67,1.66-7.32,3.34-10.99,5-7.41,3.35-14.82,6.69-22.23,10.03-.86-1.53-1.71-3.05-2.57-4.58Z" />
        <path class="cls-9"
            d="M133.01,91.65c7.41-3.34,14.82-6.68,22.23-10.03,3.67-1.66,7.32-3.34,10.99-5,.36-.16.75-.24,1.12-.36.59.96,1.18,1.93,1.77,2.9-.34.63-.68,1.27-1.01,1.9-1.4.54-2.83,1.02-4.19,1.64-8.11,3.67-16.2,7.38-24.31,11.04-1.44.65-2.94,1.16-4.42,1.73-.73-1.27-1.45-2.55-2.18-3.82Z" />
        <path class="cls-5"
            d="M135.19,95.48c1.47-.57,2.98-1.08,4.42-1.73,8.11-3.67,16.2-7.38,24.31-11.04,1.37-.62,2.79-1.1,4.19-1.64-1.67,2.8-3.34,5.6-5.01,8.39-.43.06-.91.01-1.3.18-5.81,2.6-11.61,5.24-17.43,7.84-2.14.96-4.31,1.84-6.47,2.76l-2.72-4.77Z" />
        <path class="cls-5"
            d="M16.11,135.73c0-1.44,0-2.88,0-4.32,2.56-.24,5.12-.48,7.69-.73,1.77-.17,3.55-.34,5.32-.52,2.87-.3,5.74-.62,8.62-.9,2.09-.21,4.19-.35,6.28-.55,2.8-.28,5.59-.59,8.38-.89-.02,1.44-.04,2.87-.07,4.31-1.46.16-2.91.34-4.37.48-2.76.26-5.53.49-8.3.76-3.04.29-6.07.62-9.11.92-1.86.18-3.71.34-5.57.53-2.96.3-5.91.61-8.87.91Z" />
        <path class="cls-5"
            d="M244.51,49.17c-1.17.7-2.42,1.29-3.51,2.1-7.98,5.92-15.92,11.89-23.89,17.83-.35.26-.86.31-1.29.46,1.44-2.8,2.87-5.6,4.31-8.39,1-.61,2.04-1.16,2.98-1.85,6.75-4.98,13.47-9.99,20.22-14.97.32-.24.78-.3,1.17-.45,0,1.76,0,3.52,0,5.27Z" />
        <path class="cls-22"
            d="M16.02,116.34c1.47-.02,2.95-.05,4.42-.05,10.25,0,20.5,0,30.75,0,.48,0,.95.03,1.43.05-.03.63-.05,1.25-.08,1.88-2.28.24-4.57.49-6.85.72-1.93.19-3.87.33-5.8.52-2.88.29-5.75.63-8.62.91-2.09.21-4.19.33-6.28.53-2.96.28-5.91.61-8.86.91-.03-1.83-.06-3.66-.09-5.48Z" />
        <path class="cls-11"
            d="M16.11,135.73c2.96-.31,5.91-.62,8.87-.91,1.86-.19,3.71-.34,5.57-.53,3.04-.3,6.07-.63,9.11-.92,2.76-.27,5.53-.5,8.3-.76,1.46-.14,2.92-.32,4.37-.48-.01,1.2-.02,2.4-.03,3.6-2.16.24-4.33.5-6.49.71-2.05.2-4.11.33-6.16.53-3.12.29-6.23.61-9.34.92-1.78.17-3.55.34-5.33.52-2.95.3-5.91.61-8.86.91,0-1.2,0-2.4,0-3.6Z" />
        <path class="cls-4"
            d="M137.91,100.24c2.16-.92,4.33-1.8,6.47-2.76,5.81-2.6,11.61-5.24,17.43-7.84.38-.17.86-.13,1.3-.18-1.43,2.39-2.85,4.78-4.28,7.18-.69.15-1.44.17-2.07.45-3.88,1.73-7.72,3.54-11.6,5.28-1.62.73-3.3,1.33-4.95,1.99-.77-1.37-1.53-2.74-2.3-4.11Z" />
        <path class="cls-7"
            d="M16.11,121.82c2.95-.31,5.91-.63,8.86-.91,2.09-.2,4.19-.33,6.28-.53,2.88-.28,5.75-.62,8.62-.91,1.93-.2,3.87-.33,5.8-.52,2.29-.22,4.57-.48,6.85-.72-.09,1.04-.17,2.08-.26,3.12-2.25.17-4.51.32-6.76.5-1.74.14-3.47.32-5.2.5-2.91.3-5.82.62-8.73.91-1.97.2-3.94.35-5.92.53-3.19.3-6.38.61-9.57.91,0-.96,0-1.92,0-2.88Z" />
        <path class="cls-18"
            d="M16.11,139.32c2.95-.31,5.91-.61,8.86-.91,1.77-.18,3.55-.35,5.33-.52,3.11-.31,6.23-.63,9.34-.92,2.05-.19,4.11-.33,6.16-.53,2.17-.21,4.33-.47,6.49-.71,0,.8.01,1.61.02,2.41-.42.23-.82.6-1.26.65-1.84.23-3.7.35-5.55.53-2.91.29-5.82.61-8.73.9-1.97.2-3.94.34-5.91.54-2.91.29-5.82.62-8.73.9-2.01.2-4.02.36-6.03.53,0-.96,0-1.92,0-2.88Z" />
        <path class="cls-6"
            d="M52.39,127.82c-2.79.3-5.59.61-8.38.89-2.09.21-4.19.35-6.28.55-2.87.28-5.75.6-8.62.9-1.77.18-3.55.35-5.32.52-2.56.25-5.12.49-7.69.73,0-.96,0-1.92,0-2.88,1.11-.08,2.22-.15,3.32-.24,2.92-.24,5.85-.47,8.77-.74,3.15-.29,6.31-.62,9.46-.94,1.77-.18,3.55-.35,5.33-.52,3.15-.31,6.31-.61,9.46-.91-.02.88-.04,1.76-.05,2.64Z" />
        <path class="cls-7"
            d="M140.21,104.35c1.65-.66,3.33-1.26,4.95-1.99,3.88-1.73,7.72-3.55,11.6-5.28.63-.28,1.38-.31,2.07-.45-1.36,2.34-2.72,4.67-4.09,7.01-.47-.02-1.01-.21-1.4-.04-3.23,1.4-6.43,2.85-9.63,4.32-.38.17-.68.51-1.01.76-.83-1.44-1.66-2.88-2.48-4.33Z" />
        <path class="cls-16"
            d="M232.97,36.22c2.31-4.55,4.62-9.11,6.95-13.66,1.45-2.83,2.95-5.64,4.43-8.46.06.08.13.15.19.23-.01,4.11-.02,8.21-.03,12.32-.23.3-.42.67-.71.9-1.35,1.05-2.77,2-4.08,3.1-2.24,1.87-5.12,2.96-6.75,5.58Z" />
        <path class="cls-22"
            d="M226.63,48.45c1.25-2.41,2.5-4.81,3.75-7.22.55-.16,1.21-.18,1.64-.5,3.82-2.8,7.6-5.65,11.41-8.47.29-.21.71-.25,1.08-.36,0,1.44,0,2.87,0,4.31-.39.15-.84.22-1.17.45-1.68,1.19-3.34,2.41-4.99,3.65-2.76,2.07-5.47,4.2-8.28,6.2-1.06.75-1.89,2.02-3.44,1.93Z" />
        <path class="cls-4"
            d="M52.45,125.18c-3.15.3-6.31.61-9.46.91-1.78.17-3.55.35-5.33.52-3.15.31-6.3.64-9.46.94-2.92.27-5.85.5-8.77.74-1.11.09-2.21.16-3.32.24,0-.64,0-1.28,0-1.92,1.94-.16,3.87-.32,5.81-.48,1.98-.17,3.95-.33,5.93-.52,3.08-.29,6.15-.61,9.23-.92,1.82-.18,3.63-.36,5.45-.53,3.32-.31,6.63-.61,9.95-.91,0,.64-.02,1.28-.03,1.92Z" />
        <path class="cls-23"
            d="M52.48,123.26c-3.32.3-6.63.6-9.95.91-1.82.17-3.63.35-5.45.53-3.08.3-6.15.62-9.23.92-1.97.19-3.95.35-5.93.52-1.94.16-3.87.32-5.81.48,0-.64,0-1.28,0-1.92,3.19-.3,6.38-.61,9.57-.91,1.97-.18,3.95-.34,5.92-.53,2.91-.29,5.82-.61,8.73-.91,1.73-.18,3.46-.36,5.2-.5,2.25-.19,4.5-.34,6.76-.5.06.64.13,1.28.19,1.92Z" />
        <path class="cls-6"
            d="M244.51,43.9c-.39.15-.85.21-1.17.45-6.75,4.98-13.47,9.99-20.22,14.97-.94.69-1.99,1.24-2.98,1.85.78-1.53,1.57-3.06,2.35-4.58.64-.25,1.36-.4,1.91-.78,1.5-1.04,2.93-2.17,4.39-3.27,3.74-2.81,7.46-5.65,11.23-8.43,1.46-1.08,3-2.05,4.5-3.08,0,.96,0,1.92,0,2.88Z" />
        <path class="cls-23"
            d="M226.63,48.45c1.55.09,2.38-1.18,3.44-1.93,2.81-2,5.52-4.13,8.28-6.2,1.65-1.23,3.31-2.46,4.99-3.65.33-.23.77-.31,1.17-.45,0,.96,0,1.92,0,2.88-.37.13-.8.18-1.1.41-5.12,3.8-10.21,7.65-15.34,11.44-1.29.95-2.71,1.7-4.07,2.55.88-1.68,1.75-3.36,2.63-5.03Z" />
        <path class="cls-15"
            d="M244.51,31.91c-.36.12-.79.15-1.08.36-3.81,2.81-7.59,5.67-11.41,8.47-.44.32-1.09.34-1.64.5.86-1.67,1.73-3.34,2.59-5.01,1.62-2.61,4.51-3.71,6.75-5.58,1.31-1.09,2.73-2.05,4.08-3.1.29-.23.48-.59.71-.9,0,1.75,0,3.5,0,5.25Z" />
        <path class="cls-4"
            d="M224,53.49c1.36-.84,2.79-1.6,4.07-2.55,5.14-3.78,10.22-7.63,15.34-11.44.3-.22.73-.27,1.1-.41,0,.64,0,1.28,0,1.92-1.5,1.02-3.04,2-4.5,3.08-3.76,2.79-7.49,5.62-11.23,8.43-1.46,1.1-2.89,2.23-4.39,3.27-.55.38-1.27.53-1.91.78.5-1.03,1.01-2.06,1.51-3.09Z" />
        <path class="cls-22"
            d="M142.69,108.68c.34-.26.64-.59,1.01-.76,3.2-1.46,6.4-2.92,9.63-4.32.39-.17.93.02,1.4.04-1.03,1.74-2.07,3.48-3.1,5.22-.57.12-1.19.16-1.72.39-1.85.79-3.67,1.65-5.5,2.49-.57-1.02-1.15-2.04-1.72-3.06Z" />
        <path class="cls-15"
            d="M144.41,111.74c1.83-.84,3.65-1.7,5.5-2.49.53-.23,1.14-.27,1.72-.39-1.22,2.12-2.43,4.24-3.65,6.36-.2.34-.37.69-.55,1.04-.27-.16-.65-.25-.79-.49-.78-1.32-1.49-2.68-2.23-4.03Z" />
        <path class="cls-22" d="M244.54,14.34c-.06-.08-.13-.15-.19-.23,0-.06.01-.12.02-.18.06.14.12.27.18.41Z" />
        <path class="cls-19" d="M207.7,85.17c0,.07-.01.15-.02.22,0-.07,0-.15.02-.22Z" />
    </g>
</svg>