<?xml version="1.0" encoding="UTF-8"?><svg id="uuid-78883095-9da3-477f-8fd0-b83f1949e6a5" xmlns="http://www.w3.org/2000/svg" viewBox="0 0 23.28 22.92"><g id="uuid-65d11343-d55c-478a-8994-aa6efbb64063"><path d="M11.64,21.42c-.25,0-.51-.06-.74-.19l-5.77-3.25c-.47-.27-.76-.77-.76-1.31v-4.5h-1.37c-.62,0-1.18-.38-1.4-.97s-.06-1.24.4-1.65L10.61,1.88c.28-.25.64-.38,1-.38s.71.13,1,.38l8.67,7.73c.46.41.62,1.07.4,1.65-.22.58-.78.97-1.4.97h-1.44v4.45c0,.54-.29,1.04-.76,1.3l-5.7,3.25c-.23.13-.49.2-.74.2Z" fill="#f4f4f5" stroke="#6b6b6b" stroke-miterlimit="10" stroke-width="3"/></g></svg>