<?xml version="1.0" encoding="UTF-8"?><svg id="uuid-b8fca2bf-9d96-47fb-81b5-ea66fd6393c9" xmlns="http://www.w3.org/2000/svg" viewBox="0 0 120 97.14"><g id="uuid-f8ff0a32-6cec-494a-a8b8-6df375a7f084"><path d="M0,75.42c.58-2.05.96-4.18,1.77-6.12,3.14-7.49,10.21-11.78,18.67-11.49,9.26.32,16.13,6.73,17.17,15.96.67,5.95-.45,11.41-4.18,16.18-3.37,4.3-7.89,6.51-13.31,6.95-.21.02-.4.15-.6.23h-2.93c-.28-.09-.55-.23-.84-.28-7.69-1.12-12.65-5.42-14.92-12.83C.48,82.89.27,81.71,0,80.54c0-1.71,0-3.42,0-5.13ZM29.91,78.31c-.11-.03-.22-.06-.33-.08-.02-3.46-.62-6.79-2.51-9.77-2.18-3.45-5.37-5.17-9.44-4.89-4.33.3-7.02,2.84-8.47,6.81-1.04,2.85-1.08,5.81-.75,8.78.3,2.7,1.03,5.27,2.62,7.51,2.4,3.38,5.73,4.84,9.82,4.36,3.7-.44,6.18-2.66,7.45-6.04.8-2.13,1.09-4.45,1.62-6.68Z" fill="#023869"/><path d="M60.29,0c1.23.54,2.42,1.12,2.67,2.65.23,1.47-.61,2.89-2,3.36-1.48.49-3.02-.14-3.69-1.53-.66-1.36-.22-2.98,1.05-3.84.33-.22.66-.43.99-.64.33,0,.65,0,.98,0Z" fill="#969da2"/><path d="M43.33,96.13c2.27-1.33,2.73-3.41,2.77-5.53.11-5.53.06-11.06.07-16.59,0-3.13.03-6.26,0-9.39-.03-2.4-.53-4.61-3.24-6,.74,0,1.16,0,1.58,0,6.18.06,12.37-.14,18.52.25,9.4.6,15.88,7.35,16.4,16.79.36,6.53-1.43,12.31-6.76,16.55-3.34,2.65-7.29,3.77-11.45,3.88-5.89.15-11.79.04-17.89.04ZM54.45,90.85c2.13,0,4.19.1,6.25-.02,4.07-.23,6.88-2.39,8.63-6,1.67-3.45,1.88-7.1,1.29-10.82-.4-2.58-1.37-4.92-3.23-6.82-3.65-3.71-8.28-3.56-12.94-3.4v27.06Z" fill="#03396a"/><path d="M84.67,58.65h13.23c-2.4,1.54-2.55,3.94-2.56,6.3-.03,6.42,0,12.85.09,19.27.01,1.11.3,2.26.66,3.32.75,2.24,2.5,3.38,4.74,3.67,1.43.19,2.94.2,4.37,0,3.02-.43,4.83-2.63,5.12-6.07.13-1.49.13-3,.12-4.51-.01-5.77,0-11.55-.11-17.32-.04-1.89-.77-3.57-2.78-4.62h12.46c-2.26,1.43-2.63,3.62-2.63,5.94,0,5.94.04,11.87-.03,17.81-.02,1.7-.18,3.42-.55,5.07-1.04,4.73-4,7.73-8.71,8.84-4.22.99-8.48.91-12.65-.31-4.87-1.43-7.42-4.85-8.05-9.79-.16-1.25-.2-2.51-.21-3.77-.03-6.22,0-12.44-.06-18.66-.02-2.47-.71-3.76-2.45-5.18Z" fill="#053b6a"/><path d="M41.76,41.37v-6.35h36.42v6.35h-36.42Z" fill="#979da2"/><path d="M57.5,31.84c-1.52.38-2.59-.06-3.57-1.41-2.77-3.81-5.5-7.63-7.2-12.07-.92-2.41-1.52-4.89-.85-7.49.55-2.13,1.85-3.62,4.01-4.15,2.32-.57,4.53-.28,6.35,1.44.24.23.41.84.28,1.11-2.43,4.96-2.01,10.09-.94,15.24.52,2.48,1.28,4.91,1.92,7.35Z" fill="#03396a"/><path d="M62.55,31.86c.75-3.25,1.64-6.46,2.22-9.72.78-4.39.71-8.75-1.37-12.85-.39-.77.15-1.04.55-1.39,1.87-1.61,5.09-1.95,7.34-.7,2.52,1.41,3.17,3.79,3.01,6.45-.16,2.85-1.14,5.51-2.57,7.92-1.78,3-3.84,5.82-5.7,8.78-.88,1.4-1.97,1.94-3.48,1.51Z" fill="#033969"/><path d="M43.43,12.92c-2.95,2.33-3.24,5.49-2.49,8.67.76,3.21,2.04,6.3,3.1,9.44.09.26.23.5.36.77-1.77.47-2.99-.02-4.08-1.48-2.33-3.13-4.75-6.19-6-9.96-.36-1.1-.61-2.29-.65-3.45-.08-2.32.76-4.23,3.01-5.24,2.28-1.03,4.89-.56,6.75,1.24Z" fill="#043a6a"/><path d="M76.53,12.93c1.75-1.8,4.26-2.27,6.6-1.31,2.07.85,3.35,2.74,3.1,5.28-.17,1.78-.65,3.6-1.35,5.25-1.49,3.5-3.79,6.53-6.38,9.29-.54.58-1.82.46-3.11.75.36-.82.54-1.25.73-1.67,1.41-3.16,2.65-6.36,3.05-9.84.35-2.97-.09-5.68-2.64-7.75Z" fill="#043a6a"/></g></svg>