<svg id="Layer_2" xmlns="http://www.w3.org/2000/svg" viewBox="0 0 101.67 19.71">
    <defs>
        <style
            dangerouslySetInnerHTML={{__html: "\n            .cls-1 {\n                isolation: isolate;\n            }\n\n            .cls-2 {\n                fill: #efdab9;\n            }\n        "
            }} />
    </defs>
    <g id="Layer_2-2">
        <g id="Icon">
            <g id="Layer_1-2">
                <polygon
                    className={iconClasses}points="29 5.05 19.2 14.82 19.05 14.66 12.32 7.89 14.51 5.64 19.17 10.33 24.38 4.98 21.7 2.22 23.93 0 26.56 2.72 26.56 2.71 29 5.05" />
                <polygon
                    className={iconClasses}points="13.8 11.06 11.21 13.62 9.74 15.11 0 5.37 4.91 .48 7.05 2.62 4.38 5.37 9.52 10.67 11.44 8.74 13.8 11.06" />
                <polygon className={iconClasses}points="18.4 15.71 14.36 19.71 10.55 15.9 14.55 11.86 18.4 15.71" />
            </g>
        </g>
        <g id="Name" className="cls-1">
            <g className={nameClasses}>
                <path
                    d="M37.39,19.25h-2.34V2h5.16c4.17,0,6.35,1.99,6.35,5.05,0,2.59-1.52,4.19-3.89,4.97l4.66,7.23h-2.79l-4.19-6.84-2.95.19v6.65ZM40.23,10.45c2.26-.08,3.97-1.16,3.97-3.28s-1.65-3.01-4.28-3.01h-2.54v6.37l2.84-.08Z" />
                <path
                    d="M56.31,17.9c-.97,1.13-2.12,1.77-3.48,1.77-2.37,0-4.03-1.57-4.03-3.61,0-2.26,1.63-4.25,7.53-4.52v-.36c0-2.04-.8-2.87-2.84-2.87-1.3,0-2.9.61-4.08,1.41l-.44-2.04c1.1-.77,2.95-1.46,4.75-1.46,3.42,0,4.94,1.46,4.88,4.91v5.3c0,1.05.14,1.24,1.24,1.24l-.14,1.9c-2.04.17-2.95-.55-3.28-1.65h-.11ZM56.34,12.96c-3.75.5-5.13,1.27-5.13,2.81,0,1.13.86,1.96,2.23,1.96,1.16,0,2.18-.58,2.9-1.35v-3.42Z" />
                <path
                    d="M78.08,19.25v-7.89c0-2.21-.8-3.01-2.43-3.01-1.41,0-2.48.74-3.2,1.43v9.46h-2.26v-7.89c0-2.21-.8-3.01-2.43-3.01-1.41,0-2.48.61-3.2,1.3v9.6h-2.26V6.56l2.26-.36v1.74c1.21-1.16,2.54-1.74,4.05-1.74s2.68.69,3.31,2.1c1.35-1.35,2.84-2.1,4.58-2.1,2.32,0,3.84,1.63,3.84,4.41v8.63h-2.26Z" />
                <path
                    d="M85.28,3.82c-1.02,0-1.49-.77-1.49-1.63s.47-1.63,1.49-1.63,1.49.77,1.49,1.63-.47,1.63-1.49,1.63ZM84.15,19.25V6.56l2.26-.36v13.05h-2.26Z" />
                <path
                    d="M96.95,2.72c-.58-.25-1.38-.55-2.01-.55-1.27,0-1.88.77-1.88,2.68v1.77h4l-.08,2.04h-3.92v10.59h-2.26v-10.57l-2.21-.17.11-1.43,2.07-.61.03-1.6c.06-3.53,1.68-4.83,4.17-4.83.94,0,1.93.33,2.54.61,0,.05-.55,2.12-.55,2.07ZM100.18,3.82c-1.02,0-1.49-.77-1.49-1.63s.47-1.63,1.49-1.63,1.49.77,1.49,1.63-.47,1.63-1.49,1.63ZM99.05,19.25V6.56l2.26-.36v13.05h-2.26Z" />
            </g>
        </g>
    </g>
</svg>