<svg id="Layer_2" xmlns="http://www.w3.org/2000/svg" xmlns:xlink="http://www.w3.org/1999/xlink"
    viewBox="0 0 139.53 17.94">
    <defs>
        <style>
            .sc-full-logo-cls-1 {
                fill: none;
            }

            .sc-full-logo-cls-2 {
                fill: url(#sc-full-logo-linear-gradient-8);
            }

            .sc-full-logo-cls-3 {
                fill: url(#sc-full-logo-linear-gradient-7);
            }

            .sc-full-logo-cls-4 {
                fill: url(#sc-full-logo-linear-gradient-5);
            }

            .sc-full-logo-cls-5 {
                fill: url(#sc-full-logo-linear-gradient-6);
            }

            .sc-full-logo-cls-6 {
                fill: url(#sc-full-logo-linear-gradient-9);
            }

            .sc-full-logo-cls-7 {
                fill: url(#sc-full-logo-linear-gradient-4);
            }

            .sc-full-logo-cls-8 {
                fill: url(#sc-full-logo-linear-gradient-3);
            }

            .sc-full-logo-cls-9 {
                fill: url(#sc-full-logo-linear-gradient-2);
            }

            .sc-full-logo-cls-10 {
                fill: url(#sc-full-logo-linear-gradient);
            }

            .sc-full-logo-cls-11 {
                fill: url(#sc-full-logo-linear-gradient-10);
            }

            .sc-full-logo-cls-12 {
                fill: url(#sc-full-logo-linear-gradient-11);
            }

            .sc-full-logo-cls-13 {
                fill: url(#sc-full-logo-linear-gradient-12);
            }

            .sc-full-logo-cls-14 {
                fill: url(#sc-full-logo-linear-gradient-13);
            }

            .sc-full-logo-cls-15 {
                fill: url(#sc-full-logo-linear-gradient-19);
            }

            .sc-full-logo-cls-16 {
                fill: url(#sc-full-logo-linear-gradient-14);
            }

            .sc-full-logo-cls-17 {
                fill: url(#sc-full-logo-linear-gradient-21);
            }

            .sc-full-logo-cls-18 {
                fill: url(#sc-full-logo-linear-gradient-20);
            }

            .sc-full-logo-cls-19 {
                fill: url(#sc-full-logo-linear-gradient-22);
            }

            .sc-full-logo-cls-20 {
                fill: url(#sc-full-logo-linear-gradient-23);
            }

            .sc-full-logo-cls-21 {
                fill: url(#sc-full-logo-linear-gradient-25);
            }

            .sc-full-logo-cls-22 {
                fill: url(#sc-full-logo-linear-gradient-15);
            }

            .sc-full-logo-cls-23 {
                fill: url(#sc-full-logo-linear-gradient-16);
            }

            .sc-full-logo-cls-24 {
                fill: url(#sc-full-logo-linear-gradient-17);
            }

            .sc-full-logo-cls-25 {
                fill: url(#sc-full-logo-linear-gradient-18);
            }

            .sc-full-logo-cls-26 {
                fill: url(#sc-full-logo-linear-gradient-24);
            }

            .sc-full-logo-cls-27 {
                fill: #71717a;
            }

            .sc-full-logo-cls-28 {
                clip-path: url(#clippath);
            }

            .group:hover .sc-full-logo-cls-1 {
                fill: none;
            }

            .group:hover .sc-full-logo-cls-2 {
                fill: url(#sc-full-logo-linear-gradient-color-8);
            }

            .group:hover .sc-full-logo-cls-3 {
                fill: url(#sc-full-logo-linear-gradient-color-7);
            }

            .group:hover .sc-full-logo-cls-4 {
                fill: url(#sc-full-logo-linear-gradient-color-5);
            }

            .group:hover .sc-full-logo-cls-5 {
                fill: url(#sc-full-logo-linear-gradient-color-6);
            }

            .group:hover .sc-full-logo-cls-6 {
                fill: url(#sc-full-logo-linear-gradient-color-9);
            }

            .group:hover .sc-full-logo-cls-7 {
                fill: url(#sc-full-logo-linear-gradient-color-4);
            }

            .group:hover .sc-full-logo-cls-8 {
                fill: url(#sc-full-logo-linear-gradient-color-3);
            }

            .group:hover .sc-full-logo-cls-9 {
                fill: url(#sc-full-logo-linear-gradient-color-2);
            }

            .group:hover .sc-full-logo-cls-10 {
                fill: url(#sc-full-logo-linear-gradient-color);
            }

            .group:hover .sc-full-logo-cls-11 {
                fill: url(#sc-full-logo-linear-gradient-color-10);
            }

            .group:hover .sc-full-logo-cls-12 {
                fill: url(#sc-full-logo-linear-gradient-color-11);
            }

            .group:hover .sc-full-logo-cls-13 {
                fill: url(#sc-full-logo-linear-gradient-color-12);
            }

            .group:hover .sc-full-logo-cls-14 {
                fill: url(#sc-full-logo-linear-gradient-color-13);
            }

            .group:hover .sc-full-logo-cls-15 {
                fill: url(#sc-full-logo-linear-gradient-color-19);
            }

            .group:hover .sc-full-logo-cls-16 {
                fill: url(#sc-full-logo-linear-gradient-color-14);
            }

            .group:hover .sc-full-logo-cls-17 {
                fill: url(#sc-full-logo-linear-gradient-color-21);
            }

            .group:hover .sc-full-logo-cls-18 {
                fill: url(#sc-full-logo-linear-gradient-color-20);
            }

            .group:hover .sc-full-logo-cls-19 {
                fill: url(#sc-full-logo-linear-gradient-color-22);
            }

            .group:hover .sc-full-logo-cls-20 {
                fill: url(#sc-full-logo-linear-gradient-color-23);
            }

            .group:hover .sc-full-logo-cls-21 {
                fill: url(#sc-full-logo-linear-gradient-color-25);
            }

            .group:hover .sc-full-logo-cls-22 {
                fill: url(#sc-full-logo-linear-gradient-color-15);
            }

            .group:hover .sc-full-logo-cls-23 {
                fill: url(#sc-full-logo-linear-gradient-color-16);
            }

            .group:hover .sc-full-logo-cls-24 {
                fill: url(#sc-full-logo-linear-gradient-color-17);
            }

            .group:hover .sc-full-logo-cls-25 {
                fill: url(#sc-full-logo-linear-gradient-color-18);
            }

            .group:hover .sc-full-logo-cls-26 {
                fill: url(#sc-full-logo-linear-gradient-color-24);
            }

            .group:hover .sc-full-logo-cls-27 {
                fill: #f1f5f9;
            }

            .group:hover .sc-full-logo-cls-28 {
                clip-path: url(#clippath);
            }
        </style>
        <clipPath id="clippath">
            <path class="sc-full-logo-cls-1"
                d="M19.7,7.88l-3.94-6.82c-.38-.66-1.08-1.06-1.84-1.06h-7.87c-.76,0-1.46.41-1.84,1.06L.28,7.88c-.38.66-.38,1.47,0,2.13l3.94,6.82c.38.66,1.08,1.06,1.84,1.06h7.87c.76,0,1.46-.41,1.84-1.06l3.94-6.82c.38-.66.38-1.47,0-2.13h-.01ZM17.2,10.03l-2.67,4.63c-.39.67-1.1,1.08-1.87,1.08h-5.34c-.77,0-1.48-.41-1.87-1.08l-2.67-4.63c-.39-.67-.39-1.49,0-2.16l2.67-4.63c.39-.67,1.1-1.08,1.87-1.08h5.34c.77,0,1.48.41,1.87,1.08l2.67,4.63c.39.67.39,1.49,0,2.16ZM5.44,10.08c-.41-.7-.41-1.57,0-2.27l1.29-2.24c.41-.7,1.16-1.14,1.97-1.14h1.6l-4.06,7.03-.8-1.39h0ZM14.55,10.08l-1.29,2.24c-.41.7-1.16,1.14-1.97,1.14h-2.58c-.23,0-.46-.03-.67-.1l4.8-8.31c.16.15.31.33.42.53l1.29,2.24c.41.7.41,1.57,0,2.27h0Z" />
        </clipPath>
        <linearGradient id="sc-full-logo-linear-gradient" x1="-764.46" y1="-185.26" x2="-772.45" y2="-180.64"
            gradientTransform="translate(237.16 -752.44) rotate(-59.78) scale(1 -1)" gradientUnits="userSpaceOnUse">
            <stop offset="0" stop-color="#6b6b6b" />
            <stop offset="1" stop-color="#f4f4f5" />
        </linearGradient>
        <linearGradient id="sc-full-logo-linear-gradient-2" x1="-767.4" y1="-182.32" x2="-775.39" y2="-177.7"
            xlink:href="#sc-full-logo-linear-gradient" />
        <linearGradient id="sc-full-logo-linear-gradient-3" x1="-726.61" y1="-143.81" x2="-735.82" y2="-143.28"
            gradientTransform="translate(246.58 -695.91) rotate(-60) scale(1 -1)"
            xlink:href="#sc-full-logo-linear-gradient" />
        <linearGradient id="sc-full-logo-linear-gradient-4" x1="-723.68" y1="-146.75" x2="-732.89" y2="-146.22"
            gradientTransform="translate(246.58 -695.91) rotate(-60) scale(1 -1)"
            xlink:href="#sc-full-logo-linear-gradient" />
        <linearGradient id="sc-full-logo-linear-gradient-5" x1="8.1" y1="9.03" x2="2.42" y2=".37"
            gradientTransform="translate(0 20.1) scale(1 -1)" xlink:href="#sc-full-logo-linear-gradient" />
        <linearGradient id="sc-full-logo-linear-gradient-6" x1="-517.53" y1="459.46" x2="-526.74" y2="459.99"
            gradientTransform="translate(234.46 661.54) rotate(30) scale(1 -1)"
            xlink:href="#sc-full-logo-linear-gradient" />
        <linearGradient id="sc-full-logo-linear-gradient-7" x1="-1587.57" y1="4231.27" x2="-1596.79" y2="4231.8"
            gradientTransform="translate(-4446.87 -730.68) rotate(120) scale(1 -1)"
            xlink:href="#sc-full-logo-linear-gradient" />
        <linearGradient id="sc-full-logo-linear-gradient-8" x1="-1581.72" y1="4231.25" x2="-1590.94" y2="4231.79"
            gradientTransform="translate(-4446.87 -730.68) rotate(120) scale(1 -1)"
            xlink:href="#sc-full-logo-linear-gradient" />
        <linearGradient id="sc-full-logo-linear-gradient-9" x1="-729.59" y1="-146.75" x2="-738.8" y2="-146.21"
            gradientTransform="translate(246.58 -695.91) rotate(-60) scale(1 -1)"
            xlink:href="#sc-full-logo-linear-gradient" />
        <linearGradient id="sc-full-logo-linear-gradient-10" x1="-2083.94" y1="4077.08" x2="-2093.15" y2="4077.61"
            gradientTransform="translate(-4555.38 -216.79) rotate(120) scale(1 -1)"
            xlink:href="#sc-full-logo-linear-gradient" />
        <linearGradient id="sc-full-logo-linear-gradient-11" x1="-732.5" y1="-143.82" x2="-741.72" y2="-143.29"
            gradientTransform="translate(246.58 -695.91) rotate(-60) scale(1 -1)"
            xlink:href="#sc-full-logo-linear-gradient" />
        <linearGradient id="sc-full-logo-linear-gradient-12" x1="-2182.65" y1="4760.75" x2="-2190.65" y2="4765.36"
            gradientTransform="translate(-5214.64 -498.09) rotate(120.22) scale(1 -1)"
            xlink:href="#sc-full-logo-linear-gradient" />
        <linearGradient id="sc-full-logo-linear-gradient-13" x1="-767.3" y1="-194.04" x2="-775.3" y2="-189.43"
            xlink:href="#sc-full-logo-linear-gradient" />
        <linearGradient id="sc-full-logo-linear-gradient-14" x1="-2078.07" y1="4071.23" x2="-2087.29" y2="4071.76"
            gradientTransform="translate(-4555.38 -216.79) rotate(120) scale(1 -1)"
            xlink:href="#sc-full-logo-linear-gradient" />
        <linearGradient id="sc-full-logo-linear-gradient-15" x1="-726.59" y1="-155.55" x2="-735.8" y2="-155.01"
            gradientTransform="translate(246.58 -695.91) rotate(-60) scale(1 -1)"
            xlink:href="#sc-full-logo-linear-gradient" />
        <linearGradient id="sc-full-logo-linear-gradient-16" x1="17.21" y1="7.21" x2="11.53" y2="-1.45"
            gradientTransform="translate(0 20.1) scale(1 -1)" xlink:href="#sc-full-logo-linear-gradient" />
        <linearGradient id="sc-full-logo-linear-gradient-17" x1="-2086.88" y1="4074.15" x2="-2096.09" y2="4074.68"
            gradientTransform="translate(-4555.38 -216.79) rotate(120) scale(1 -1)"
            xlink:href="#sc-full-logo-linear-gradient" />
        <linearGradient id="sc-full-logo-linear-gradient-18" x1="-3406.29" y1="1915.03" x2="-3415.51" y2="1915.56"
            gradientTransform="translate(-1978.32 -3358.41) rotate(-150) scale(1 -1)"
            xlink:href="#sc-full-logo-linear-gradient" />
        <linearGradient id="sc-full-logo-linear-gradient-19" x1="795.99" y1="2909.84" x2="786.78" y2="2910.37"
            gradientTransform="translate(-2132 2145) rotate(30) scale(1 -1)"
            xlink:href="#sc-full-logo-linear-gradient" />
        <linearGradient id="sc-full-logo-linear-gradient-20" x1="-764.47" y1="-179.46" x2="-772.46" y2="-174.84"
            xlink:href="#sc-full-logo-linear-gradient" />
        <linearGradient id="sc-full-logo-linear-gradient-21" x1="-726.59" y1="-138.01" x2="-735.8" y2="-137.48"
            gradientTransform="translate(246.58 -695.91) rotate(-60) scale(1 -1)"
            xlink:href="#sc-full-logo-linear-gradient" />
        <linearGradient id="sc-full-logo-linear-gradient-22" x1="-732.49" y1="-138.02" x2="-741.7" y2="-137.48"
            gradientTransform="translate(246.58 -695.91) rotate(-60) scale(1 -1)"
            xlink:href="#sc-full-logo-linear-gradient" />
        <linearGradient id="sc-full-logo-linear-gradient-23" x1="-520.43" y1="462.35" x2="-529.65" y2="462.88"
            gradientTransform="translate(234.46 661.54) rotate(30) scale(1 -1)"
            xlink:href="#sc-full-logo-linear-gradient" />
        <linearGradient id="sc-full-logo-linear-gradient-24" x1="-3403.39" y1="1912.12" x2="-3412.6" y2="1912.66"
            gradientTransform="translate(-1978.32 -3358.41) rotate(-150) scale(1 -1)"
            xlink:href="#sc-full-logo-linear-gradient" />
        <linearGradient id="sc-full-logo-linear-gradient-25" x1="-2194.49" y1="4760.71" x2="-2202.48" y2="4765.33"
            gradientTransform="translate(-5214.64 -498.09) rotate(120.22) scale(1 -1)"
            xlink:href="#sc-full-logo-linear-gradient" />

        <linearGradient id="sc-full-logo-linear-gradient-color" x1="-754.02" y1="-167.11" x2="-762.01" y2="-162.49"
            gradientTransform="translate(247.59 -734.29) rotate(-59.78) scale(1 -1)" gradientUnits="userSpaceOnUse">
            <stop offset="0" stop-color="#ffc994" />
            <stop offset=".23" stop-color="#ffbd89" />
            <stop offset="1" stop-color="#ff9866" />
        </linearGradient>
        <linearGradient id="sc-full-logo-linear-gradient-color-2" x1="-756.97" y1="-164.17" x2="-764.96" y2="-159.55"
            gradientTransform="translate(247.59 -734.29) rotate(-59.78) scale(1 -1)" gradientUnits="userSpaceOnUse">
            <stop offset="0" stop-color="#ffe268" />
            <stop offset="1" stop-color="#ff9068" />
        </linearGradient>
        <linearGradient id="sc-full-logo-linear-gradient-color-3" x1="-716.11" y1="-125.62" x2="-725.32" y2="-125.09"
            gradientTransform="translate(257.08 -677.72) rotate(-60) scale(1 -1)"
            xlink:href="#sc-full-logo-linear-gradient-color" />
        <linearGradient id="sc-full-logo-linear-gradient-color-4" x1="-713.18" y1="-128.56" x2="-722.39" y2="-128.03"
            gradientTransform="translate(257.08 -677.72) rotate(-60) scale(1 -1)" gradientUnits="userSpaceOnUse">
            <stop offset="0" stop-color="#f9f" />
            <stop offset=".27" stop-color="#ff8aef" />
            <stop offset="1" stop-color="#ff66cb" />
        </linearGradient>
        <linearGradient id="sc-full-logo-linear-gradient-color-5" x1="8.1" y1="9.03" x2="2.42" y2=".37"
            gradientTransform="translate(0 20.1) scale(1 -1)" gradientUnits="userSpaceOnUse">
            <stop offset="0" stop-color="#ff66cb" />
            <stop offset="1" stop-color="#b337cb" />
        </linearGradient>
        <linearGradient id="sc-full-logo-linear-gradient-color-6" x1="-514.71" y1="448.95" x2="-523.93" y2="449.48"
            gradientTransform="translate(237.28 651.04) rotate(30) scale(1 -1)"
            xlink:href="#sc-full-logo-linear-gradient-color-5" />
        <linearGradient id="sc-full-logo-linear-gradient-color-7" x1="-1556.07" y1="4213.08" x2="-1565.29" y2="4213.61"
            gradientTransform="translate(-4415.37 -748.86) rotate(120) scale(1 -1)" gradientUnits="userSpaceOnUse">
            <stop offset="0" stop-color="#ff66cb" />
            <stop offset="1" stop-color="#c82e9a" />
        </linearGradient>
        <linearGradient id="sc-full-logo-linear-gradient-color-8" x1="-1550.22" y1="4213.07" x2="-1559.44" y2="4213.6"
            xlink:href="#sc-full-logo-linear-gradient-color-7" />
        <linearGradient id="sc-full-logo-linear-gradient-color-9" x1="-719.09" y1="-128.55" x2="-728.3" y2="-128.02"
            xlink:href="#sc-full-logo-linear-gradient-color-4" />
        <linearGradient id="sc-full-logo-linear-gradient-color-10" x1="-2052.44" y1="4058.89" x2="-2061.65" y2="4059.43"
            gradientTransform="translate(-4523.88 -234.98) rotate(120) scale(1 -1)" gradientUnits="userSpaceOnUse">
            <stop offset="0" stop-color="#6656ff" />
            <stop offset="1" stop-color="#667fff" />
        </linearGradient>
        <linearGradient id="sc-full-logo-linear-gradient-color-11" x1="-722" y1="-125.63" x2="-731.22" y2="-125.1"
            gradientTransform="translate(257.08 -677.72) rotate(-60) scale(1 -1)"
            xlink:href="#sc-full-logo-linear-gradient-color-2" />
        <linearGradient id="sc-full-logo-linear-gradient-color-12" x1="-2151.07" y1="4742.6" x2="-2159.06" y2="4747.21"
            gradientTransform="translate(-5183.07 -516.24) rotate(120.22) scale(1 -1)"
            xlink:href="#sc-full-logo-linear-gradient-color-2" />
        <linearGradient id="sc-full-logo-linear-gradient-color-13" x1="-756.87" y1="-175.89" x2="-764.87" y2="-171.28"
            gradientTransform="translate(247.59 -734.29) rotate(-59.78) scale(1 -1)"
            xlink:href="#sc-full-logo-linear-gradient-color-10" />
        <linearGradient id="sc-full-logo-linear-gradient-color-14" x1="-2046.57" y1="4053.04" x2="-2055.79" y2="4053.57"
            gradientTransform="translate(-4523.88 -234.98) rotate(120) scale(1 -1)" gradientUnits="userSpaceOnUse">
            <stop offset="0" stop-color="#9dadff" />
            <stop offset=".32" stop-color="#8a9dff" />
            <stop offset="1" stop-color="#667fff" />
        </linearGradient>
        <linearGradient id="sc-full-logo-linear-gradient-color-15" x1="-716.09" y1="-137.36" x2="-725.3" y2="-136.83"
            gradientTransform="translate(257.08 -677.72) rotate(-60) scale(1 -1)"
            xlink:href="#sc-full-logo-linear-gradient-color-10" />
        <linearGradient id="sc-full-logo-linear-gradient-color-16" x1="17.21" y1="7.21" x2="11.53" y2="-1.45"
            gradientTransform="translate(0 20.1) scale(1 -1)" gradientUnits="userSpaceOnUse">
            <stop offset="0" stop-color="#667fff" />
            <stop offset="1" stop-color="#2053ca" />
        </linearGradient>
        <linearGradient id="sc-full-logo-linear-gradient-color-17" x1="-2055.38" y1="4055.96" x2="-2064.59" y2="4056.49"
            xlink:href="#sc-full-logo-linear-gradient-color-10" />
        <linearGradient id="sc-full-logo-linear-gradient-color-18" x1="-3367.11" y1="1925.53" x2="-3376.32" y2="1926.06"
            gradientTransform="translate(-1939.13 -3347.91) rotate(-150) scale(1 -1)"
            xlink:href="#sc-full-logo-linear-gradient-color-7" />
        <linearGradient id="sc-full-logo-linear-gradient-color-19" x1="798.81" y1="2899.35" x2="789.59" y2="2899.88"
            gradientTransform="translate(-2129.19 2134.5) rotate(30) scale(1 -1)"
            xlink:href="#sc-full-logo-linear-gradient-color-14" />
        <linearGradient id="sc-full-logo-linear-gradient-color-20" x1="-754.03" y1="-161.31" x2="-762.03" y2="-156.7"
            xlink:href="#sc-full-logo-linear-gradient-color" />
        <linearGradient id="sc-full-logo-linear-gradient-color-21" x1="-716.09" y1="-119.82" x2="-725.3" y2="-119.28"
            gradientTransform="translate(257.08 -677.72) rotate(-60) scale(1 -1)"
            xlink:href="#sc-full-logo-linear-gradient-color" />
        <linearGradient id="sc-full-logo-linear-gradient-color-22" x1="-721.99" y1="-119.83" x2="-731.2" y2="-119.3"
            gradientTransform="translate(257.08 -677.72) rotate(-60) scale(1 -1)"
            xlink:href="#sc-full-logo-linear-gradient-color-2" />
        <linearGradient id="sc-full-logo-linear-gradient-color-23" x1="-517.62" y1="451.85" x2="-526.83" y2="452.38"
            gradientTransform="translate(237.28 651.04) rotate(30) scale(1 -1)"
            xlink:href="#sc-full-logo-linear-gradient-color-5" />
        <linearGradient id="sc-full-logo-linear-gradient-color-24" x1="-3364.2" y1="1922.62" x2="-3373.41" y2="1923.16"
            gradientTransform="translate(-1939.13 -3347.91) rotate(-150) scale(1 -1)"
            xlink:href="#sc-full-logo-linear-gradient-color-7" />
        <linearGradient id="sc-full-logo-linear-gradient-color-25" x1="-2162.92" y1="4742.58" x2="-2170.92" y2="4747.19"
            gradientTransform="translate(-5183.07 -516.24) rotate(120.22) scale(1 -1)"
            xlink:href="#sc-full-logo-linear-gradient-color-2" />
    </defs>
    <g id="sc-logo">
        <g id="gray">
            <g id="icon">
                <g class="sc-full-logo-cls-28">
                    <path class="sc-full-logo-cls-10"
                        d="M11.97.6c.29,1.11-.37,2.24-1.48,2.53s-1.77,1.43-1.48,2.53c.29,1.11-.37,2.24-1.48,2.53s-2.24-.37-2.53-1.48.37-2.24,1.48-2.53,1.77-1.43,1.48-2.53c-.29-1.11.37-2.24,1.48-2.53,1.11-.29,2.24.37,2.53,1.48Z" />
                    <path class="sc-full-logo-cls-9"
                        d="M7.94,1.67c.29,1.11-.37,2.24-1.48,2.53s-1.77,1.43-1.48,2.53c.29,1.11-.37,2.24-1.48,2.53s-2.24-.37-2.53-1.48.37-2.24,1.48-2.53c1.11-.29,1.77-1.43,1.48-2.53-.29-1.11.37-2.24,1.48-2.53,1.11-.29,2.24.37,2.53,1.48Z" />
                    <path class="sc-full-logo-cls-8"
                        d="M9.01,5.67c.3,1.11-.36,2.24-1.47,2.54s-1.76,1.43-1.47,2.54c.3,1.11-.36,2.24-1.47,2.54s-2.24-.36-2.54-1.47c-.3-1.11.36-2.24,1.47-2.54s1.76-1.43,1.47-2.54c-.3-1.11.36-2.24,1.47-2.54,1.11-.3,2.24.36,2.54,1.47Z" />
                    <path class="sc-full-logo-cls-7"
                        d="M13.02,4.6c.3,1.11-.36,2.24-1.47,2.54s-1.76,1.43-1.47,2.54c.3,1.11-.36,2.24-1.47,2.54-1.11.3-2.24-.36-2.54-1.47-.3-1.11.36-2.24,1.47-2.54,1.11-.3,1.76-1.43,1.47-2.54-.3-1.11.36-2.24,1.47-2.54,1.11-.3,2.24.36,2.54,1.47Z" />
                    <path class="sc-full-logo-cls-4"
                        d="M9.68,16.24c-1.11.3-1.76,1.43-1.47,2.54.3,1.11-.36,2.24-1.47,2.54-.32.08-.63.09-.93.03h-.03c-.75-.15-1.39-.71-1.6-1.5-.3-1.11-1.43-1.76-2.54-1.47-1.11.3-2.24-.36-2.54-1.47-.3-1.11.36-2.24,1.47-2.54s2.24.36,2.54,1.47,1.43,1.76,2.54,1.47c.04-.01.09-.02.13-.03h0c1.04-.34,1.64-1.44,1.35-2.51-.3-1.11.36-2.24,1.47-2.54s2.24.36,2.54,1.47c.3,1.11-.36,2.24-1.47,2.54h.01Z" />
                    <path class="sc-full-logo-cls-5"
                        d="M15.6,6.07c-1.11.3-2.24-.36-2.54-1.47s-1.43-1.76-2.54-1.47c-1.11.3-2.24-.36-2.54-1.47-.3-1.11.36-2.24,1.47-2.54,1.11-.3,2.24.36,2.54,1.47s1.43,1.76,2.54,1.47c1.11-.3,2.24.36,2.54,1.47s-.36,2.24-1.47,2.54Z" />
                    <path class="sc-full-logo-cls-3"
                        d="M10.11,9.67c-.3-1.11.36-2.24,1.47-2.54s1.76-1.43,1.47-2.54c-.3-1.11.36-2.24,1.47-2.54,1.11-.3,2.24.36,2.54,1.47s-.36,2.24-1.47,2.54-1.76,1.43-1.47,2.54c.3,1.11-.36,2.24-1.47,2.54-1.11.3-2.24-.36-2.54-1.47Z" />
                    <path class="sc-full-logo-cls-2"
                        d="M7.17,14.73c-.3-1.11.36-2.24,1.47-2.54s1.76-1.43,1.47-2.54c-.3-1.11.36-2.24,1.47-2.54,1.11-.3,2.24.36,2.54,1.47.3,1.11-.36,2.24-1.47,2.54-1.11.3-1.76,1.43-1.47,2.54.3,1.11-.36,2.24-1.47,2.54-1.11.3-2.24-.36-2.54-1.47Z" />
                    <path class="sc-full-logo-cls-6"
                        d="M10.06,9.71c.3,1.11-.36,2.24-1.47,2.54s-1.76,1.43-1.47,2.54c.3,1.11-.36,2.24-1.47,2.54s-2.24-.36-2.54-1.47.36-2.24,1.47-2.54,1.76-1.43,1.47-2.54c-.3-1.11.36-2.24,1.47-2.54,1.11-.3,2.24.36,2.54,1.47Z" />
                    <path class="sc-full-logo-cls-11"
                        d="M16.26,16.59c-.3-1.11.36-2.24,1.47-2.54s1.76-1.43,1.47-2.54c-.3-1.11.36-2.24,1.47-2.54,1.11-.3,2.24.36,2.54,1.47.3,1.11-.36,2.24-1.47,2.54-1.11.3-1.76,1.43-1.47,2.54.3,1.11-.36,2.24-1.47,2.54-1.11.3-2.24-.36-2.54-1.47Z" />
                    <path class="sc-full-logo-cls-12"
                        d="M6.07,10.78c.3,1.11-.36,2.24-1.47,2.54s-1.76,1.43-1.47,2.54c.3,1.11-.36,2.24-1.47,2.54-1.11.3-2.24-.36-2.54-1.47-.3-1.11.36-2.24,1.47-2.54s1.76-1.43,1.47-2.54c-.3-1.11.36-2.24,1.47-2.54s2.24.36,2.54,1.47Z" />
                    <path class="sc-full-logo-cls-13"
                        d="M-1.96,12.93c-.29-1.11.37-2.24,1.48-2.53s1.77-1.43,1.48-2.53c-.29-1.11.37-2.24,1.48-2.53,1.11-.29,2.24.37,2.53,1.48s-.37,2.24-1.48,2.53-1.77,1.43-1.48,2.53c.29,1.11-.37,2.24-1.48,2.53s-2.24-.37-2.53-1.48Z" />
                    <path class="sc-full-logo-cls-14"
                        d="M18.12,7.49c.29,1.11-.37,2.24-1.48,2.53s-1.77,1.43-1.48,2.53c.29,1.11-.37,2.24-1.48,2.53s-2.24-.37-2.53-1.48c-.29-1.11.37-2.24,1.48-2.53,1.11-.29,1.77-1.43,1.48-2.53-.29-1.11.37-2.24,1.48-2.53,1.11-.29,2.24.37,2.53,1.48Z" />
                    <path class="sc-full-logo-cls-16"
                        d="M8.26,18.75c-.3-1.11.36-2.24,1.47-2.54s1.76-1.43,1.47-2.54c-.3-1.11.36-2.24,1.47-2.54,1.11-.3,2.24.36,2.54,1.47.3,1.11-.36,2.24-1.47,2.54-1.11.3-1.76,1.43-1.47,2.54.3,1.11-.36,2.24-1.47,2.54-1.11.3-2.24-.36-2.54-1.47Z" />
                    <path class="sc-full-logo-cls-22"
                        d="M19.18,11.52c.3,1.11-.36,2.24-1.47,2.54s-1.76,1.43-1.47,2.54c.3,1.11-.36,2.24-1.47,2.54-1.11.3-2.24-.36-2.54-1.47-.3-1.11.36-2.24,1.47-2.54,1.11-.3,1.76-1.43,1.47-2.54-.3-1.11.36-2.24,1.47-2.54,1.11-.3,2.24.36,2.54,1.47Z" />
                    <path class="sc-full-logo-cls-23"
                        d="M18.79,18.06c-1.11.3-1.76,1.43-1.47,2.54.3,1.11-.36,2.24-1.47,2.54-.32.08-.63.09-.93.03h-.03c-.75-.15-1.39-.71-1.6-1.5-.3-1.11-1.43-1.76-2.54-1.47-1.11.3-2.24-.36-2.54-1.47-.3-1.11.36-2.24,1.47-2.54,1.11-.3,2.24.36,2.54,1.47.3,1.11,1.43,1.76,2.54,1.47.04-.01.09-.02.13-.03h0c1.04-.34,1.64-1.44,1.35-2.51-.3-1.11.36-2.24,1.47-2.54,1.11-.3,2.24.36,2.54,1.47s-.36,2.24-1.47,2.54h.01Z" />
                    <path class="sc-full-logo-cls-24"
                        d="M15.18,12.58c-.3-1.11.36-2.24,1.47-2.54s1.76-1.43,1.47-2.54c-.3-1.11.36-2.24,1.47-2.54,1.11-.3,2.24.36,2.54,1.47.3,1.11-.36,2.24-1.47,2.54-1.11.3-1.76,1.43-1.47,2.54.3,1.11-.36,2.24-1.47,2.54-1.11.3-2.24-.36-2.54-1.47Z" />
                    <path class="sc-full-logo-cls-25"
                        d="M14.51,2.02c1.11-.3,2.24.36,2.54,1.47s1.43,1.76,2.54,1.47c1.11-.3,2.24.36,2.54,1.47.3,1.11-.36,2.24-1.47,2.54-1.11.3-2.24-.36-2.54-1.47-.3-1.11-1.43-1.76-2.54-1.47-1.11.3-2.24-.36-2.54-1.47s.36-2.24,1.47-2.54Z" />
                    <path class="sc-full-logo-cls-15"
                        d="M11.86,24.19c-1.11.3-2.24-.36-2.54-1.47s-1.43-1.76-2.54-1.47c-1.11.3-2.24-.36-2.54-1.47-.3-1.11.36-2.24,1.47-2.54,1.11-.3,2.24.36,2.54,1.47.3,1.11,1.43,1.76,2.54,1.47,1.11-.3,2.24.36,2.54,1.47.3,1.11-.36,2.24-1.47,2.54Z" />
                    <path class="sc-full-logo-cls-18"
                        d="M6.94-2.31c.29,1.11-.37,2.24-1.48,2.53s-1.77,1.43-1.48,2.53c.29,1.11-.37,2.24-1.48,2.53C1.4,5.58.28,4.92-.01,3.81-.31,2.71.34,1.57,1.46,1.28c1.11-.29,1.77-1.43,1.48-2.53-.29-1.11.37-2.24,1.48-2.53,1.11-.29,2.24.37,2.53,1.48h0Z" />
                    <path class="sc-full-logo-cls-17"
                        d="M3.99,2.75c.3,1.11-.36,2.24-1.47,2.54s-1.76,1.43-1.47,2.54c.3,1.11-.36,2.24-1.47,2.54s-2.24-.36-2.54-1.47c-.3-1.11.36-2.24,1.47-2.54C-.38,6.07.28,4.93-.02,3.82-.31,2.72.34,1.58,1.45,1.28c1.11-.3,2.24.36,2.54,1.47Z" />
                    <path class="sc-full-logo-cls-19"
                        d="M1.04,7.86c.3,1.11-.36,2.24-1.47,2.54s-1.76,1.43-1.47,2.54c.3,1.11-.36,2.24-1.47,2.54s-2.24-.36-2.54-1.47c-.3-1.11.36-2.24,1.47-2.54,1.11-.3,1.76-1.43,1.47-2.54-.3-1.11.36-2.24,1.47-2.54,1.11-.3,2.24.36,2.54,1.47Z" />
                    <path class="sc-full-logo-cls-20"
                        d="M14.52,2.11c-1.11.3-2.24-.36-2.54-1.47s-1.43-1.76-2.54-1.47c-1.11.3-2.24-.36-2.54-1.47-.3-1.11.36-2.24,1.47-2.54,1.11-.3,2.24.36,2.54,1.47s1.43,1.76,2.54,1.47c1.11-.3,2.24.36,2.54,1.47.3,1.11-.36,2.24-1.47,2.54Z" />
                    <path class="sc-full-logo-cls-26"
                        d="M13.44-1.95c1.11-.3,2.24.36,2.54,1.47.3,1.11,1.43,1.76,2.54,1.47,1.11-.3,2.24.36,2.54,1.47.3,1.11-.36,2.24-1.47,2.54-1.11.3-2.24-.36-2.54-1.47s-1.43-1.76-2.54-1.47c-1.11.3-2.24-.36-2.54-1.47s.36-2.24,1.47-2.54Z" />
                    <path class="sc-full-logo-cls-21"
                        d="M3.99,2.68c-.29-1.11.37-2.24,1.48-2.53s1.77-1.43,1.48-2.53c-.29-1.11.37-2.24,1.48-2.53,1.11-.29,2.24.37,2.53,1.48s-.37,2.24-1.48,2.53c-1.11.29-1.77,1.43-1.48,2.53.29,1.11-.37,2.24-1.48,2.53-1.11.29-2.24-.37-2.53-1.48Z" />
                </g>
            </g>
            <g id="name">
                <path class="sc-full-logo-cls-27"
                    d="M29.86,17.94c-2.43,0-4.54-.91-6.31-2.74l2.59-3.17c1.25,1.27,2.55,1.9,3.89,1.9.5,0,.86-.11,1.1-.32s.36-.48.36-.78c0-.35-.14-.64-.42-.86-.28-.22-.86-.48-1.74-.77-.77-.26-1.41-.52-1.93-.78-.52-.26-1.05-.61-1.6-1.03-.54-.42-.96-.96-1.24-1.6-.28-.64-.42-1.38-.42-2.21,0-1.46.54-2.67,1.62-3.65s2.44-1.48,4.07-1.51c2.26-.05,4.27.71,6.03,2.28l-2.52,3.24c-1.33-1.02-2.41-1.54-3.24-1.54s-1.2.34-1.2,1.01c0,.3.14.58.43.84.29.26.84.54,1.66.86,1.78.67,2.95,1.2,3.51,1.58,1.2.82,1.8,2.02,1.8,3.6,0,1.02-.2,1.92-.59,2.68-.39.76-.92,1.35-1.57,1.76-.66.42-1.34.72-2.05.91-.71.19-1.45.29-2.22.29h0Z" />
                <path class="sc-full-logo-cls-27"
                    d="M45.49,5.69c1.31,0,2.34.37,3.07,1.1.74.74,1.1,2,1.1,3.79v7.11h-4.3v-6.08c0-.82-.12-1.38-.36-1.68s-.63-.46-1.18-.46c-1.14,0-1.7.77-1.7,2.31v5.91h-4.3V5.93h4.3v1.3h.02c.86-1.02,1.98-1.54,3.34-1.54h0Z" />
                <path class="sc-full-logo-cls-27"
                    d="M57.62,17.94c-1.91,0-3.46-.57-4.66-1.7-1.2-1.14-1.8-2.61-1.8-4.42s.6-3.28,1.8-4.42,2.75-1.7,4.66-1.7,3.43.57,4.63,1.7,1.8,2.61,1.8,4.42-.6,3.28-1.8,4.42-2.75,1.7-4.63,1.7ZM56.09,13.51c.41.44.92.66,1.52.66s1.11-.22,1.51-.66c.4-.44.6-1.01.6-1.69s-.2-1.25-.59-1.68c-.39-.43-.9-.65-1.52-.65s-1.14.22-1.54.65c-.4.43-.6.99-.6,1.68s.2,1.25.61,1.69Z" />
                <path class="sc-full-logo-cls-27"
                    d="M77.93,5.93h4.23l-3.96,11.77h-3.31l-1.75-6.63h-.02l-1.68,6.63h-3.41l-3.94-11.77h4.23l1.62,5.67h.05l1.49-5.67h3.27l1.49,5.67h.05l1.65-5.67h0Z" />
                <path class="sc-full-logo-cls-27"
                    d="M91.91,17.94c-2.51,0-4.63-.78-6.34-2.33-1.71-1.55-2.57-3.69-2.57-6.41,0-2.51.8-4.61,2.39-6.29,1.59-1.68,3.77-2.52,6.52-2.52,1.25,0,2.49.28,3.72.83s2.31,1.38,3.22,2.49l-3.34,2.86c-1.04-1.19-2.24-1.78-3.6-1.78-1.12,0-2.09.39-2.89,1.18-.81.78-1.21,1.86-1.21,3.24,0,1.22.37,2.24,1.12,3.09s1.74,1.26,2.99,1.26c.67,0,1.34-.16,1.99-.48.66-.32,1.19-.74,1.61-1.25l3.34,2.88c-.78.96-1.78,1.74-2.98,2.34-1.2.6-2.52.9-3.96.9h0Z" />
                <path class="sc-full-logo-cls-27"
                    d="M106.15,17.94c-1.91,0-3.46-.57-4.66-1.7-1.2-1.14-1.8-2.61-1.8-4.42s.6-3.28,1.8-4.42c1.2-1.14,2.75-1.7,4.66-1.7s3.43.57,4.63,1.7,1.8,2.61,1.8,4.42-.6,3.28-1.8,4.42c-1.2,1.14-2.75,1.7-4.63,1.7ZM104.62,13.51c.41.44.92.66,1.52.66s1.11-.22,1.51-.66c.4-.44.6-1.01.6-1.69s-.2-1.25-.59-1.68c-.39-.43-.9-.65-1.52-.65s-1.14.22-1.54.65c-.4.43-.6.99-.6,1.68s.2,1.25.61,1.69h0Z" />
                <path class="sc-full-logo-cls-27"
                    d="M121.85,5.69c1.31,0,2.34.37,3.07,1.1.74.74,1.1,2,1.1,3.79v7.11h-4.3v-6.08c0-.82-.12-1.38-.36-1.68s-.63-.46-1.18-.46c-1.14,0-1.7.77-1.7,2.31v5.91h-4.3V5.93h4.3v1.3h.02c.86-1.02,1.98-1.54,3.34-1.54h0Z" />
                <path class="sc-full-logo-cls-27"
                    d="M139.53,11.72c0,.38-.03.77-.1,1.15h-7.71c.1.54.36.96.8,1.25s.98.43,1.62.43c.98,0,1.88-.43,2.71-1.3l2.21,2.45c-.54.66-1.28,1.19-2.21,1.61-.93.42-1.99.62-3.17.62-1.78,0-3.25-.57-4.42-1.72-1.17-1.14-1.75-2.61-1.75-4.41s.57-3.24,1.72-4.39,2.6-1.73,4.38-1.73,3.11.56,4.23,1.69c1.12,1.13,1.68,2.57,1.68,4.33h0ZM133.59,8.96c-.48,0-.89.14-1.22.42-.34.28-.55.67-.65,1.16h3.65c-.21-1.06-.8-1.58-1.78-1.58h0Z" />
            </g>
        </g>
    </g>
</svg>