<?xml version="1.0" encoding="UTF-8"?><svg id="uuid-e70fc2a2-a6a4-40d5-825f-a5dc33475cc6" xmlns="http://www.w3.org/2000/svg" xmlns:xlink="http://www.w3.org/1999/xlink" viewBox="0 0 561.78 502.53"><defs><clipPath id="uuid-8f12ca59-9654-440e-857b-f7007443e00d"><path d="M553.75,221.35L443.22,29.91c-10.69-18.51-30.44-29.91-51.81-29.91h-221.06c-21.37,0-41.13,11.4-51.81,29.91L8.02,221.35c-10.69,18.51-10.69,41.32,0,59.83l110.53,191.44c10.69,18.51,30.44,29.91,51.81,29.91h221.06c21.37,0,41.13-11.4,51.81-29.91l110.53-191.44c10.69-18.51,10.69-41.32,0-59.83h-.01ZM483.41,281.59l-75,129.91c-10.83,18.76-30.85,30.32-52.52,30.32h-150.01c-21.66,0-41.68-11.56-52.52-30.32l-75-129.91c-10.83-18.76-10.83-41.88,0-60.64l75-129.91c10.83-18.76,30.85-30.32,52.52-30.32h150.01c21.66,0,41.68,11.56,52.52,30.32l75,129.91c10.83,18.76,10.83,41.88,0,60.64ZM153.08,283.19c-11.41-19.75-11.41-44.09,0-63.85l36.25-62.79c11.41-19.75,32.48-31.92,55.29-31.92h44.98l-114.04,197.52-22.49-38.95h.01ZM408.69,283.19l-36.25,62.79c-11.41,19.75-32.48,31.92-55.29,31.92h-72.51c-6.47,0-12.79-.98-18.8-2.83l134.75-233.39c4.61,4.28,8.62,9.26,11.85,14.86l36.25,62.79c11.41,19.75,11.41,44.09,0,63.85h0Z" fill="none"/></clipPath><linearGradient id="uuid-153424ce-73b3-4593-8858-af820faf7e9d" x1="546.44" y1="-490.46" x2="321.93" y2="-360.84" gradientTransform="translate(-348.05 263.94) rotate(-59.78) scale(1 -1)" gradientUnits="userSpaceOnUse"><stop offset="0" stop-color="#ffc994"/><stop offset=".23" stop-color="#ffbd89"/><stop offset="1" stop-color="#ff9866"/></linearGradient><linearGradient id="uuid-bb58b281-53e3-42d7-a127-bce72ff7df09" x1="-673.95" y1="629.19" x2="-558.95" y2="629.19" gradientTransform="translate(187.03 1055.74) rotate(45) scale(1 -1)" gradientUnits="userSpaceOnUse"><stop offset="0" stop-color="#ff66cb"/><stop offset="1" stop-color="#b337cb"/></linearGradient><linearGradient id="uuid-dfaedc35-797b-4b17-b975-032ff42320af" x1="463.63" y1="-407.92" x2="239.14" y2="-278.29" gradientTransform="translate(-348.05 263.94) rotate(-59.78) scale(1 -1)" gradientUnits="userSpaceOnUse"><stop offset="0" stop-color="#ffe268"/><stop offset="1" stop-color="#ff9068"/></linearGradient><linearGradient id="uuid-67ad8d6f-c632-42c3-87b3-1f786a7376b5" x1="431.78" y1="-396.61" x2="172.98" y2="-381.65" gradientTransform="translate(-339.6 323.44) rotate(-60) scale(1 -1)" xlink:href="#uuid-153424ce-73b3-4593-8858-af820faf7e9d"/><linearGradient id="uuid-87518d13-f28b-4357-8d2e-00440298c257" x1="514" y1="-479.34" x2="255.2" y2="-464.38" gradientTransform="translate(-339.6 323.44) rotate(-60) scale(1 -1)" gradientUnits="userSpaceOnUse"><stop offset="0" stop-color="#f9f"/><stop offset=".27" stop-color="#ff8aef"/><stop offset="1" stop-color="#ff66cb"/></linearGradient><linearGradient id="uuid-60d84000-b09e-49eb-8166-5dc0553c84e2" x1="227.82" y1="192.76" x2="68.18" y2="-50.19" gradientTransform="translate(0 504) scale(1 -1)" xlink:href="#uuid-bb58b281-53e3-42d7-a127-bce72ff7df09"/><linearGradient id="uuid-80559db1-05a2-4714-89bc-43ce305f4bf5" x1="-682.74" y1="791.27" x2="-941.54" y2="806.23" gradientTransform="translate(645.01 1164.01) rotate(30) scale(1 -1)" xlink:href="#uuid-bb58b281-53e3-42d7-a127-bce72ff7df09"/><linearGradient id="uuid-22edf268-dfd5-46f7-8483-bd134b6f0da8" x1="-2338.99" y1="3080" x2="-2597.78" y2="3094.96" gradientTransform="translate(-3519.46 768.52) rotate(120) scale(1 -1)" gradientUnits="userSpaceOnUse"><stop offset="0" stop-color="#ff66cb"/><stop offset="1" stop-color="#c82e9a"/></linearGradient><linearGradient id="uuid-e3c37428-1e27-4e71-9987-ae14563bb6ab" x1="-2174.69" y1="3079.49" x2="-2433.49" y2="3094.45" xlink:href="#uuid-22edf268-dfd5-46f7-8483-bd134b6f0da8"/><linearGradient id="uuid-382271b1-231e-437c-973f-3208080a606a" x1="348.14" y1="-478.97" x2="89.34" y2="-464.02" xlink:href="#uuid-87518d13-f28b-4357-8d2e-00440298c257"/><linearGradient id="uuid-43bf6f8f-c124-48ac-bd12-7a3b1add9467" x1="-2756.13" y1="3163.6" x2="-3014.93" y2="3178.56" gradientTransform="translate(-3627.97 1282.4) rotate(120) scale(1 -1)" gradientUnits="userSpaceOnUse"><stop offset="0" stop-color="#6656ff"/><stop offset="1" stop-color="#667fff"/></linearGradient><linearGradient id="uuid-c95b4699-efff-471b-8eb6-3b42a6c60add" x1="266.16" y1="-396.98" x2="7.36" y2="-382.02" gradientTransform="translate(-339.6 323.44) rotate(-60) scale(1 -1)" xlink:href="#uuid-dfaedc35-797b-4b17-b975-032ff42320af"/><linearGradient id="uuid-974cacbd-25a1-4d89-958e-8241e27b7da0" x1="-2695.87" y1="3311.93" x2="-2920.38" y2="3441.55" gradientTransform="translate(-4288.19 1004.08) rotate(120.22) scale(1 -1)" xlink:href="#uuid-dfaedc35-797b-4b17-b975-032ff42320af"/><linearGradient id="uuid-2fedddfe-a6b3-4034-98b3-3ec212b67c84" x1="466.21" y1="-737.22" x2="241.7" y2="-607.61" gradientTransform="translate(-348.05 263.94) rotate(-59.78) scale(1 -1)" xlink:href="#uuid-43bf6f8f-c124-48ac-bd12-7a3b1add9467"/><linearGradient id="uuid-337adce8-4708-4f1d-85a6-e803983d1a32" x1="-2591.36" y1="2999.25" x2="-2850.16" y2="3014.21" gradientTransform="translate(-3627.97 1282.4) rotate(120) scale(1 -1)" gradientUnits="userSpaceOnUse"><stop offset="0" stop-color="#9dadff"/><stop offset=".32" stop-color="#8a9dff"/><stop offset="1" stop-color="#667fff"/></linearGradient><linearGradient id="uuid-0c802d41-7518-4a92-8bdd-527f13d5b9dc" x1="432.25" y1="-726.13" x2="173.45" y2="-711.18" gradientTransform="translate(-339.6 323.44) rotate(-60) scale(1 -1)" xlink:href="#uuid-43bf6f8f-c124-48ac-bd12-7a3b1add9467"/><linearGradient id="uuid-e480a5c9-f0c6-456d-9df5-f6d1ac183881" x1="483.68" y1="141.76" x2="324.04" y2="-101.19" gradientTransform="translate(0 504) scale(1 -1)" gradientUnits="userSpaceOnUse"><stop offset="0" stop-color="#667fff"/><stop offset="1" stop-color="#2053ca"/></linearGradient><linearGradient id="uuid-035c783e-81b2-4dc1-a8f0-4626391ab68a" x1="-2838.74" y1="3081.2" x2="-3097.54" y2="3096.16" xlink:href="#uuid-43bf6f8f-c124-48ac-bd12-7a3b1add9467"/><linearGradient id="uuid-56f94f73-7eed-446b-9aa6-6397db28a3bf" x1="-2832.64" y1="18.42" x2="-3091.43" y2="33.38" gradientTransform="translate(-2047.63 -1342.32) rotate(-150) scale(1 -1)" xlink:href="#uuid-22edf268-dfd5-46f7-8483-bd134b6f0da8"/><linearGradient id="uuid-896d7819-a94c-4913-b084-393929b38798" x1="788.68" y1="2766.34" x2="529.88" y2="2781.29" gradientTransform="translate(-1721.45 2647.47) rotate(30) scale(1 -1)" xlink:href="#uuid-337adce8-4708-4f1d-85a6-e803983d1a32"/><linearGradient id="uuid-1bae9fdd-9edf-4fcc-87d4-c9eb448fe5db" x1="546.32" y1="-327.48" x2="321.82" y2="-197.86" xlink:href="#uuid-153424ce-73b3-4593-8858-af820faf7e9d"/><linearGradient id="uuid-8edbfd1d-6f7a-48b3-bed6-26abd00c6e20" x1="432.29" y1="-233.62" x2="173.49" y2="-218.66" gradientTransform="translate(-339.6 323.44) rotate(-60) scale(1 -1)" xlink:href="#uuid-153424ce-73b3-4593-8858-af820faf7e9d"/><linearGradient id="uuid-f82cd6c6-f9e4-472b-82c0-a378d840d20b" x1="266.67" y1="-234" x2="7.87" y2="-219.05" gradientTransform="translate(-339.6 323.44) rotate(-60) scale(1 -1)" xlink:href="#uuid-dfaedc35-797b-4b17-b975-032ff42320af"/><linearGradient id="uuid-25a02d20-c076-4d64-9730-50f1fed64677" x1="-764.38" y1="872.76" x2="-1023.18" y2="887.72" gradientTransform="translate(645.01 1164.01) rotate(30) scale(1 -1)" xlink:href="#uuid-bb58b281-53e3-42d7-a127-bce72ff7df09"/><linearGradient id="uuid-37d24992-1669-45a0-b3c3-44be73dfe901" x1="-2751" y1="-63.07" x2="-3009.79" y2="-48.12" gradientTransform="translate(-2047.63 -1342.32) rotate(-150) scale(1 -1)" xlink:href="#uuid-22edf268-dfd5-46f7-8483-bd134b6f0da8"/><linearGradient id="uuid-08e54630-7d1f-4180-bdaf-94316bc347f6" x1="-3028.62" y1="3311.19" x2="-3253.13" y2="3440.8" gradientTransform="translate(-4288.19 1004.08) rotate(120.22) scale(1 -1)" xlink:href="#uuid-dfaedc35-797b-4b17-b975-032ff42320af"/></defs><g id="uuid-2e186c3b-62db-42eb-8980-719c429b8785"><g id="uuid-dce8bef7-44f7-4953-bbde-ce0a979cc4f0"><g clip-path="url(#uuid-8f12ca59-9654-440e-857b-f7007443e00d)"><path d="M336.08,16.95c8.21,31.11-10.36,62.98-41.47,71.19-31.11,8.2-49.67,40.08-41.47,71.19,8.21,31.11-10.36,62.98-41.47,71.18-31.11,8.21-62.98-10.36-71.18-41.47-8.21-31.11,10.36-62.98,41.47-71.18,31.11-8.21,49.68-40.08,41.47-71.19-8.21-31.11,10.36-62.98,41.47-71.19,31.11-8.2,62.98,10.36,71.18,41.47Z" fill="url(#uuid-153424ce-73b3-4593-8858-af820faf7e9d)"/><circle cx="196.04" cy="174.94" r="57.5" fill="url(#uuid-bb58b281-53e3-42d7-a127-bce72ff7df09)"/><path d="M196.04,224.16c-13.15,0-25.51-5.12-34.8-14.42-19.19-19.19-19.19-50.42,0-69.61,9.3-9.3,21.66-14.42,34.8-14.42s25.51,5.12,34.8,14.42c19.19,19.19,19.19,50.42,0,69.61-9.3,9.3-21.66,14.42-34.8,14.42Z" fill="#fff"/><path d="M223.08,46.95c8.21,31.11-10.36,62.98-41.47,71.19-31.11,8.2-49.67,40.08-41.47,71.19,8.21,31.11-10.36,62.98-41.47,71.18-31.11,8.21-62.98-10.36-71.18-41.47-8.21-31.11,10.36-62.98,41.47-71.18,31.11-8.21,49.68-40.08,41.47-71.19S120.79,13.69,151.9,5.48c31.11-8.2,62.98,10.36,71.18,41.47h0Z" fill="url(#uuid-dfaedc35-797b-4b17-b975-032ff42320af)"/><path d="M252.99,159.13c8.33,31.08-10.11,63.02-41.19,71.35-31.07,8.33-49.52,40.27-41.19,71.35,8.33,31.08-10.11,63.02-41.19,71.34-31.08,8.33-63.02-10.11-71.34-41.19-8.33-31.08,10.11-63.02,41.19-71.34,31.08-8.33,49.52-40.27,41.19-71.35s10.11-63.02,41.19-71.35c31.07-8.33,63.02,10.12,71.34,41.19Z" fill="url(#uuid-67ad8d6f-c632-42c3-87b3-1f786a7376b5)"/><path d="M365.74,129.3c8.33,31.08-10.11,63.02-41.19,71.35-31.07,8.33-49.52,40.27-41.19,71.35,8.33,31.08-10.11,63.02-41.19,71.34-31.08,8.33-63.02-10.11-71.34-41.19-8.33-31.08,10.11-63.02,41.19-71.34,31.08-8.33,49.52-40.27,41.19-71.35-8.33-31.08,10.11-63.02,41.19-71.35,31.07-8.33,63.02,10.12,71.34,41.19h0Z" fill="url(#uuid-87518d13-f28b-4357-8d2e-00440298c257)"/><path d="M271.9,456.26c-31.08,8.33-49.52,40.28-41.19,71.35,8.33,31.08-10.12,63.02-41.19,71.35-8.87,2.38-17.81,2.57-26.25.91-.24-.04-.47-.09-.71-.14-21.05-4.2-38.97-19.93-44.91-42.07-8.32-31.07-40.27-49.51-71.34-41.19-31.08,8.33-63.02-10.11-71.35-41.19-8.33-31.07,10.12-63.02,41.19-71.34,31.08-8.33,63.02,10.11,71.35,41.19,8.33,31.07,40.27,49.52,71.34,41.19,1.26-.34,2.51-.63,3.77-.88h.02c29.09-9.62,45.95-40.4,37.92-70.37-8.32-31.08,10.12-63.02,41.2-71.34,31.07-8.33,63.01,10.11,71.34,41.19,8.33,31.08-10.11,63.02-41.19,71.34h0Z" fill="url(#uuid-60d84000-b09e-49eb-8166-5dc0553c84e2)"/><path d="M438.06,170.61c-31.08,8.33-63.02-10.11-71.35-41.19-8.33-31.07-40.27-49.52-71.35-41.19-31.08,8.33-63.02-10.11-71.34-41.19-8.33-31.08,10.11-63.02,41.19-71.34,31.08-8.33,63.02,10.11,71.34,41.19,8.33,31.08,40.27,49.52,71.35,41.19,31.08-8.33,63.02,10.11,71.35,41.19,8.33,31.07-10.12,63.02-41.19,71.34h0Z" fill="url(#uuid-80559db1-05a2-4714-89bc-43ce305f4bf5)"/><path d="M284.17,271.58c-8.33-31.08,10.11-63.02,41.19-71.35,31.07-8.33,49.52-40.27,41.19-71.35s10.11-63.02,41.19-71.34c31.08-8.33,63.02,10.11,71.34,41.19,8.33,31.08-10.11,63.02-41.19,71.34-31.08,8.33-49.52,40.27-41.19,71.35,8.33,31.08-10.11,63.02-41.19,71.35-31.07,8.33-63.02-10.12-71.34-41.19Z" fill="url(#uuid-22edf268-dfd5-46f7-8483-bd134b6f0da8)"/><path d="M201.58,413.61c-8.33-31.08,10.11-63.02,41.19-71.35,31.07-8.33,49.52-40.27,41.19-71.35-8.33-31.08,10.11-63.02,41.19-71.34,31.08-8.33,63.02,10.11,71.34,41.19,8.33,31.08-10.11,63.02-41.19,71.34-31.08,8.33-49.52,40.27-41.19,71.35,8.33,31.08-10.11,63.02-41.19,71.35-31.07,8.33-63.02-10.12-71.34-41.19h0Z" fill="url(#uuid-e3c37428-1e27-4e71-9987-ae14563bb6ab)"/><path d="M282.5,272.75c8.33,31.08-10.11,63.02-41.19,71.35-31.07,8.33-49.52,40.27-41.19,71.35,8.33,31.08-10.11,63.02-41.19,71.34-31.08,8.33-63.02-10.11-71.34-41.19-8.33-31.08,10.11-63.02,41.19-71.34,31.08-8.33,49.52-40.27,41.19-71.35-8.33-31.08,10.11-63.02,41.19-71.35,31.07-8.33,63.02,10.12,71.34,41.19Z" fill="url(#uuid-382271b1-231e-437c-973f-3208080a606a)"/><path d="M456.63,466c-8.33-31.08,10.11-63.02,41.19-71.35,31.07-8.33,49.52-40.27,41.19-71.35-8.33-31.08,10.11-63.02,41.19-71.34,31.08-8.33,63.02,10.11,71.34,41.19,8.33,31.08-10.11,63.02-41.19,71.34-31.08,8.33-49.52,40.27-41.19,71.35,8.33,31.08-10.11,63.02-41.19,71.35-31.07,8.33-63.02-10.12-71.34-41.19h0Z" fill="url(#uuid-43bf6f8f-c124-48ac-bd12-7a3b1add9467)"/><path d="M170.5,302.75c8.33,31.08-10.11,63.02-41.19,71.35-31.07,8.33-49.52,40.27-41.19,71.35,8.33,31.08-10.11,63.02-41.19,71.34-31.08,8.33-63.02-10.11-71.34-41.19-8.33-31.08,10.11-63.02,41.19-71.34,31.08-8.33,49.52-40.27,41.19-71.35-8.33-31.08,10.11-63.02,41.19-71.35,31.07-8.33,63.02,10.12,71.34,41.19h0Z" fill="url(#uuid-c95b4699-efff-471b-8eb6-3b42a6c60add)"/><path d="M-54.76,363.22c-8.21-31.11,10.36-62.98,41.47-71.19s49.67-40.08,41.47-71.19c-8.21-31.11,10.36-62.98,41.47-71.18,31.11-8.21,62.98,10.36,71.18,41.47,8.21,31.11-10.36,62.98-41.47,71.18-31.11,8.21-49.68,40.08-41.47,71.19s-10.36,62.98-41.47,71.19c-31.11,8.2-62.98-10.36-71.18-41.47h0Z" fill="url(#uuid-974cacbd-25a1-4d89-958e-8241e27b7da0)"/><path d="M508.93,210.48c8.21,31.11-10.36,62.98-41.47,71.19-31.11,8.2-49.67,40.08-41.47,71.19,8.21,31.11-10.36,62.98-41.47,71.18-31.11,8.21-62.98-10.36-71.18-41.47-8.21-31.11,10.36-62.98,41.47-71.18,31.11-8.21,49.68-40.08,41.47-71.19-8.21-31.11,10.36-62.98,41.47-71.19,31.11-8.2,62.98,10.36,71.18,41.47h0Z" fill="url(#uuid-2fedddfe-a6b3-4034-98b3-3ec212b67c84)"/><path d="M231.92,526.52c-8.33-31.08,10.11-63.02,41.19-71.35,31.07-8.33,49.52-40.27,41.19-71.35-8.33-31.08,10.11-63.02,41.19-71.34,31.08-8.33,63.02,10.11,71.34,41.19,8.33,31.08-10.11,63.02-41.19,71.34-31.08,8.33-49.52,40.27-41.19,71.35,8.33,31.08-10.11,63.02-41.19,71.35-31.07,8.33-63.02-10.12-71.34-41.19h0Z" fill="url(#uuid-337adce8-4708-4f1d-85a6-e803983d1a32)"/><path d="M538.6,323.49c8.33,31.08-10.11,63.02-41.19,71.35-31.07,8.33-49.52,40.27-41.19,71.35,8.33,31.08-10.11,63.02-41.19,71.34-31.08,8.33-63.02-10.11-71.34-41.19-8.33-31.08,10.11-63.02,41.19-71.34,31.08-8.33,49.52-40.27,41.19-71.35-8.33-31.08,10.11-63.02,41.19-71.35,31.07-8.33,63.02,10.12,71.34,41.19h0Z" fill="url(#uuid-0c802d41-7518-4a92-8bdd-527f13d5b9dc)"/><path d="M527.76,507.26c-31.08,8.33-49.52,40.28-41.19,71.35,8.33,31.08-10.12,63.02-41.19,71.35-8.87,2.38-17.81,2.57-26.25.91-.24-.04-.47-.09-.71-.14-21.05-4.2-38.97-19.93-44.91-42.07-8.32-31.07-40.27-49.51-71.34-41.19-31.08,8.33-63.02-10.11-71.35-41.19-8.33-31.07,10.12-63.02,41.19-71.34,31.08-8.33,63.02,10.11,71.35,41.19,8.33,31.07,40.27,49.52,71.34,41.19,1.26-.34,2.51-.63,3.77-.88h.02c29.09-9.62,45.95-40.4,37.92-70.37-8.32-31.08,10.12-63.02,41.2-71.34,31.07-8.33,63.01,10.11,71.34,41.19,8.33,31.08-10.11,63.02-41.19,71.34h0Z" fill="url(#uuid-e480a5c9-f0c6-456d-9df5-f6d1ac183881)"/><path d="M426.58,353.26c-8.33-31.08,10.11-63.02,41.19-71.35,31.07-8.33,49.52-40.27,41.19-71.35s10.11-63.02,41.19-71.34c31.08-8.33,63.02,10.11,71.34,41.19,8.33,31.08-10.11,63.02-41.19,71.34-31.08,8.33-49.52,40.27-41.19,71.35,8.33,31.08-10.11,63.02-41.19,71.35-31.07,8.33-63.02-10.12-71.34-41.19Z" fill="url(#uuid-035c783e-81b2-4dc1-a8f0-4626391ab68a)"/><path d="M407.62,56.72c31.08-8.33,63.02,10.11,71.35,41.19,8.33,31.07,40.27,49.52,71.35,41.19s63.02,10.11,71.34,41.19c8.33,31.08-10.11,63.02-41.19,71.34-31.08,8.33-63.02-10.11-71.34-41.19-8.33-31.08-40.27-49.52-71.35-41.19-31.08,8.33-63.02-10.11-71.35-41.19-8.33-31.07,10.12-63.02,41.19-71.34h0Z" fill="url(#uuid-56f94f73-7eed-446b-9aa6-6397db28a3bf)"/><path d="M333.41,679.32c-31.08,8.33-63.02-10.11-71.35-41.19-8.33-31.07-40.27-49.52-71.35-41.19s-63.02-10.11-71.34-41.19c-8.33-31.08,10.11-63.02,41.19-71.34,31.08-8.33,63.02,10.11,71.34,41.19,8.33,31.08,40.27,49.52,71.35,41.19,31.08-8.33,63.02,10.11,71.35,41.19,8.33,31.07-10.12,63.02-41.19,71.34h0Z" fill="url(#uuid-896d7819-a94c-4913-b084-393929b38798)"/><path d="M195.19-64.98c8.21,31.11-10.36,62.98-41.47,71.19-31.11,8.2-49.67,40.08-41.47,71.19,8.21,31.11-10.36,62.98-41.47,71.18S7.8,138.21-.4,107.1c-8.21-31.11,10.36-62.98,41.47-71.18,31.11-8.21,49.68-40.08,41.47-71.19s10.36-62.98,41.47-71.19c31.11-8.2,62.98,10.36,71.18,41.47h0Z" fill="url(#uuid-1bae9fdd-9edf-4fcc-87d4-c9eb448fe5db)"/><path d="M112.1,77.2c8.33,31.08-10.11,63.02-41.19,71.35-31.07,8.33-49.52,40.27-41.19,71.35,8.33,31.08-10.11,63.02-41.19,71.34-31.08,8.33-63.02-10.11-71.34-41.19-8.33-31.08,10.11-63.02,41.19-71.34C-10.55,170.38,7.89,138.43-.44,107.36c-8.33-31.08,10.11-63.02,41.19-71.35,31.07-8.33,63.02,10.12,71.34,41.19h.01Z" fill="url(#uuid-8edbfd1d-6f7a-48b3-bed6-26abd00c6e20)"/><path d="M29.62,220.82c8.33,31.08-10.11,63.02-41.19,71.35-31.07,8.33-49.52,40.27-41.19,71.35,8.33,31.08-10.11,63.02-41.19,71.34-31.08,8.33-63.02-10.11-71.34-41.19-8.33-31.08,10.11-63.02,41.19-71.34,31.08-8.33,49.52-40.27,41.19-71.35-8.33-31.08,10.11-63.02,41.19-71.35,31.07-8.33,63.02,10.12,71.34,41.19Z" fill="url(#uuid-f82cd6c6-f9e4-472b-82c0-a378d840d20b)"/><path d="M408.11,59.22c-31.08,8.33-63.02-10.11-71.35-41.19-8.33-31.07-40.27-49.52-71.35-41.19-31.08,8.33-63.02-10.11-71.34-41.19-8.33-31.08,10.11-63.02,41.19-71.34,31.08-8.33,63.02,10.11,71.34,41.19,8.33,31.08,40.27,49.52,71.35,41.19,31.08-8.33,63.02,10.11,71.35,41.19,8.33,31.07-10.12,63.02-41.19,71.34Z" fill="url(#uuid-25a02d20-c076-4d64-9730-50f1fed64677)"/><path d="M377.66-54.68c31.08-8.33,63.02,10.11,71.35,41.19,8.33,31.07,40.27,49.52,71.35,41.19,31.08-8.33,63.02,10.11,71.34,41.19,8.33,31.08-10.11,63.02-41.19,71.34-31.08,8.33-63.02-10.11-71.34-41.19-8.33-31.08-40.27-49.52-71.35-41.19-31.08,8.33-63.02-10.11-71.35-41.19-8.33-31.07,10.12-63.02,41.19-71.34h0Z" fill="url(#uuid-37d24992-1669-45a0-b3c3-44be73dfe901)"/><path d="M112.08,75.31c-8.21-31.11,10.36-62.98,41.47-71.19s49.67-40.08,41.47-71.19c-8.21-31.11,10.36-62.98,41.47-71.18,31.11-8.21,62.98,10.36,71.18,41.47,8.21,31.11-10.36,62.98-41.47,71.18-31.11,8.21-49.68,40.08-41.47,71.19,8.21,31.11-10.36,62.98-41.47,71.19-31.11,8.2-62.98-10.36-71.18-41.47Z" fill="url(#uuid-08e54630-7d1f-4180-bdaf-94316bc347f6)"/></g></g></g></svg>