<svg id="Layer_2" xmlns="http://www.w3.org/2000/svg" xmlns:xlink="http://www.w3.org/1999/xlink" viewBox="0 0 20 17.89">
    <defs>
        <style>
            .sc-icon-cls-1 {
                fill: none;
            }

            .sc-icon-cls-2 {
                fill: url(#linear-gradient-8);
            }

            .sc-icon-cls-3 {
                fill: url(#linear-gradient-7);
            }

            .sc-icon-cls-4 {
                fill: url(#linear-gradient-5);
            }

            .sc-icon-cls-5 {
                fill: url(#linear-gradient-6);
            }

            .sc-icon-cls-6 {
                fill: url(#linear-gradient-9);
            }

            .sc-icon-cls-7 {
                fill: url(#linear-gradient-4);
            }

            .sc-icon-cls-8 {
                fill: url(#linear-gradient-3);
            }

            .sc-icon-cls-9 {
                fill: url(#linear-gradient-2);
            }

            .sc-icon-cls-10 {
                fill: url(#linear-gradient);
            }

            .sc-icon-cls-11 {
                fill: url(#linear-gradient-10);
            }

            .sc-icon-cls-12 {
                fill: url(#linear-gradient-11);
            }

            .sc-icon-cls-13 {
                fill: url(#linear-gradient-12);
            }

            .sc-icon-cls-14 {
                fill: url(#linear-gradient-13);
            }

            .sc-icon-cls-15 {
                fill: url(#linear-gradient-19);
            }

            .sc-icon-cls-16 {
                fill: url(#linear-gradient-14);
            }

            .sc-icon-cls-17 {
                fill: url(#linear-gradient-21);
            }

            .sc-icon-cls-18 {
                fill: url(#linear-gradient-20);
            }

            .sc-icon-cls-19 {
                fill: url(#linear-gradient-22);
            }

            .sc-icon-cls-20 {
                fill: url(#linear-gradient-23);
            }

            .sc-icon-cls-21 {
                fill: url(#linear-gradient-25);
            }

            .sc-icon-cls-22 {
                fill: url(#linear-gradient-15);
            }

            .sc-icon-cls-23 {
                fill: url(#linear-gradient-16);
            }

            .sc-icon-cls-24 {
                fill: url(#linear-gradient-17);
            }

            .sc-icon-cls-25 {
                fill: url(#linear-gradient-18);
            }

            .sc-icon-cls-26 {
                fill: url(#linear-gradient-24);
            }

            .sc-icon-cls-27 {
                clip-path: url(#clippath);
            }
        </style>
        <clipPath id="clippath">
            <path class="sc-icon-cls-1"
                d="M19.71,7.88l-3.94-6.82c-.38-.66-1.08-1.06-1.84-1.06h-7.87c-.76,0-1.46.41-1.84,1.06L.29,7.88c-.38.66-.38,1.47,0,2.13l3.94,6.82c.38.66,1.08,1.06,1.84,1.06h7.87c.76,0,1.46-.41,1.84-1.06l3.94-6.82c.38-.66.38-1.47,0-2.13ZM17.21,10.03l-2.67,4.63c-.39.67-1.1,1.08-1.87,1.08h-5.34c-.77,0-1.48-.41-1.87-1.08l-2.67-4.63c-.39-.67-.39-1.49,0-2.16l2.67-4.63c.39-.67,1.1-1.08,1.87-1.08h5.34c.77,0,1.48.41,1.87,1.08l2.67,4.63c.39.67.39,1.49,0,2.16ZM5.45,10.08c-.41-.7-.41-1.57,0-2.27l1.29-2.24c.41-.7,1.16-1.14,1.97-1.14h1.6l-4.06,7.03-.8-1.39ZM14.55,10.08l-1.29,2.24c-.41.7-1.16,1.14-1.97,1.14h-2.58c-.23,0-.46-.03-.67-.1l4.8-8.31c.16.15.31.33.42.53l1.29,2.24c.41.7.41,1.57,0,2.27Z" />
        </clipPath>
        <linearGradient id="linear-gradient" x1="-137.25" y1="-137.92" x2="-145.24" y2="-142.53"
            gradientTransform="translate(200.75 -47.79) rotate(-59.78)" gradientUnits="userSpaceOnUse">
            <stop offset="0" stop-color="#6b6b6b" />
            <stop offset="1" stop-color="#f4f4f5" />
        </linearGradient>
        <linearGradient id="linear-gradient-2" x1="-140.2" y1="-140.86" x2="-148.19" y2="-145.47"
            xlink:href="#linear-gradient" />
        <linearGradient id="linear-gradient-3" x1="-96.64" y1="-179.33" x2="-105.85" y2="-179.86"
            gradientTransform="translate(211.44 11.23) rotate(-60)" xlink:href="#linear-gradient" />
        <linearGradient id="linear-gradient-4" x1="-93.71" y1="-176.38" x2="-102.92" y2="-176.91"
            gradientTransform="translate(211.44 11.23) rotate(-60)" xlink:href="#linear-gradient" />
        <linearGradient id="linear-gradient-5" x1="8.11" y1="11.08" x2="2.43" y2="19.73"
            gradientTransform="matrix(1,0,0,1,0,0)" xlink:href="#linear-gradient" />
        <linearGradient id="linear-gradient-6" x1="-622.48" y1="-83.13" x2="-631.69" y2="-83.66"
            gradientTransform="translate(513.51 388.12) rotate(30)" xlink:href="#linear-gradient" />
        <linearGradient id="linear-gradient-7" x1="-993.07" y1="-3120.03" x2="-1002.29" y2="-3120.56"
            gradientTransform="translate(-3187.26 -689.92) rotate(120)" xlink:href="#linear-gradient" />
        <linearGradient id="linear-gradient-8" x1="-987.22" y1="-3120.01" x2="-996.44" y2="-3120.55"
            gradientTransform="translate(-3187.26 -689.92) rotate(120)" xlink:href="#linear-gradient" />
        <linearGradient id="linear-gradient-9" x1="-99.62" y1="-176.39" x2="-108.83" y2="-176.93"
            gradientTransform="translate(211.44 11.23) rotate(-60)" xlink:href="#linear-gradient" />
        <linearGradient id="linear-gradient-10" x1="-1489.44" y1="-2965.84" x2="-1498.65" y2="-2966.37"
            gradientTransform="translate(-3295.77 -176.03) rotate(120)" xlink:href="#linear-gradient" />
        <linearGradient id="linear-gradient-11" x1="-102.53" y1="-179.31" x2="-111.75" y2="-179.84"
            gradientTransform="translate(211.44 11.23) rotate(-60)" xlink:href="#linear-gradient" />
        <linearGradient id="linear-gradient-12" x1="-1585.53" y1="-3649.22" x2="-1593.52" y2="-3653.83"
            gradientTransform="translate(-3953.75 -454.84) rotate(120.22)" xlink:href="#linear-gradient" />
        <linearGradient id="linear-gradient-13" x1="-140.1" y1="-129.13" x2="-148.1" y2="-133.75"
            xlink:href="#linear-gradient" />
        <linearGradient id="linear-gradient-14" x1="-1483.57" y1="-2959.99" x2="-1492.79" y2="-2960.52"
            gradientTransform="translate(-3295.77 -176.03) rotate(120)" xlink:href="#linear-gradient" />
        <linearGradient id="linear-gradient-15" x1="-96.62" y1="-167.59" x2="-105.83" y2="-168.13"
            gradientTransform="translate(211.44 11.23) rotate(-60)" xlink:href="#linear-gradient" />
        <linearGradient id="linear-gradient-16" x1="17.22" y1="12.9" x2="11.54" y2="21.55"
            gradientTransform="matrix(1,0,0,1,0,0)" xlink:href="#linear-gradient" />
        <linearGradient id="linear-gradient-17" x1="-1492.38" y1="-2962.91" x2="-1501.59" y2="-2963.44"
            gradientTransform="translate(-3295.77 -176.03) rotate(120)" xlink:href="#linear-gradient" />
        <linearGradient id="linear-gradient-18" x1="-2076.87" y1="-1503.24" x2="-2086.09" y2="-1503.77"
            gradientTransform="translate(-1032.9 -2337.08) rotate(-150)" xlink:href="#linear-gradient" />
        <linearGradient id="linear-gradient-19" x1="691.04" y1="-2533.53" x2="681.83" y2="-2534.06"
            gradientTransform="translate(-1852.95 1871.58) rotate(30)" xlink:href="#linear-gradient" />
        <linearGradient id="linear-gradient-20" x1="-137.25" y1="-143.72" x2="-145.24" y2="-148.34"
            xlink:href="#linear-gradient" />
        <linearGradient id="linear-gradient-21" x1="-96.62" y1="-185.13" x2="-105.83" y2="-185.66"
            gradientTransform="translate(211.44 11.23) rotate(-60)" xlink:href="#linear-gradient" />
        <linearGradient id="linear-gradient-22" x1="-102.52" y1="-185.11" x2="-111.73" y2="-185.65"
            gradientTransform="translate(211.44 11.23) rotate(-60)" xlink:href="#linear-gradient" />
        <linearGradient id="linear-gradient-23" x1="-625.38" y1="-86.03" x2="-634.6" y2="-86.56"
            gradientTransform="translate(513.51 388.12) rotate(30)" xlink:href="#linear-gradient" />
        <linearGradient id="linear-gradient-24" x1="-2073.97" y1="-1500.33" x2="-2083.18" y2="-1500.87"
            gradientTransform="translate(-1032.9 -2337.08) rotate(-150)" xlink:href="#linear-gradient" />
        <linearGradient id="linear-gradient-25" x1="-1597.37" y1="-3649.19" x2="-1605.36" y2="-3653.81"
            gradientTransform="translate(-3953.75 -454.84) rotate(120.22)" xlink:href="#linear-gradient" />
    </defs>
    <g id="Layer_1-2">
        <g class="sc-icon-cls-27">
            <path class="sc-icon-cls-10"
                d="M11.97.6c.29,1.11-.37,2.24-1.48,2.53s-1.77,1.43-1.48,2.53c.29,1.11-.37,2.24-1.48,2.53-1.11.29-2.24-.37-2.53-1.48-.29-1.11.37-2.24,1.48-2.53,1.11-.29,1.77-1.43,1.48-2.53-.29-1.11.37-2.24,1.48-2.53,1.11-.29,2.24.37,2.53,1.48Z" />
            <path class="sc-icon-cls-9"
                d="M7.94,1.67c.29,1.11-.37,2.24-1.48,2.53s-1.77,1.43-1.48,2.53c.29,1.11-.37,2.24-1.48,2.53-1.11.29-2.24-.37-2.53-1.48-.29-1.11.37-2.24,1.48-2.53,1.11-.29,1.77-1.43,1.48-2.53-.29-1.11.37-2.24,1.48-2.53,1.11-.29,2.24.37,2.53,1.48Z" />
            <path class="sc-icon-cls-8"
                d="M9.01,5.67c.3,1.11-.36,2.24-1.47,2.54s-1.76,1.43-1.47,2.54c.3,1.11-.36,2.24-1.47,2.54-1.11.3-2.24-.36-2.54-1.47-.3-1.11.36-2.24,1.47-2.54,1.11-.3,1.76-1.43,1.47-2.54-.3-1.11.36-2.24,1.47-2.54,1.11-.3,2.24.36,2.54,1.47Z" />
            <path class="sc-icon-cls-7"
                d="M13.02,4.6c.3,1.11-.36,2.24-1.47,2.54s-1.76,1.43-1.47,2.54c.3,1.11-.36,2.24-1.47,2.54-1.11.3-2.24-.36-2.54-1.47-.3-1.11.36-2.24,1.47-2.54,1.11-.3,1.76-1.43,1.47-2.54-.3-1.11.36-2.24,1.47-2.54,1.11-.3,2.24.36,2.54,1.47Z" />
            <path class="sc-icon-cls-4"
                d="M9.68,16.24c-1.11.3-1.76,1.43-1.47,2.54.3,1.11-.36,2.24-1.47,2.54-.32.08-.63.09-.93.03,0,0-.02,0-.03,0-.75-.15-1.39-.71-1.6-1.5-.3-1.11-1.43-1.76-2.54-1.47-1.11.3-2.24-.36-2.54-1.47-.3-1.11.36-2.24,1.47-2.54,1.11-.3,2.24.36,2.54,1.47.3,1.11,1.43,1.76,2.54,1.47.04-.01.09-.02.13-.03h0c1.04-.34,1.64-1.44,1.35-2.51-.3-1.11.36-2.24,1.47-2.54,1.11-.3,2.24.36,2.54,1.47.3,1.11-.36,2.24-1.47,2.54Z" />
            <path class="sc-icon-cls-5"
                d="M15.6,6.07c-1.11.3-2.24-.36-2.54-1.47s-1.43-1.76-2.54-1.47c-1.11.3-2.24-.36-2.54-1.47-.3-1.11.36-2.24,1.47-2.54,1.11-.3,2.24.36,2.54,1.47.3,1.11,1.43,1.76,2.54,1.47,1.11-.3,2.24.36,2.54,1.47.3,1.11-.36,2.24-1.47,2.54Z" />
            <path class="sc-icon-cls-3"
                d="M10.12,9.67c-.3-1.11.36-2.24,1.47-2.54s1.76-1.43,1.47-2.54c-.3-1.11.36-2.24,1.47-2.54,1.11-.3,2.24.36,2.54,1.47.3,1.11-.36,2.24-1.47,2.54-1.11.3-1.76,1.43-1.47,2.54.3,1.11-.36,2.24-1.47,2.54-1.11.3-2.24-.36-2.54-1.47Z" />
            <path class="sc-icon-cls-2"
                d="M7.18,14.73c-.3-1.11.36-2.24,1.47-2.54s1.76-1.43,1.47-2.54c-.3-1.11.36-2.24,1.47-2.54,1.11-.3,2.24.36,2.54,1.47.3,1.11-.36,2.24-1.47,2.54-1.11.3-1.76,1.43-1.47,2.54.3,1.11-.36,2.24-1.47,2.54-1.11.3-2.24-.36-2.54-1.47Z" />
            <path class="sc-icon-cls-6"
                d="M10.06,9.71c.3,1.11-.36,2.24-1.47,2.54s-1.76,1.43-1.47,2.54c.3,1.11-.36,2.24-1.47,2.54-1.11.3-2.24-.36-2.54-1.47-.3-1.11.36-2.24,1.47-2.54,1.11-.3,1.76-1.43,1.47-2.54-.3-1.11.36-2.24,1.47-2.54,1.11-.3,2.24.36,2.54,1.47Z" />
            <path class="sc-icon-cls-11"
                d="M16.26,16.59c-.3-1.11.36-2.24,1.47-2.54s1.76-1.43,1.47-2.54c-.3-1.11.36-2.24,1.47-2.54,1.11-.3,2.24.36,2.54,1.47.3,1.11-.36,2.24-1.47,2.54-1.11.3-1.76,1.43-1.47,2.54.3,1.11-.36,2.24-1.47,2.54-1.11.3-2.24-.36-2.54-1.47Z" />
            <path class="sc-icon-cls-12"
                d="M6.07,10.78c.3,1.11-.36,2.24-1.47,2.54s-1.76,1.43-1.47,2.54c.3,1.11-.36,2.24-1.47,2.54-1.11.3-2.24-.36-2.54-1.47-.3-1.11.36-2.24,1.47-2.54,1.11-.3,1.76-1.43,1.47-2.54-.3-1.11.36-2.24,1.47-2.54,1.11-.3,2.24.36,2.54,1.47Z" />
            <path class="sc-icon-cls-13"
                d="M-1.95,12.93c-.29-1.11.37-2.24,1.48-2.53s1.77-1.43,1.48-2.53c-.29-1.11.37-2.24,1.48-2.53,1.11-.29,2.24.37,2.53,1.48.29,1.11-.37,2.24-1.48,2.53-1.11.29-1.77,1.43-1.48,2.53.29,1.11-.37,2.24-1.48,2.53-1.11.29-2.24-.37-2.53-1.48Z" />
            <path class="sc-icon-cls-14"
                d="M18.12,7.49c.29,1.11-.37,2.24-1.48,2.53s-1.77,1.43-1.48,2.53c.29,1.11-.37,2.24-1.48,2.53-1.11.29-2.24-.37-2.53-1.48-.29-1.11.37-2.24,1.48-2.53,1.11-.29,1.77-1.43,1.48-2.53-.29-1.11.37-2.24,1.48-2.53,1.11-.29,2.24.37,2.53,1.48Z" />
            <path class="sc-icon-cls-16"
                d="M8.26,18.75c-.3-1.11.36-2.24,1.47-2.54s1.76-1.43,1.47-2.54c-.3-1.11.36-2.24,1.47-2.54,1.11-.3,2.24.36,2.54,1.47.3,1.11-.36,2.24-1.47,2.54-1.11.3-1.76,1.43-1.47,2.54.3,1.11-.36,2.24-1.47,2.54-1.11.3-2.24-.36-2.54-1.47Z" />
            <path class="sc-icon-cls-22"
                d="M19.18,11.52c.3,1.11-.36,2.24-1.47,2.54s-1.76,1.43-1.47,2.54c.3,1.11-.36,2.24-1.47,2.54-1.11.3-2.24-.36-2.54-1.47-.3-1.11.36-2.24,1.47-2.54,1.11-.3,1.76-1.43,1.47-2.54-.3-1.11.36-2.24,1.47-2.54,1.11-.3,2.24.36,2.54,1.47Z" />
            <path class="sc-icon-cls-23"
                d="M18.79,18.06c-1.11.3-1.76,1.43-1.47,2.54.3,1.11-.36,2.24-1.47,2.54-.32.08-.63.09-.93.03,0,0-.02,0-.03,0-.75-.15-1.39-.71-1.6-1.5-.3-1.11-1.43-1.76-2.54-1.47-1.11.3-2.24-.36-2.54-1.47-.3-1.11.36-2.24,1.47-2.54,1.11-.3,2.24.36,2.54,1.47.3,1.11,1.43,1.76,2.54,1.47.04-.01.09-.02.13-.03h0c1.04-.34,1.64-1.44,1.35-2.51-.3-1.11.36-2.24,1.47-2.54,1.11-.3,2.24.36,2.54,1.47.3,1.11-.36,2.24-1.47,2.54Z" />
            <path class="sc-icon-cls-24"
                d="M15.19,12.58c-.3-1.11.36-2.24,1.47-2.54s1.76-1.43,1.47-2.54c-.3-1.11.36-2.24,1.47-2.54,1.11-.3,2.24.36,2.54,1.47.3,1.11-.36,2.24-1.47,2.54-1.11.3-1.76,1.43-1.47,2.54.3,1.11-.36,2.24-1.47,2.54-1.11.3-2.24-.36-2.54-1.47Z" />
            <path class="sc-icon-cls-25"
                d="M14.51,2.02c1.11-.3,2.24.36,2.54,1.47s1.43,1.76,2.54,1.47c1.11-.3,2.24.36,2.54,1.47.3,1.11-.36,2.24-1.47,2.54-1.11.3-2.24-.36-2.54-1.47-.3-1.11-1.43-1.76-2.54-1.47-1.11.3-2.24-.36-2.54-1.47-.3-1.11.36-2.24,1.47-2.54Z" />
            <path class="sc-icon-cls-15"
                d="M11.87,24.19c-1.11.3-2.24-.36-2.54-1.47s-1.43-1.76-2.54-1.47c-1.11.3-2.24-.36-2.54-1.47-.3-1.11.36-2.24,1.47-2.54,1.11-.3,2.24.36,2.54,1.47.3,1.11,1.43,1.76,2.54,1.47,1.11-.3,2.24.36,2.54,1.47.3,1.11-.36,2.24-1.47,2.54Z" />
            <path class="sc-icon-cls-18"
                d="M6.95-2.31c.29,1.11-.37,2.24-1.48,2.53s-1.77,1.43-1.48,2.53c.29,1.11-.37,2.24-1.48,2.53C1.41,5.58.28,4.92-.01,3.81-.31,2.71.35,1.57,1.46,1.28c1.11-.29,1.77-1.43,1.48-2.53-.29-1.11.37-2.24,1.48-2.53,1.11-.29,2.24.37,2.53,1.48Z" />
            <path class="sc-icon-cls-17"
                d="M3.99,2.75c.3,1.11-.36,2.24-1.47,2.54s-1.76,1.43-1.47,2.54c.3,1.11-.36,2.24-1.47,2.54-1.11.3-2.24-.36-2.54-1.47-.3-1.11.36-2.24,1.47-2.54C-.38,6.07.28,4.93-.02,3.82-.31,2.72.34,1.58,1.45,1.28c1.11-.3,2.24.36,2.54,1.47Z" />
            <path class="sc-icon-cls-19"
                d="M1.05,7.86c.3,1.11-.36,2.24-1.47,2.54s-1.76,1.43-1.47,2.54c.3,1.11-.36,2.24-1.47,2.54-1.11.3-2.24-.36-2.54-1.47-.3-1.11.36-2.24,1.47-2.54,1.11-.3,1.76-1.43,1.47-2.54-.3-1.11.36-2.24,1.47-2.54,1.11-.3,2.24.36,2.54,1.47Z" />
            <path class="sc-icon-cls-20"
                d="M14.53,2.11c-1.11.3-2.24-.36-2.54-1.47s-1.43-1.76-2.54-1.47c-1.11.3-2.24-.36-2.54-1.47-.3-1.11.36-2.24,1.47-2.54,1.11-.3,2.24.36,2.54,1.47.3,1.11,1.43,1.76,2.54,1.47,1.11-.3,2.24.36,2.54,1.47.3,1.11-.36,2.24-1.47,2.54Z" />
            <path class="sc-icon-cls-26"
                d="M13.45-1.95c1.11-.3,2.24.36,2.54,1.47s1.43,1.76,2.54,1.47c1.11-.3,2.24.36,2.54,1.47.3,1.11-.36,2.24-1.47,2.54-1.11.3-2.24-.36-2.54-1.47-.3-1.11-1.43-1.76-2.54-1.47-1.11.3-2.24-.36-2.54-1.47-.3-1.11.36-2.24,1.47-2.54Z" />
            <path class="sc-icon-cls-21"
                d="M3.99,2.68c-.29-1.11.37-2.24,1.48-2.53s1.77-1.43,1.48-2.53c-.29-1.11.37-2.24,1.48-2.53,1.11-.29,2.24.37,2.53,1.48.29,1.11-.37,2.24-1.48,2.53-1.11.29-1.77,1.43-1.48,2.53.29,1.11-.37,2.24-1.48,2.53-1.11.29-2.24-.37-2.53-1.48Z" />
        </g>
    </g>
</svg>