<?xml version="1.0" encoding="UTF-8"?>
<svg id="Layer_2" xmlns="http://www.w3.org/2000/svg" xmlns:xlink="http://www.w3.org/1999/xlink" viewBox="0 0 20 17.89">
    <defs>
        <style>
            .sc-full-logo-cls-1 {
                fill: none;
            }

            .sc-full-logo-cls-2 {
                fill: url(#linear-gradient-8);
            }

            .sc-full-logo-cls-3 {
                fill: url(#linear-gradient-7);
            }

            .sc-full-logo-cls-4 {
                fill: url(#linear-gradient-5);
            }

            .sc-full-logo-cls-5 {
                fill: url(#linear-gradient-6);
            }

            .sc-full-logo-cls-6 {
                fill: url(#linear-gradient-9);
            }

            .sc-full-logo-cls-7 {
                fill: url(#linear-gradient-4);
            }

            .sc-full-logo-cls-8 {
                fill: url(#linear-gradient-3);
            }

            .sc-full-logo-cls-9 {
                fill: url(#linear-gradient-2);
            }

            .sc-full-logo-cls-10 {
                fill: url(#linear-gradient);
            }

            .sc-full-logo-cls-11 {
                fill: url(#linear-gradient-10);
            }

            .sc-full-logo-cls-12 {
                fill: url(#linear-gradient-11);
            }

            .sc-full-logo-cls-13 {
                fill: url(#linear-gradient-12);
            }

            .sc-full-logo-cls-14 {
                fill: url(#linear-gradient-13);
            }

            .sc-full-logo-cls-15 {
                fill: url(#linear-gradient-19);
            }

            .sc-full-logo-cls-16 {
                fill: url(#linear-gradient-14);
            }

            .sc-full-logo-cls-17 {
                fill: url(#linear-gradient-21);
            }

            .sc-full-logo-cls-18 {
                fill: url(#linear-gradient-20);
            }

            .sc-full-logo-cls-19 {
                fill: url(#linear-gradient-22);
            }

            .sc-full-logo-cls-20 {
                fill: url(#linear-gradient-23);
            }

            .sc-full-logo-cls-21 {
                fill: url(#linear-gradient-25);
            }

            .sc-full-logo-cls-22 {
                fill: url(#linear-gradient-15);
            }

            .sc-full-logo-cls-23 {
                fill: url(#linear-gradient-16);
            }

            .sc-full-logo-cls-24 {
                fill: url(#linear-gradient-17);
            }

            .sc-full-logo-cls-25 {
                fill: url(#linear-gradient-18);
            }

            .sc-full-logo-cls-26 {
                fill: url(#linear-gradient-24);
            }

            .sc-full-logo-cls-27 {
                clip-path: url(#clippath);
            }
        </style>
        <clipPath id="clippath">
            <path class="sc-full-logo-cls-1"
                d="M19.71,7.88l-3.94-6.82c-.38-.66-1.08-1.06-1.84-1.06h-7.87c-.76,0-1.46.41-1.84,1.06L.29,7.88c-.38.66-.38,1.47,0,2.13l3.94,6.82c.38.66,1.08,1.06,1.84,1.06h7.87c.76,0,1.46-.41,1.84-1.06l3.94-6.82c.38-.66.38-1.47,0-2.13ZM17.21,10.03l-2.67,4.63c-.39.67-1.1,1.08-1.87,1.08h-5.34c-.77,0-1.48-.41-1.87-1.08l-2.67-4.63c-.39-.67-.39-1.49,0-2.16l2.67-4.63c.39-.67,1.1-1.08,1.87-1.08h5.34c.77,0,1.48.41,1.87,1.08l2.67,4.63c.39.67.39,1.49,0,2.16ZM5.45,10.08c-.41-.7-.41-1.57,0-2.27l1.29-2.24c.41-.7,1.16-1.14,1.97-1.14h1.6l-4.06,7.03-.8-1.39ZM14.55,10.08l-1.29,2.24c-.41.7-1.16,1.14-1.97,1.14h-2.58c-.23,0-.46-.03-.67-.1l4.8-8.31c.16.15.31.33.42.53l1.29,2.24c.41.7.41,1.57,0,2.27Z" />
        </clipPath>
        <linearGradient id="linear-gradient" x1="-126.82" y1="-156.06" x2="-134.81" y2="-160.68"
            gradientTransform="translate(211.18 -29.64) rotate(-59.78)" gradientUnits="userSpaceOnUse">
            <stop offset="0" stop-color="#ffc994" />
            <stop offset=".23" stop-color="#ffbd89" />
            <stop offset="1" stop-color="#ff9866" />
        </linearGradient>
        <linearGradient id="linear-gradient-2" x1="-129.77" y1="-159" x2="-137.76" y2="-163.62"
            gradientTransform="translate(211.18 -29.64) rotate(-59.78)" gradientUnits="userSpaceOnUse">
            <stop offset="0" stop-color="#ffe268" />
            <stop offset="1" stop-color="#ff9068" />
        </linearGradient>
        <linearGradient id="linear-gradient-3" x1="-86.14" y1="-197.51" x2="-95.35" y2="-198.04"
            gradientTransform="translate(221.94 29.42) rotate(-60)" xlink:href="#linear-gradient" />
        <linearGradient id="linear-gradient-4" x1="-83.21" y1="-194.57" x2="-92.42" y2="-195.1"
            gradientTransform="translate(221.94 29.42) rotate(-60)" gradientUnits="userSpaceOnUse">
            <stop offset="0" stop-color="#f9f" />
            <stop offset=".27" stop-color="#ff8aef" />
            <stop offset="1" stop-color="#ff66cb" />
        </linearGradient>
        <linearGradient id="linear-gradient-5" x1="8.11" y1="11.08" x2="2.43" y2="19.73" gradientUnits="userSpaceOnUse">
            <stop offset="0" stop-color="#ff66cb" />
            <stop offset="1" stop-color="#b337cb" />
        </linearGradient>
        <linearGradient id="linear-gradient-6" x1="-619.66" y1="-72.63" x2="-628.88" y2="-73.16"
            gradientTransform="translate(516.33 377.62) rotate(30)" xlink:href="#linear-gradient-5" />
        <linearGradient id="linear-gradient-7" x1="-961.57" y1="-3101.85" x2="-970.79" y2="-3102.38"
            gradientTransform="translate(-3155.76 -708.1) rotate(120)" gradientUnits="userSpaceOnUse">
            <stop offset="0" stop-color="#ff66cb" />
            <stop offset="1" stop-color="#c82e9a" />
        </linearGradient>
        <linearGradient id="linear-gradient-8" x1="-955.72" y1="-3101.83" x2="-964.94" y2="-3102.36"
            xlink:href="#linear-gradient-7" />
        <linearGradient id="linear-gradient-9" x1="-89.12" y1="-194.58" x2="-98.33" y2="-195.11"
            xlink:href="#linear-gradient-4" />
        <linearGradient id="linear-gradient-10" x1="-1457.94" y1="-2947.65" x2="-1467.15" y2="-2948.19"
            gradientTransform="translate(-3264.27 -194.22) rotate(120)" gradientUnits="userSpaceOnUse">
            <stop offset="0" stop-color="#6656ff" />
            <stop offset="1" stop-color="#667fff" />
        </linearGradient>
        <linearGradient id="linear-gradient-11" x1="-92.03" y1="-197.5" x2="-101.25" y2="-198.03"
            gradientTransform="translate(221.94 29.42) rotate(-60)" xlink:href="#linear-gradient-2" />
        <linearGradient id="linear-gradient-12" x1="-1553.95" y1="-3631.07" x2="-1561.95" y2="-3635.69"
            gradientTransform="translate(-3922.18 -472.99) rotate(120.22)" xlink:href="#linear-gradient-2" />
        <linearGradient id="linear-gradient-13" x1="-129.67" y1="-147.28" x2="-137.67" y2="-151.89"
            gradientTransform="translate(211.18 -29.64) rotate(-59.78)" xlink:href="#linear-gradient-10" />
        <linearGradient id="linear-gradient-14" x1="-1452.07" y1="-2941.8" x2="-1461.29" y2="-2942.33"
            gradientTransform="translate(-3264.27 -194.22) rotate(120)" gradientUnits="userSpaceOnUse">
            <stop offset="0" stop-color="#9dadff" />
            <stop offset=".32" stop-color="#8a9dff" />
            <stop offset="1" stop-color="#667fff" />
        </linearGradient>
        <linearGradient id="linear-gradient-15" x1="-86.12" y1="-185.78" x2="-95.33" y2="-186.31"
            gradientTransform="translate(221.94 29.42) rotate(-60)" xlink:href="#linear-gradient-10" />
        <linearGradient id="linear-gradient-16" x1="17.22" y1="12.9" x2="11.54" y2="21.55"
            gradientUnits="userSpaceOnUse">
            <stop offset="0" stop-color="#667fff" />
            <stop offset="1" stop-color="#2053ca" />
        </linearGradient>
        <linearGradient id="linear-gradient-17" x1="-1460.88" y1="-2944.72" x2="-1470.09" y2="-2945.25"
            xlink:href="#linear-gradient-10" />
        <linearGradient id="linear-gradient-18" x1="-2037.69" y1="-1513.74" x2="-2046.9" y2="-1514.27"
            gradientTransform="translate(-993.71 -2326.58) rotate(-150)" xlink:href="#linear-gradient-7" />
        <linearGradient id="linear-gradient-19" x1="693.86" y1="-2523.03" x2="684.64" y2="-2523.56"
            gradientTransform="translate(-1850.14 1861.08) rotate(30)" xlink:href="#linear-gradient-14" />
        <linearGradient id="linear-gradient-20" x1="-126.82" y1="-161.87" x2="-134.82" y2="-166.48"
            xlink:href="#linear-gradient" />
        <linearGradient id="linear-gradient-21" x1="-86.12" y1="-203.31" x2="-95.33" y2="-203.85"
            gradientTransform="translate(221.94 29.42) rotate(-60)" xlink:href="#linear-gradient" />
        <linearGradient id="linear-gradient-22" x1="-92.02" y1="-203.3" x2="-101.23" y2="-203.83"
            gradientTransform="translate(221.94 29.42) rotate(-60)" xlink:href="#linear-gradient-2" />
        <linearGradient id="linear-gradient-23" x1="-622.57" y1="-75.53" x2="-631.78" y2="-76.06"
            gradientTransform="translate(516.33 377.62) rotate(30)" xlink:href="#linear-gradient-5" />
        <linearGradient id="linear-gradient-24" x1="-2034.78" y1="-1510.83" x2="-2043.99" y2="-1511.37"
            gradientTransform="translate(-993.71 -2326.58) rotate(-150)" xlink:href="#linear-gradient-7" />
        <linearGradient id="linear-gradient-25" x1="-1565.8" y1="-3631.05" x2="-1573.79" y2="-3635.66"
            gradientTransform="translate(-3922.18 -472.99) rotate(120.22)" xlink:href="#linear-gradient-2" />
    </defs>
    <g id="Layer_1-2">
        <g class="sc-full-logo-cls-27">
            <path class="sc-full-logo-cls-10"
                d="M11.97.6c.29,1.11-.37,2.24-1.48,2.53s-1.77,1.43-1.48,2.53c.29,1.11-.37,2.24-1.48,2.53-1.11.29-2.24-.37-2.53-1.48-.29-1.11.37-2.24,1.48-2.53,1.11-.29,1.77-1.43,1.48-2.53-.29-1.11.37-2.24,1.48-2.53,1.11-.29,2.24.37,2.53,1.48Z" />
            <path class="sc-full-logo-cls-9"
                d="M7.94,1.67c.29,1.11-.37,2.24-1.48,2.53s-1.77,1.43-1.48,2.53c.29,1.11-.37,2.24-1.48,2.53-1.11.29-2.24-.37-2.53-1.48-.29-1.11.37-2.24,1.48-2.53,1.11-.29,1.77-1.43,1.48-2.53-.29-1.11.37-2.24,1.48-2.53,1.11-.29,2.24.37,2.53,1.48Z" />
            <path class="sc-full-logo-cls-8"
                d="M9.01,5.67c.3,1.11-.36,2.24-1.47,2.54s-1.76,1.43-1.47,2.54c.3,1.11-.36,2.24-1.47,2.54-1.11.3-2.24-.36-2.54-1.47-.3-1.11.36-2.24,1.47-2.54,1.11-.3,1.76-1.43,1.47-2.54-.3-1.11.36-2.24,1.47-2.54,1.11-.3,2.24.36,2.54,1.47Z" />
            <path class="sc-full-logo-cls-7"
                d="M13.02,4.6c.3,1.11-.36,2.24-1.47,2.54s-1.76,1.43-1.47,2.54c.3,1.11-.36,2.24-1.47,2.54-1.11.3-2.24-.36-2.54-1.47-.3-1.11.36-2.24,1.47-2.54,1.11-.3,1.76-1.43,1.47-2.54-.3-1.11.36-2.24,1.47-2.54,1.11-.3,2.24.36,2.54,1.47Z" />
            <path class="sc-full-logo-cls-4"
                d="M9.68,16.24c-1.11.3-1.76,1.43-1.47,2.54.3,1.11-.36,2.24-1.47,2.54-.32.08-.63.09-.93.03,0,0-.02,0-.03,0-.75-.15-1.39-.71-1.6-1.5-.3-1.11-1.43-1.76-2.54-1.47-1.11.3-2.24-.36-2.54-1.47-.3-1.11.36-2.24,1.47-2.54,1.11-.3,2.24.36,2.54,1.47.3,1.11,1.43,1.76,2.54,1.47.04-.01.09-.02.13-.03h0c1.04-.34,1.64-1.44,1.35-2.51-.3-1.11.36-2.24,1.47-2.54,1.11-.3,2.24.36,2.54,1.47.3,1.11-.36,2.24-1.47,2.54Z" />
            <path class="sc-full-logo-cls-5"
                d="M15.6,6.07c-1.11.3-2.24-.36-2.54-1.47s-1.43-1.76-2.54-1.47c-1.11.3-2.24-.36-2.54-1.47-.3-1.11.36-2.24,1.47-2.54,1.11-.3,2.24.36,2.54,1.47.3,1.11,1.43,1.76,2.54,1.47,1.11-.3,2.24.36,2.54,1.47.3,1.11-.36,2.24-1.47,2.54Z" />
            <path class="sc-full-logo-cls-3"
                d="M10.12,9.67c-.3-1.11.36-2.24,1.47-2.54s1.76-1.43,1.47-2.54c-.3-1.11.36-2.24,1.47-2.54,1.11-.3,2.24.36,2.54,1.47.3,1.11-.36,2.24-1.47,2.54-1.11.3-1.76,1.43-1.47,2.54.3,1.11-.36,2.24-1.47,2.54-1.11.3-2.24-.36-2.54-1.47Z" />
            <path class="sc-full-logo-cls-2"
                d="M7.18,14.73c-.3-1.11.36-2.24,1.47-2.54s1.76-1.43,1.47-2.54c-.3-1.11.36-2.24,1.47-2.54,1.11-.3,2.24.36,2.54,1.47.3,1.11-.36,2.24-1.47,2.54-1.11.3-1.76,1.43-1.47,2.54.3,1.11-.36,2.24-1.47,2.54-1.11.3-2.24-.36-2.54-1.47Z" />
            <path class="sc-full-logo-cls-6"
                d="M10.06,9.71c.3,1.11-.36,2.24-1.47,2.54s-1.76,1.43-1.47,2.54c.3,1.11-.36,2.24-1.47,2.54-1.11.3-2.24-.36-2.54-1.47-.3-1.11.36-2.24,1.47-2.54,1.11-.3,1.76-1.43,1.47-2.54-.3-1.11.36-2.24,1.47-2.54,1.11-.3,2.24.36,2.54,1.47Z" />
            <path class="sc-full-logo-cls-11"
                d="M16.26,16.59c-.3-1.11.36-2.24,1.47-2.54s1.76-1.43,1.47-2.54c-.3-1.11.36-2.24,1.47-2.54,1.11-.3,2.24.36,2.54,1.47.3,1.11-.36,2.24-1.47,2.54-1.11.3-1.76,1.43-1.47,2.54.3,1.11-.36,2.24-1.47,2.54-1.11.3-2.24-.36-2.54-1.47Z" />
            <path class="sc-full-logo-cls-12"
                d="M6.07,10.78c.3,1.11-.36,2.24-1.47,2.54s-1.76,1.43-1.47,2.54c.3,1.11-.36,2.24-1.47,2.54-1.11.3-2.24-.36-2.54-1.47-.3-1.11.36-2.24,1.47-2.54,1.11-.3,1.76-1.43,1.47-2.54-.3-1.11.36-2.24,1.47-2.54,1.11-.3,2.24.36,2.54,1.47Z" />
            <path class="sc-full-logo-cls-13"
                d="M-1.95,12.93c-.29-1.11.37-2.24,1.48-2.53s1.77-1.43,1.48-2.53c-.29-1.11.37-2.24,1.48-2.53,1.11-.29,2.24.37,2.53,1.48.29,1.11-.37,2.24-1.48,2.53-1.11.29-1.77,1.43-1.48,2.53.29,1.11-.37,2.24-1.48,2.53-1.11.29-2.24-.37-2.53-1.48Z" />
            <path class="sc-full-logo-cls-14"
                d="M18.12,7.49c.29,1.11-.37,2.24-1.48,2.53s-1.77,1.43-1.48,2.53c.29,1.11-.37,2.24-1.48,2.53-1.11.29-2.24-.37-2.53-1.48-.29-1.11.37-2.24,1.48-2.53,1.11-.29,1.77-1.43,1.48-2.53-.29-1.11.37-2.24,1.48-2.53,1.11-.29,2.24.37,2.53,1.48Z" />
            <path class="sc-full-logo-cls-16"
                d="M8.26,18.75c-.3-1.11.36-2.24,1.47-2.54s1.76-1.43,1.47-2.54c-.3-1.11.36-2.24,1.47-2.54,1.11-.3,2.24.36,2.54,1.47.3,1.11-.36,2.24-1.47,2.54-1.11.3-1.76,1.43-1.47,2.54.3,1.11-.36,2.24-1.47,2.54-1.11.3-2.24-.36-2.54-1.47Z" />
            <path class="sc-full-logo-cls-22"
                d="M19.18,11.52c.3,1.11-.36,2.24-1.47,2.54s-1.76,1.43-1.47,2.54c.3,1.11-.36,2.24-1.47,2.54-1.11.3-2.24-.36-2.54-1.47-.3-1.11.36-2.24,1.47-2.54,1.11-.3,1.76-1.43,1.47-2.54-.3-1.11.36-2.24,1.47-2.54,1.11-.3,2.24.36,2.54,1.47Z" />
            <path class="sc-full-logo-cls-23"
                d="M18.79,18.06c-1.11.3-1.76,1.43-1.47,2.54.3,1.11-.36,2.24-1.47,2.54-.32.08-.63.09-.93.03,0,0-.02,0-.03,0-.75-.15-1.39-.71-1.6-1.5-.3-1.11-1.43-1.76-2.54-1.47-1.11.3-2.24-.36-2.54-1.47-.3-1.11.36-2.24,1.47-2.54,1.11-.3,2.24.36,2.54,1.47.3,1.11,1.43,1.76,2.54,1.47.04-.01.09-.02.13-.03h0c1.04-.34,1.64-1.44,1.35-2.51-.3-1.11.36-2.24,1.47-2.54,1.11-.3,2.24.36,2.54,1.47.3,1.11-.36,2.24-1.47,2.54Z" />
            <path class="sc-full-logo-cls-24"
                d="M15.19,12.58c-.3-1.11.36-2.24,1.47-2.54s1.76-1.43,1.47-2.54c-.3-1.11.36-2.24,1.47-2.54,1.11-.3,2.24.36,2.54,1.47.3,1.11-.36,2.24-1.47,2.54-1.11.3-1.76,1.43-1.47,2.54.3,1.11-.36,2.24-1.47,2.54-1.11.3-2.24-.36-2.54-1.47Z" />
            <path class="sc-full-logo-cls-25"
                d="M14.51,2.02c1.11-.3,2.24.36,2.54,1.47s1.43,1.76,2.54,1.47c1.11-.3,2.24.36,2.54,1.47.3,1.11-.36,2.24-1.47,2.54-1.11.3-2.24-.36-2.54-1.47-.3-1.11-1.43-1.76-2.54-1.47-1.11.3-2.24-.36-2.54-1.47-.3-1.11.36-2.24,1.47-2.54Z" />
            <path class="sc-full-logo-cls-15"
                d="M11.87,24.19c-1.11.3-2.24-.36-2.54-1.47s-1.43-1.76-2.54-1.47c-1.11.3-2.24-.36-2.54-1.47-.3-1.11.36-2.24,1.47-2.54,1.11-.3,2.24.36,2.54,1.47.3,1.11,1.43,1.76,2.54,1.47,1.11-.3,2.24.36,2.54,1.47.3,1.11-.36,2.24-1.47,2.54Z" />
            <path class="sc-full-logo-cls-18"
                d="M6.95-2.31c.29,1.11-.37,2.24-1.48,2.53s-1.77,1.43-1.48,2.53c.29,1.11-.37,2.24-1.48,2.53C1.41,5.58.28,4.92-.01,3.81-.31,2.71.35,1.57,1.46,1.28c1.11-.29,1.77-1.43,1.48-2.53-.29-1.11.37-2.24,1.48-2.53,1.11-.29,2.24.37,2.53,1.48Z" />
            <path class="sc-full-logo-cls-17"
                d="M3.99,2.75c.3,1.11-.36,2.24-1.47,2.54s-1.76,1.43-1.47,2.54c.3,1.11-.36,2.24-1.47,2.54-1.11.3-2.24-.36-2.54-1.47-.3-1.11.36-2.24,1.47-2.54C-.38,6.07.28,4.93-.02,3.82-.31,2.72.34,1.58,1.45,1.28c1.11-.3,2.24.36,2.54,1.47Z" />
            <path class="sc-full-logo-cls-19"
                d="M1.05,7.86c.3,1.11-.36,2.24-1.47,2.54s-1.76,1.43-1.47,2.54c.3,1.11-.36,2.24-1.47,2.54-1.11.3-2.24-.36-2.54-1.47-.3-1.11.36-2.24,1.47-2.54,1.11-.3,1.76-1.43,1.47-2.54-.3-1.11.36-2.24,1.47-2.54,1.11-.3,2.24.36,2.54,1.47Z" />
            <path class="sc-full-logo-cls-20"
                d="M14.53,2.11c-1.11.3-2.24-.36-2.54-1.47s-1.43-1.76-2.54-1.47c-1.11.3-2.24-.36-2.54-1.47-.3-1.11.36-2.24,1.47-2.54,1.11-.3,2.24.36,2.54,1.47.3,1.11,1.43,1.76,2.54,1.47,1.11-.3,2.24.36,2.54,1.47.3,1.11-.36,2.24-1.47,2.54Z" />
            <path class="sc-full-logo-cls-26"
                d="M13.45-1.95c1.11-.3,2.24.36,2.54,1.47s1.43,1.76,2.54,1.47c1.11-.3,2.24.36,2.54,1.47.3,1.11-.36,2.24-1.47,2.54-1.11.3-2.24-.36-2.54-1.47-.3-1.11-1.43-1.76-2.54-1.47-1.11.3-2.24-.36-2.54-1.47-.3-1.11.36-2.24,1.47-2.54Z" />
            <path class="sc-full-logo-cls-21"
                d="M3.99,2.68c-.29-1.11.37-2.24,1.48-2.53s1.77-1.43,1.48-2.53c-.29-1.11.37-2.24,1.48-2.53,1.11-.29,2.24.37,2.53,1.48.29,1.11-.37,2.24-1.48,2.53-1.11.29-1.77,1.43-1.48,2.53.29,1.11-.37,2.24-1.48,2.53-1.11.29-2.24-.37-2.53-1.48Z" />
        </g>
    </g>
</svg>