<?xml version="1.0" encoding="UTF-8"?><svg id="uuid-dbc4603a-1e01-4964-97a0-0c5cd22114f1" xmlns="http://www.w3.org/2000/svg" viewBox="0 0 120 120.05"><g id="uuid-a0d02408-430d-4c67-b2a7-23454016acd4"><path d="M23.62,103.27c.13-.02.26-.05.38-.07,1.02-.2,2.05-.34,3.05-.6,2.03-.53,4.05-1.1,6.06-1.72.93-.29,1.81-.76,2.71-1.15,0,0,0,0,0,0,.05,0,.08-.02.1-.07.23-.09.46-.16.68-.27.55-.29,1.09-.6,1.63-.9.12.83-.58,1.22-1.02,1.68-3.32,3.47-6.79,6.77-10.47,9.86,9.51,6.33,20.93,10.03,33.21,10.03,33.15,0,60.03-26.88,60.03-60.03,0-11.97-3.51-23.1-9.55-32.46-.04-.02-.08-.04-.12-.06-.09-.06-.19-.12-.28-.17-.31-.13-.62-.27-.93-.4-.15-.04-.31-.08-.46-.13-.08-.02-.17-.03-.25-.05-.1-.07-.2-.14-.31-.2-.08-.04-.16-.11-.25-.13-1.34-.36-2.68-.77-4.03-1.06-1.52-.33-3.07-.55-4.6-.82-.07.15-.14.3-.21.45.07-.15.14-.3.21-.45-.11-.05-.22-.11-.32-.16-.1-.01-.2-.03-.3-.04-.14-.02-.28-.04-.42-.06-1.58-.14-3.15-.28-4.73-.43-.02-.06-.04-.13-.06-.19-.13-.01-.25-.02-.38-.04,0,.05,0,.1,0,.14.09.05.18.09.27.14-.09-.05-.18-.09-.27-.14-.79-.01-1.59-.03-2.38-.04-.22-.04-.45-.1-.67-.1-1.21-.01-2.42-.01-3.63,0-.39,0-.77.07-1.16.11-1.02.02-2.04.05-3.05.07-.1.02-.2.05-.3.07-.19.01-.37.03-.56.04-.09,0-.19,0-.28,0-.14,0-.28-.01-.42-.02l-.7.15c-.09,0-.19,0-.28,0h-.15c-.09,0-.18,0-.27,0-.24.03-.47.06-.71.08l-2.36.09c-.1.03-.2.05-.3.08-.23.01-.46.02-.69.03-.12.06-.24.12-.36.18-.07,0-.14-.01-.21-.02-.28.02-.56.04-.85.07-.56.02-1.11.05-1.67.07-.06.02-.12.03-.18.05-.04,0-.07,0-.1.04-.77.12-1.55.25-2.32.37l1.54.09c-.51-.03-1.03-.06-1.54-.09-.34.01-.69.02-1.04.04h0c-.33.08-.66.17-.99.25-.42.04-.85.07-1.27.11-.2.02-.39.03-.59.05-.08,0-.16.01-.23.02,0,0,0,0,0,0,0,0,0,0,0,0-.37.09-.75.18-1.12.27l-.42.02c-.33.04-.66.08-.99.12-.09.01-.18.03-.27.04-.07.03-.14.06-.21.09,0,0-.02-.03-.02-.03h-.04c-.43.1-.85.2-1.28.29-.41.03-.82.06-1.23.08-.19.07-.39.14-.58.21-.18.03-.36.06-.54.09-.1.02-.2.03-.3.05-.37.06-.74.12-1.11.17-.47.08-.94.16-1.41.25-.1-.02-.2-.04-.31-.06l-.25.06s-.1.1-.15.15h0c-.08-.04-.16-.08-.24-.12,0-.13-.01-.27-.02-.4.04-.05.08-.11.11-.16.04.01.09.03.13.04l-.03-.06h0c.08-.03.17-.06.25-.09,0-.05-.01-.1-.02-.14,2.27-1.51,4.52-3.05,6.83-4.51,1.33-.84,2.72-1.57,4.11-2.3,1.82-.96,3.64-1.9,5.49-2.8,1.43-.7,2.89-1.33,4.34-1.98,1.12-.49,2.25-.95,3.37-1.43,1.27-.54,2.54-1.11,3.83-1.61,1.37-.53,2.77-1,4.16-1.49,1.13-.4,2.27-.79,3.41-1.18.21-.07.42-.14.63-.22C82.27,3.26,71.5,0,59.97,0,36.68,0,16.5,13.28,6.55,32.67c2.33.02,4.65.23,6.98.08,2.87-.19,5.76.2,8.62-.41,1.18-.25,2.43-.2,3.64-.32,1.96-.21,3.92-.43,5.87-.69,1.86-.25,3.71-.56,5.56-.86.96-.16,1.91-.33,2.87-.53,1.09-.22,2.17-.49,3.26-.7,1.75-.34,3.51-.62,5.25-.98,1.65-.35,3.29-.76,4.92-1.17.54-.14.77-.01.68.56-.05.09-.11.18-.16.27-.32.28-.63.55-.95.83-.14.08-.27.17-.41.25-.28.19-.56.39-.84.58,0,0,0,0,0,0-.09.09-.18.19-.28.28l-1.7,1.24c.07.06.14.11.21.17-.06-.06-.14-.12-.21-.17-.1.05-.2.11-.3.16-.27.18-.53.37-.8.55-.05.06-.1.12-.14.19-.25.18-.49.35-.74.53.41-.07.81-.14,1.24-.21-.43.07-.83.14-1.24.21-.32.19-.65.38-.97.57-.22.14-.43.29-.65.43-.12.13-.24.27-.36.4-.44.24-.88.49-1.32.73-.07.04-.14.08-.2.12-.55.32-1.09.63-1.64.95.07.1.15.2.22.31-.08-.1-.15-.21-.22-.31-.13.11-.27.21-.4.31-.33.17-.67.35-1,.52-.14.1-.28.2-.42.3-.14.05-.28.1-.42.15.05.08.1.16.15.24-.05-.08-.1-.16-.15-.24-.09.09-.19.18-.28.26-.32.16-.65.31-.97.47-.07.04-.13.07-.2.11-.08.04-.16.08-.24.11-.15.1-.3.2-.46.3-.18.09-.36.18-.55.27.29.11.59.2.87.33-.28-.13-.58-.22-.87-.33-.33.18-.66.37-.99.55-.27.14-.53.29-.8.43,0,0,0,0,0,0-.24.08-.47.16-.7.23.18.18.36.36.54.53-.18-.18-.36-.36-.54-.53-.09.05-.18.11-.28.16-.25.14-.5.29-.75.43,0,0-.06,0-.06,0-.61.2-1.21.4-1.82.6-.47.25-.95.5-1.42.76-.32.17-.93-.26-.99.47,0,0-.02,0-.02,0-.41.05-.82.09-1.22.14.3.19.6.38.96.61-.36-.23-.66-.42-.96-.61-.16.1-.31.19-.47.29-.88.24-1.75.48-2.63.71-.29.07-.59.08-.88.14-.27.06-.53.15-.79.22,0,0,0,0,0,0-.14.05-.28.11-.42.16-.65.06-1.29.12-1.93.18h0c-.47.09-.93.19-1.4.28-1.82,0-3.64.01-5.46.02-.32-.02-.64-.04-.96-.06,0,0,0,0,0,0-.24-.08-.48-.16-.72-.24-.51-.06-1.02-.13-1.52-.19-.14-.08-.28-.17-.43-.25-.24-.04-.48-.09-.71-.13-.19-.09-.37-.17-.56-.26-.59-.19-1.17-.39-1.76-.58-.12-.05-.24-.1-.36-.15-.3-.09-.61-.18-.91-.28,0,0,0,0,0,0,0,0-.02,0-.02,0-.03-.12-.03-.31-.11-.36-.61-.37-1.24-.71-1.87-1.06-.04-.04-.08-.07-.12-.11-.24-.1-.47-.19-.71-.29,0,0,0,0,0,0-.09-.14-.17-.28-.26-.42-.09-.08-.19-.16-.28-.24C1.43,45.39.22,51.51,0,57.88c1.79.1,3.59.21,5.38.31,0,0,0,0,0,0,.29.05.57.09.86.14.37,0,.75,0,1.12,0,0,0,0,0,0,0,.28-.03.57-.06.85-.09.17,0,.34,0,.52,0,.11-.02.22-.03.33-.05,1.66-.04,3.32-.07,4.98-.12.48-.01.96-.08,1.44-.13.42-.06.84-.12,1.26-.18-.05-.12-.1-.24-.17-.41.07.17.12.29.17.41,1.11-.07,2.23-.14,3.34-.21.47-.07.94-.15,1.42-.22.42-.03.84-.06,1.26-.09.06,0,.12-.02.17-.03.18-.03.35-.06.53-.1.43-.09.86-.18,1.29-.27.69-.04,1.38-.09,2.07-.13.1-.03.19-.06.29-.09.32-.07.64-.13.96-.2.28-.03.56-.06.84-.09l.59-.07s0,0,0,0c.46-.11.92-.21,1.38-.32.46-.05.93-.11,1.39-.16.38-.09.75-.18,1.13-.27.46-.05.93-.11,1.39-.16.28-.09.56-.18.85-.26.09,0,.18-.02.28-.02.14,0,.27-.02.41-.03.11.03.21.07.32.11v-.04s-.03-.02-.03-.02c.09.02.18.03.28.05.02-.06.03-.11.05-.17h0s.05,0,.05,0l.04-.03c.28-.09.57-.17.85-.26.46-.06.93-.12,1.39-.18.1-.04.19-.07.29-.11,0,0,0,0,0,0h0s0,0,0,0h0s0,0,0,0c.14-.05.28-.09.41-.14.24-.03.47-.05.71-.08.15-.02.3-.04.45-.05.5-.11.99-.22,1.49-.32.22-.07.44-.14.65-.22.25-.05.5-.11.74-.16.1-.04.2-.07.31-.11.36-.05.72-.1,1.08-.16.08-.05.16-.11.24-.16.11,0,.22,0,.33,0,.1-.03.2-.07.3-.1.41-.05.82-.11,1.24-.17.15-.08.3-.15.45-.23.5-.09,1.01-.19,1.51-.28.15-.05.29-.11.44-.16.18-.02.36-.03.54-.05.16-.04.33-.08.49-.12l.52-.09c-.11-.06-.22-.13-.34-.19.11.06.22.13.34.19.09-.06.18-.11.27-.17.16.01.33.02.49.04,0,0,0,0,0,0,.01.07.02.13.03.2-.27.27-.51.59-.82.81-1.07.8-2.16,1.57-3.24,2.35-.1.08-.2.16-.3.24-.17.12-.34.24-.51.36-.08.05-.15.1-.23.15-.07.04-.14.07-.2.11-.71.46-1.42.91-2.12,1.38-.47.32-.94.65-1.4.97-.19.11-.38.22-.57.34-.19.08-.39.15-.57.25-1.99,1.15-3.96,2.32-5.95,3.47-.95.55-1.92,1.06-2.88,1.59l-.04-.02-.03.03c0,.07,0,.14,0,.21,0-.07,0-.14,0-.21-.28.1-.56.2-.83.32-1.48.65-2.97,1.3-4.45,1.96-.54.24-1.07.52-1.61.79,0,0-.01,0-.01,0-1.32.38-2.64.77-3.95,1.15-.46.13-.91.28-1.36.43-.05-.01-.08,0-.09.05,0,0,0,0,0,0-1.68.34-3.36.68-5.05,1.02-1.13.08-2.26.15-3.38.23,0,0-.06-.02-.06-.02l-.05.03c-.02.11-.05.19-.08.25.04-.06.06-.14.08-.25-.46-.07-.92-.22-1.37-.2-1.97.08-3.86-.3-5.73-.89-.53-.16-1.06-.31-1.59-.46l-.22-.09c-.12-.06-.24-.11-.36-.17-.21-.13-.43-.27-.64-.4-.11-.05-.21-.1-.32-.15-.19-.13-.37-.26-.56-.39-.08.13-.17.27-.25.4.08-.13.17-.27.25-.4-.14-.05-.27-.1-.41-.15-.37-.31-.74-.62-1.11-.93.57,5.79,1.98,11.34,4.08,16.53,2.07.23,4.15.44,6.23.45,2.55,0,5.1-.24,7.65-.41.68-.05,1.36-.24,2.03-.37-.13-.02-.26-.03-.38-.05.13.02.26.03.38.05.09-.01.19-.03.28-.04.23-.02.47-.04.7-.07h.07s.07-.01.07-.01c.75-.1,1.52-.18,2.26-.32,2.07-.4,4.14-.81,6.2-1.25,1.29-.28,2.56-.63,3.84-.95.94-.24,1.87-.51,2.81-.74.78-.19,1.56-.35,2.34-.52h0c-.1.16-.17.35-.3.47-.6.52-1.21,1.01-1.82,1.51-.07.06-.14.12-.21.18-.15.07-.3.13-.46.2-.09.08-.17.16-.26.24-.58.38-1.16.76-1.74,1.14-.1.08-.2.17-.3.25-.81.51-1.63,1-2.43,1.52-.33.22-.63.49-.94.73,0,0-.05-.01-.05-.01-.11.09-.22.18-.34.27,0,0-.01,0-.01,0-.22.07-.46.1-.65.21-.84.48-1.66.98-2.49,1.49-.6.37-1.19.75-1.78,1.12-.75.34-1.5.66-2.24,1.02-1.33.64-2.63,1.32-3.97,1.92-1.2.54-2.42,1.02-3.64,1.49-1.42.55-2.83,1.11-4.27,1.61-.18.06-.36.11-.53.16,2.59,3.8,5.61,7.28,8.99,10.39,1.05-.21,2.1-.43,3.15-.66.38-.08.75-.19,1.13-.29ZM25.47,28.2h0c.06-.02.12-.04.17-.06-.06.02-.12.04-.17.06ZM75.09,97.74c-1.68-.59-3.38-1.21-5.12-1.54-2.48-.47-5.01-.71-7.53-1.01-.62-.07-1.25,0-1.88,0-2.7.05-5.4.04-8.1.18-1.88.1-3.75.4-5.61.65-1.65.22-3.3.49-5.04.58.16-.2.29-.44.48-.61,2.46-2.1,5.07-4,7.94-5.5,2.25-1.18,4.53-2.32,6.88-3.31,1.33-.56,2.82-.76,4.23-1.13,1.62-.43,3.26-.46,4.92-.3,2.35.22,4.47,1.03,6.28,2.56,2.38,2.02,3.78,4.65,4.68,7.59.21.69.42,1.38.62,2.07.09.32.14.66.25,1.14-1.11-.53-2.02-1.06-2.99-1.4ZM53,50.97c.09-.08.18-.16.26-.24.83-.61,1.67-1.22,2.5-1.84l.19-.12c.64-.46,1.29-.91,1.93-1.37-.08-.09-.17-.18-.26-.28.09.1.18.19.26.28.1-.08.2-.16.29-.24.14-.09.28-.18.41-.27,0,0,0,0,0,0,.65-.43,1.31-.85,1.96-1.28,0,0,0,0,0,0,.07-.06.14-.12.21-.17.42-.28.85-.55,1.27-.83.32-.18.65-.37.97-.55.66-.34,1.33-.66,1.98-1.01.44-.24.86-.51,1.29-.77h0c.15-.1.3-.19.44-.29-.18-.2-.35-.45-.53-.66-.08-.09-.15-.18-.24-.25.08.07.16.16.24.25.18.22.35.46.53.66.08-.02.17-.05.25-.07.08-.04.15-.08.23-.12,0,0,.06,0,.06,0,.13-.12.26-.24.39-.35.21-.09.41-.19.62-.28,0,0,0,0,0,0,.11-.06.23-.13.34-.19.25-.11.5-.21.75-.32.07-.04.15-.08.22-.12.77-.36,1.53-.72,2.29-1.08.13-.09.26-.18.39-.27.15,0,.3-.02.45-.02.1-.08.21-.16.31-.24-.16-.18-.34-.35-.49-.53.15.19.33.36.49.53.13-.03.26-.06.39-.1.07-.03.14-.07.22-.1.25-.1.51-.21.76-.31.06-.03.12-.07.17-.1,0,0-.01.02-.01.02.19-.09.38-.18.57-.27.27-.07.54-.13.81-.2.1-.07.2-.14.3-.21,0,0,0,0,0,0,.33-.09.65-.18.98-.27.61-.23,1.21-.46,1.82-.68,0,0,0,0,0,0,.28-.05.56-.1.84-.15.23-.1.45-.2.68-.3,0,0,0,0,0,0,.98-.19,1.96-.38,2.94-.58.33-.08.67-.17,1-.25,0,0,0,0,0,0,.74-.06,1.48-.12,2.22-.18,1.25,0,2.51.02,3.76.03,0,0,0,0,0,0,.55.05,1.11.1,1.66.15,0,0,0,0,0,0,.29.09.57.17.86.26.41.08.81.15,1.22.23.06.06.13.11.19.17.2.06.41.12.61.17.42.2.84.39,1.25.61,3.49,1.85,5.73,4.81,7.15,8.39.67,1.68.97,3.51,1.46,5.27.08.28.24.53.36.8-.02.04-.03.08,0,.12,0,.32.03.64,0,.95-.02.23-.11.46-.17.69-.23-.07-.46-.13-.69-.21-.25-.1-.49-.22-.74-.33-.07-.04-.14-.09-.22-.13-.1,0-.19,0-.29,0l-.02-.04s0,0,0,0c-.19-.09-.39-.19-.58-.28-.1-.07-.2-.14-.3-.21l-.54-.09-.57-.36h0c-.14-.02-.27-.04-.41-.06-.28-.13-.56-.25-.83-.38h0c-.28-.06-.56-.11-.84-.17-.19-.09-.39-.18-.58-.27,0,0,0,0,0,0-.3-.03-.59-.06-.89-.09l-.23-.12c-.09-.02-.18-.04-.27-.06-.03-.03-.07-.04-.11-.03-.01-.05-.04-.07-.1-.06-.17-.05-.34-.1-.51-.15-.36-.06-.72-.11-1.08-.17-.14-.05-.28-.11-.43-.16h0c-.6-.09-1.21-.18-1.81-.27-.1-.04-.21-.07-.31-.11-.34-.04-.69-.08-1.03-.12-.07-.03-.15-.06-.22-.09-.5-.04-1.01-.07-1.51-.11-.34-.07-.68-.15-1.01-.22-1.59-.06-3.17-.13-4.76-.19-.18-.08-.36-.23-.54-.23-2.05-.01-4.1,0-6.15,0-.06,0-.13.05-.19.08.09.08.17.18.26.26-.09-.09-.17-.18-.26-.26-.13.02-.26.04-.4.05-.1.03-.21.07-.31.1-.49,0-.98,0-1.48,0-.11,0-.23,0-.34,0-.64.03-1.29.06-1.93.09-.04,0-.08,0-.13.01-.43.04-.86.08-1.29.13-.5.07-1.01.14-1.51.21-.88.05-1.77.1-2.65.16-.34.08-.68.16-1.02.24.1.15.22.27.34.36-.12-.09-.24-.21-.34-.36-.78.08-1.56.16-2.34.23-.33.08-.65.16-.98.24l-1.98.21c-.27.07-.55.15-.82.22-.61.08-1.22.15-1.83.23-.29.09-.58.17-.86.26-.46.05-.92.11-1.38.16-.24.08-.48.17-.72.25-.27.02-.54.04-.8.06-.08.04-.16.08-.24.12-.25.05-.5.09-.75.14h0c-.15.04-.3.07-.45.11l-.03.03s0,0,0,0c-.04-.16-.09-.33-.13-.49.03-.07.06-.14.08-.21ZM56.29,60.17c-.19-.09-.37-.19-.56-.28h0c.19.09.37.19.56.28ZM43.98,74.84c1.89-1.27,3.78-2.53,5.72-3.71,2.18-1.32,4.4-2.56,6.63-3.81,1.25-.7,2.51-1.4,3.81-2,1.79-.83,3.59-1.63,5.43-2.32,1.95-.73,3.94-1.39,5.94-1.97,3.45-1,6.97-1.41,10.56-1.12,2.78.23,5.33,1.1,7.58,2.73,1.73,1.25,3.09,2.88,4.13,4.76,1.36,2.44,2.2,5.06,2.68,7.8.09.53.21,1.06.34,1.69-.98-.48-1.81-.94-2.68-1.3-2.2-.92-4.52-1.41-6.87-1.78-4.44-.69-8.9-.82-13.37-.66-3.18.11-6.35.41-9.51.74-3.32.36-6.64.8-9.94,1.32-3.92.63-7.83,1.39-11.74,2.09-.81.15-1.61.3-2.42.44-.03-.07-.05-.14-.08-.22,1.26-.9,2.5-1.83,3.79-2.69Z" fill="#033c5a"/></g></svg>