<svg id="uuid-a3dfb3c3-cf31-4e6c-9156-b511c3d446bb" xmlns="http://www.w3.org/2000/svg" viewBox="0 0 143.93 137.47">
    <g id="uuid-9452ef2c-c414-4b51-80a3-e0f83162834c">
        <g id="uuid-47192d80-e3a7-4a66-8924-a98ea82f63e9">
            <g id="uuid-1f9723fa-cb45-401e-8016-35cdc40bf4ee">
                <path
                    d="M71.8,18l52,46.34h-17.61v35.66l-34.19,19.46-34.6-19.46v-36h-17.2l51.6-46M71.8,0c-5.25-.04-10.33,1.83-14.29,5.27L5.92,51.27C.14,56.42-1.59,64.16,1.54,70.89c2.74,5.9,8.73,10,15.66,10.92v18.19c0,6.18,3.55,11.93,9.41,15.22l34.59,19.47c6.75,3.72,14.94,3.71,21.67-.05l34.2-19.49c5.62-2.99,9.18-8.79,9.32-15.15v-17.79c7.1-.83,13.26-5,16-11,3.13-6.73,1.4-14.47-4.37-19.62L86.02,5.24C82.07,1.83,77.02-.03,71.8,0Z"
                    fill="#2fd19a" />
            </g>
        </g>
    </g>
</svg>