<?xml version="1.0" encoding="UTF-8"?><svg id="uuid-20269dda-aa7f-4d92-987b-ae4b53712b53" xmlns="http://www.w3.org/2000/svg" viewBox="0 0 561.78 502.53"><g id="uuid-7110d26e-780e-4475-833c-8bce61f3e916"><path d="M553.75,221.35L443.22,29.91c-10.69-18.51-30.44-29.91-51.81-29.91h-221.06c-21.37,0-41.13,11.4-51.81,29.91L8.02,221.35c-10.69,18.51-10.69,41.32,0,59.83l110.53,191.44c10.69,18.51,30.44,29.91,51.81,29.91h221.06c21.37,0,41.13-11.4,51.81-29.91l110.53-191.44c10.69-18.51,10.69-41.32,0-59.83h-.01ZM483.41,281.59l-75,129.91c-10.83,18.76-30.85,30.32-52.52,30.32h-150.01c-21.66,0-41.68-11.56-52.52-30.32l-75-129.91c-10.83-18.76-10.83-41.88,0-60.64l75-129.91c10.83-18.76,30.85-30.32,52.52-30.32h150.01c21.66,0,41.68,11.56,52.52,30.32l75,129.91c10.83,18.76,10.83,41.88,0,60.64ZM153.08,283.19c-11.41-19.75-11.41-44.09,0-63.85l36.25-62.79c11.41-19.75,32.48-31.92,55.29-31.92h44.98l-114.04,197.52-22.49-38.95h.01ZM408.69,283.19l-36.25,62.79c-11.41,19.75-32.48,31.92-55.29,31.92h-72.51c-6.47,0-12.79-.98-18.8-2.83l134.75-233.39c4.61,4.28,8.62,9.26,11.85,14.86l36.25,62.79c11.41,19.75,11.41,44.09,0,63.85h0Z"/></g></svg>