<svg id="Layer_2" xmlns="http://www.w3.org/2000/svg" xmlns:xlink="http://www.w3.org/1999/xlink"
    viewBox="0 0 1026.5 252.48">
    <defs>
        <style>
            .sc-hover-bg-cls-1,
            .sc-hover-bg-cls-2 {
                fill: none;
            }

            .sc-hover-bg-cls-3 {
                fill: url(#linear-gradient-5);
            }

            .sc-hover-bg-cls-3,
            .sc-hover-bg-cls-4,
            .sc-hover-bg-cls-5,
            .sc-hover-bg-cls-6,
            .sc-hover-bg-cls-7,
            .sc-hover-bg-cls-8,
            .sc-hover-bg-cls-9 {
                opacity: .25;
            }

            .sc-hover-bg-cls-4 {
                fill: url(#linear-gradient-7);
            }

            .sc-hover-bg-cls-5 {
                fill: url(#linear-gradient-8);
            }

            .sc-hover-bg-cls-6 {
                fill: url(#linear-gradient-2);
            }

            .sc-hover-bg-cls-7 {
                fill: url(#linear-gradient-3);
            }

            .sc-hover-bg-cls-8 {
                fill: url(#linear-gradient-4);
            }

            .sc-hover-bg-cls-9 {
                fill: url(#linear-gradient-6);
            }

            .sc-hover-bg-cls-10 {
                fill: url(#linear-gradient-9);
            }

            .sc-hover-bg-cls-10,
            .sc-hover-bg-cls-11 {
                opacity: .1;
            }

            .sc-hover-bg-cls-12 {
                fill: url(#linear-gradient-16);
            }

            .sc-hover-bg-cls-12,
            .sc-hover-bg-cls-13,
            .sc-hover-bg-cls-14 {
                opacity: .9;
            }

            .sc-hover-bg-cls-13 {
                fill: url(#linear-gradient-14);
            }

            .sc-hover-bg-cls-14 {
                fill: url(#linear-gradient-12);
            }

            .sc-hover-bg-cls-15 {
                fill: url(#linear-gradient-11);
                opacity: .7;
            }

            .sc-hover-bg-cls-16 {
                fill: url(#linear-gradient-13);
                opacity: .3;
            }

            .sc-hover-bg-cls-11 {
                fill: url(#linear-gradient-10);
            }

            .sc-hover-bg-cls-17 {
                fill: url(#linear-gradient-15);
                opacity: .2;
            }

            .sc-hover-bg-cls-2 {
                stroke: url(#linear-gradient);
                stroke-miterlimit: 10;
            }

            .group:hover .sc-hover-bg-cls-1,
            .group:hover .sc-hover-bg-cls-2 {
                fill: none;
            }

            .group:hover .sc-hover-bg-cls-3 {
                fill: url(#linear-color-gradient-5);
            }

            .group:hover .sc-hover-bg-cls-3,
            .group:hover .sc-hover-bg-cls-4,
            .group:hover .sc-hover-bg-cls-5,
            .group:hover .sc-hover-bg-cls-6,
            .group:hover .sc-hover-bg-cls-7,
            .group:hover .sc-hover-bg-cls-8,
            .group:hover .sc-hover-bg-cls-9 {
                opacity: .25;
            }

            .group:hover .sc-hover-bg-cls-4 {
                fill: url(#linear-color-gradient-7);
            }

            .group:hover .sc-hover-bg-cls-5 {
                fill: url(#linear-color-gradient-8);
            }

            .group:hover .sc-hover-bg-cls-6 {
                fill: url(#linear-color-gradient-2);
            }

            .group:hover .sc-hover-bg-cls-7 {
                fill: url(#linear-color-gradient-3);
            }

            .group:hover .sc-hover-bg-cls-8 {
                fill: url(#linear-color-gradient-4);
            }

            .group:hover .sc-hover-bg-cls-9 {
                fill: url(#linear-color-gradient-6);
            }

            .group:hover .sc-hover-bg-cls-10 {
                fill: url(#linear-color-gradient-9);
            }

            .group:hover .sc-hover-bg-cls-10,
            .group:hover .sc-hover-bg-cls-11 {
                opacity: .1;
            }

            .group:hover .sc-hover-bg-cls-12 {
                fill: url(#linear-color-gradient-16);
            }

            .group:hover .sc-hover-bg-cls-12,
            .group:hover .sc-hover-bg-cls-13,
            .group:hover .sc-hover-bg-cls-14 {
                opacity: .9;
            }

            .group:hover .sc-hover-bg-cls-13 {
                fill: url(#linear-color-gradient-14);
            }

            .group:hover .sc-hover-bg-cls-14 {
                fill: url(#linear-color-gradient-12);
            }

            .group:hover .sc-hover-bg-cls-15 {
                fill: url(#linear-color-gradient-11);
                opacity: .7;
            }

            .group:hover .sc-hover-bg-cls-16 {
                fill: url(#linear-color-gradient-13);
                opacity: .3;
            }

            .group:hover .sc-hover-bg-cls-11 {
                fill: url(#linear-color-gradient-10);
            }

            .group:hover .sc-hover-bg-cls-17 {
                fill: url(#linear-color-gradient-15);
                opacity: .2;
            }

            .group:hover .sc-hover-bg-cls-2 {
                stroke: url(#linear-color-gradient);
                stroke-miterlimit: 10;
            }
        </style>
        <linearGradient id="linear-gradient" x1="300.5" y1="126.24" x2="1026.5" y2="126.24"
            gradientUnits="userSpaceOnUse">
            <stop offset="0" stop-color="#f4f4f5" />
            <stop offset=".08" stop-color="#6b6b6b" />
            <stop offset=".2" stop-color="#f4f4f5" />
            <stop offset=".46" stop-color="#6b6b6b" />
            <stop offset=".69" stop-color="#f4f4f5" />
            <stop offset=".86" stop-color="#6b6b6b" />
            <stop offset="1" stop-color="#f4f4f5" />
        </linearGradient>
        <linearGradient id="linear-gradient-2" x1="1256.92" y1="-852.91" x2="1307.12" y2="-852.91"
            gradientTransform="translate(1883.75 -713.65) rotate(-180)" gradientUnits="userSpaceOnUse">
            <stop offset="0" stop-color="#f4f4f5" />
            <stop offset=".99" stop-color="#6b6b6b" />
        </linearGradient>
        <linearGradient id="linear-gradient-3" x1="716.71" y1="-304.59" x2="717.41" y2="-377.92"
            gradientTransform="translate(1130.03 768.68) rotate(-90)" xlink:href="#linear-gradient-2" />
        <linearGradient id="linear-gradient-4" x1="426.35" y1="177.02" x2="476.56" y2="177.02"
            gradientTransform="matrix(1,0,0,1,0,0)" xlink:href="#linear-gradient-2" />
        <linearGradient id="linear-gradient-5" x1="302" y1="214.58" x2="349.62" y2="214.58"
            gradientTransform="matrix(1,0,0,1,0,0)" xlink:href="#linear-gradient-2" />
        <linearGradient id="linear-gradient-6" x1="652" y1="-659.96" x2="699.62" y2="-659.96"
            gradientTransform="translate(1601.62 -547.28) rotate(-180)" xlink:href="#linear-gradient-2" />
        <linearGradient id="linear-gradient-7" x1="900.9" y1="225.36" x2="951.1" y2="225.36"
            gradientTransform="matrix(1,0,0,1,0,0)" xlink:href="#linear-gradient-2" />
        <linearGradient id="linear-gradient-8" x1="475.9" y1="101.36" x2="526.1" y2="101.36"
            gradientTransform="matrix(1,0,0,1,0,0)" xlink:href="#linear-gradient-2" />
        <linearGradient id="linear-gradient-9" x1="329.89" y1="189.43" x2="346.7" y2="189.43"
            gradientTransform="matrix(1,0,0,1,0,0)" xlink:href="#linear-gradient-2" />
        <linearGradient id="linear-gradient-10" x1="329.89" y1="239.87" x2="346.7" y2="239.87"
            gradientTransform="matrix(1,0,0,1,0,0)" xlink:href="#linear-gradient-2" />
        <linearGradient id="linear-gradient-11" x1="480.55" y1="113.78" x2="497.36" y2="113.78"
            gradientTransform="matrix(1,0,0,1,0,0)" xlink:href="#linear-gradient-2" />
        <linearGradient id="linear-gradient-12" x1="482.49" y1="113.78" x2="495.42" y2="113.78"
            gradientTransform="matrix(1,0,0,1,0,0)" xlink:href="#linear-gradient-2" />
        <linearGradient id="linear-gradient-13" x1="904.85" y1="87.44" x2="921.66" y2="87.44"
            gradientTransform="matrix(1,0,0,1,0,0)" xlink:href="#linear-gradient-2" />
        <linearGradient id="linear-gradient-14" x1="906.79" y1="87.44" x2="919.72" y2="87.44"
            gradientTransform="matrix(1,0,0,1,0,0)" xlink:href="#linear-gradient-2" />
        <linearGradient id="linear-gradient-15" x1="329.89" y1="214.65" x2="346.7" y2="214.65"
            gradientTransform="matrix(1,0,0,1,0,0)" xlink:href="#linear-gradient-2" />
        <linearGradient id="linear-gradient-16" x1="331.83" y1="214.65" x2="344.76" y2="214.65"
            gradientTransform="matrix(1,0,0,1,0,0)" xlink:href="#linear-gradient-2" />


        <linearGradient id="linear-color-gradient" x1="300.5" y1="126.24" x2="1026.5" y2="126.24"
            gradientUnits="userSpaceOnUse">
            <stop offset="0" stop-color="#f7d234" />
            <stop offset=".09" stop-color="#eab308" />
            <stop offset=".2" stop-color="#701a75" />
            <stop offset=".46" stop-color="#a21caf" />
            <stop offset=".69" stop-color="#701a75" />
            <stop offset=".87" stop-color="#1d4ed8" />
            <stop offset="1" stop-color="#3b82f6" />
        </linearGradient>
        <linearGradient id="linear-color-gradient-2" x1="1254.92" y1="20.76" x2="1305.12" y2="20.76"
            gradientTransform="translate(1881.75 160.02) rotate(-180)" gradientUnits="userSpaceOnUse">
            <stop offset="0" stop-color="#a21caf" />
            <stop offset="1" stop-color="#961ca1" />
        </linearGradient>
        <linearGradient id="linear-color-gradient-3" x1="1152.54" y1="133.24" x2="1153.24" y2="59.91"
            gradientTransform="translate(692.2 1204.51) rotate(-90)" gradientUnits="userSpaceOnUse">
            <stop offset="0" stop-color="#5f2689" />
            <stop offset="1" stop-color="#7e1b85" />
        </linearGradient>
        <linearGradient id="linear-color-gradient-4" x1="426.35" y1="177.02" x2="476.56" y2="177.02"
            gradientUnits="userSpaceOnUse">
            <stop offset="0" stop-color="#711b76" />
            <stop offset="1" stop-color="#7d1a84" />
        </linearGradient>
        <linearGradient id="linear-color-gradient-5" x1="302" y1="214.58" x2="349.62" y2="214.58"
            gradientUnits="userSpaceOnUse">
            <stop offset="0" stop-color="#f1c421" />
            <stop offset="1" stop-color="#d79b1a" />
        </linearGradient>
        <linearGradient id="linear-color-gradient-6" x1="650" y1="213.7" x2="697.62" y2="213.7"
            gradientTransform="translate(1599.62 326.39) rotate(-180)" gradientUnits="userSpaceOnUse">
            <stop offset="0" stop-color="#245adf" />
            <stop offset=".99" stop-color="#2e44c4" />
        </linearGradient>
        <linearGradient id="linear-color-gradient-7" x1="900.9" y1="225.36" x2="951.1" y2="225.36"
            gradientUnits="userSpaceOnUse">
            <stop offset="0" stop-color="#2a47c8" />
            <stop offset="1" stop-color="#245ce0" />
        </linearGradient>
        <linearGradient id="linear-color-gradient-8" x1="475.9" y1="101.36" x2="526.1" y2="101.36"
            gradientUnits="userSpaceOnUse">
            <stop offset=".02" stop-color="#7e1b85" />
            <stop offset="1" stop-color="#891b92" />
        </linearGradient>
        <linearGradient id="linear-color-gradient-9" x1="329.89" y1="189.43" x2="346.7" y2="189.43"
            gradientUnits="userSpaceOnUse">
            <stop offset="0" stop-color="#ecb70e" />
            <stop offset="1" stop-color="#dca114" />
        </linearGradient>
        <linearGradient id="linear-color-gradient-10" y1="239.87" y2="239.87" xlink:href="#linear-color-gradient-9" />
        <linearGradient id="linear-color-gradient-11" x1="480.55" y1="113.78" x2="497.36" y2="113.78"
            gradientUnits="userSpaceOnUse">
            <stop offset="0" stop-color="#7c1a83" />
            <stop offset="1" stop-color="#821c8a" />
        </linearGradient>
        <linearGradient id="linear-color-gradient-12" x1="482.49" y1="113.78" x2="495.42" y2="113.78"
            xlink:href="#linear-color-gradient-11" />
        <linearGradient id="linear-color-gradient-13" x1="904.85" y1="87.44" x2="921.66" y2="87.44"
            gradientTransform="matrix(1,0,0,1,0,0)" xlink:href="#linear-color-gradient-6" />
        <linearGradient id="linear-color-gradient-14" x1="906.79" y1="87.44" x2="919.72" y2="87.44"
            gradientTransform="matrix(1,0,0,1,0,0)" xlink:href="#linear-color-gradient-6" />
        <linearGradient id="linear-color-gradient-15" y1="214.65" y2="214.65" xlink:href="#linear-color-gradient-9" />
        <linearGradient id="linear-color-gradient-16" x1="331.83" y1="214.65" x2="344.76" y2="214.65"
            xlink:href="#linear-color-gradient-9" />
    </defs>
    <g id="Layer_1-2">
        <rect class="cls-1" y="1.94" width="1026" height="250" />
        <path class="cls-2"
            d="M500.54,39.03c0,6.89-5.59,12.69-12.48,12.69h.29c-.1,0-.2,0-.29,0-6.89,0-12.48,5.59-12.48,12.48s5.59,12.48,12.48,12.48,12.48,5.59,12.48,12.48c0,6.89,5.59,12.48,12.48,12.48,6.89,0,12.48-5.59,12.48-12.48,0-6.89-5.59-12.48-12.48-12.48s-12.48-5.59-12.48-12.48,5.59-12.48,12.48-12.48c6.89,0,12.48-5.59,12.48-12.48,0-6.89-5.59-12.48-12.48-12.48s-12.42,5.52-12.48,12.36M588.03,101.73h-24.76s0,.05,0,.05c-6.89,0-12.69-5.59-12.69-12.48v.29c0-.1,0-.2,0-.29,0-6.89-5.59-12.48-12.48-12.48s-12.48,5.59-12.48,12.48c0,6.89,5.59,12.48,12.48,12.48,6.89,0,12.48,5.59,12.48,12.48,0,6.89,5.79,12.43,12.69,12.43h24.76s.1,0,.1,0c6.85,0,12.42-5.52,12.48-12.36v.08c0-6.89,5.59-12.69,12.48-12.69h-.29c.1,0,.2,0,.29,0,6.89,0,12.48-5.59,12.48-12.48s-5.59-12.48-12.48-12.48c-6.89,0-12.48,5.59-12.48,12.48s-5.59,12.48-12.48,12.48M913.03,175.73h-24.76s0,.05,0,.05c-6.89,0-12.69-5.59-12.69-12.48v.29c0-.1,0-.2,0-.29,0-6.89-5.59-12.48-12.48-12.48s-12.48,5.59-12.48,12.48c0,6.89,5.59,12.48,12.48,12.48,6.89,0,12.48,5.59,12.48,12.48,0,6.89,5.79,12.43,12.69,12.43h24.76s.1,0,.1,0c6.85,0,12.42-5.52,12.48-12.36v.08c0-6.89,5.59-12.69,12.48-12.69h-.29c.1,0,.2,0,.29,0,6.89,0,12.48-5.59,12.48-12.48s-5.59-12.48-12.48-12.48c-6.89,0-12.48,5.59-12.48,12.48s-5.59,12.48-12.48,12.48M476.17,139.24c0,6.89,5.59,12.48,12.48,12.48M463.49,101.79c-.1,0-.2,0-.29,0-6.89,0-12.48,5.59-12.48,12.48s5.59,12.48,12.48,12.48,12.48,5.59,12.48,12.48h-.19c0,6.89,5.59,12.48,12.48,12.48s12.42-5.52,12.48-12.36v.08c0-6.89,5.59-12.69,12.48-12.69h-.29c.1,0,.2,0,.29,0,6.89,0,12.48-5.59,12.48-12.48,0-6.89-5.59-12.48-12.48-12.48-6.89,0-12.48-5.59-12.48-12.48,0-6.89-5.59-12.48-12.48-12.48-6.89,0-12.48,5.59-12.48,12.48l.19-.21c0,6.89-5.59,12.69-12.48,12.69M500.64,64.33c0,6.89,5.59,12.48,12.48,12.48M500.64,89.3c0-6.89-5.8-12.48-12.69-12.48M500.65,89.01c0,.1,0,.2,0,.29,0,6.89,5.59,12.48,12.48,12.48s12.48-5.59,12.48-12.48M538.1,76.82c-6.89,0-12.48,5.59-12.48,12.48M525.29,139.24c0-6.89-5.59-12.48-12.48-12.48s-12.48,5.59-12.48,12.48,5.59,12.48,12.48,12.48,12.48-5.59,12.48-12.48ZM538.1,126.34c-6.89,0-12.48,5.59-12.48,12.48s5.59,12.48,12.48,12.48,12.48-5.59,12.48-12.48-5.59-12.48-12.48-12.48ZM551.22,214.44c0-6.89,5.59-12.69,12.48-12.69h-.29c.1,0,.2,0,.29,0,6.89,0,12.48-5.59,12.48-12.48,0-6.89-5.59-12.48-12.48-12.48-6.89,0-12.48-5.59-12.48-12.48,0-6.89-5.59-12.48-12.48-12.48s-12.48,5.59-12.48,12.48c0,6.89,5.59,12.48,12.48,12.48,6.89,0,12.48,5.59,12.48,12.48,0,6.89-5.59,12.48-12.48,12.48-6.89,0-12.48,5.59-12.48,12.48,0,6.89,5.59,12.48,12.48,12.48s12.42-5.52,12.48-12.36M539.03,226.92c-.1,0-.2,0-.29,0-6.89,0-12.48,5.59-12.48,12.48s5.59,12.48,12.48,12.48,12.48-5.59,12.48-12.48,5.59-12.48,12.48-12.48,12.48-5.59,12.48-12.48c0-6.89-5.59-12.48-12.48-12.48-6.85,0-12.42,5.52-12.48,12.36v-.08c0,6.89-5.59,12.69-12.48,12.69M538.74,176.78c-6.89,0-12.48,5.59-12.48,12.48s5.59,12.48,12.48,12.48,12.48-5.59,12.48-12.48-5.59-12.48-12.48-12.48ZM975.22,62.26c0,6.89-5.59,12.69-12.48,12.69h.29c-.1,0-.2,0-.29,0-6.89,0-12.48,5.59-12.48,12.48,0,6.89,5.59,12.48,12.48,12.48,6.89,0,12.48,5.59,12.48,12.48,0,6.89,5.59,12.48,12.48,12.48,6.89,0,12.48-5.59,12.48-12.48,0-6.89-5.59-12.48-12.48-12.48-6.89,0-12.48-5.59-12.48-12.48,0-6.89,5.59-12.48,12.48-12.48s12.48-5.59,12.48-12.48c0-6.89-5.59-12.48-12.48-12.48-6.85,0-12.42,5.52-12.48,12.36M987.41,49.78c.1,0,.2,0,.29,0,6.89,0,12.48-5.59,12.48-12.48s-5.59-12.48-12.48-12.48-12.48,5.59-12.48,12.48-5.59,12.48-12.48,12.48-12.48,5.59-12.48,12.48c0,6.89,5.59,12.48,12.48,12.48s12.42-5.52,12.48-12.36v.08c0-6.89,5.59-12.69,12.48-12.69M987.71,99.92c6.89,0,12.48-5.59,12.48-12.48s-5.59-12.48-12.48-12.48-12.48,5.59-12.48,12.48,5.59,12.48,12.48,12.48ZM325.97,189.26c0,6.89-5.59,12.69-12.48,12.69h.29c-.1,0-.2,0-.29,0-6.89,0-12.48,5.59-12.48,12.48,0,6.89,5.59,12.48,12.48,12.48,6.89,0,12.48,5.59,12.48,12.48,0,6.89,5.59,12.48,12.48,12.48,6.89,0,12.48-5.59,12.48-12.48,0-6.89-5.59-12.48-12.48-12.48-6.89,0-12.48-5.59-12.48-12.48,0-6.89,5.59-12.48,12.48-12.48s12.48-5.59,12.48-12.48c0-6.89-5.59-12.48-12.48-12.48-6.85,0-12.42,5.52-12.48,12.36M450.75,239.35c0-6.89,5.8-12.48,12.69-12.48v.05s24.76,0,24.76,0c6.89,0,12.48-5.59,12.48-12.48,0-.1,0-.2,0-.29v.29c0-6.89,5.8-12.48,12.7-12.48h-.08c6.84-.07,12.36-5.63,12.36-12.48s-5.59-12.48-12.48-12.48c-6.89,0-12.48,5.59-12.48,12.48,0,6.89-5.59,12.48-12.48,12.48h-24.76c-6.89,0-12.69,5.54-12.69,12.43s-5.59,12.48-12.48,12.48-12.48,5.59-12.48,12.48c0,6.89,5.59,12.48,12.48,12.48s12.48-5.59,12.48-12.48c0-.1,0-.2,0-.29M488.25,177.03c-6.89,0-12.48,5.59-12.48,12.48s5.59,12.48,12.48,12.48,12.48-5.59,12.48-12.48-5.59-12.48-12.48-12.48ZM338.92,201.95c-.1,0-.2,0-.29,0-6.89,0-12.48,5.59-12.48,12.48s5.59,12.48,12.48,12.48,12.48-5.59,12.48-12.48,5.59-12.48,12.48-12.48,12.48-5.59,12.48-12.48-5.59-12.48-12.48-12.48-12.42,5.52-12.48,12.36v-.08c0,6.89-5.59,12.69-12.48,12.69M387.89,226.92c6.89,0,12.69,5.59,12.69,12.48v-.29c0,.1,0,.2,0,.29,0,6.89,5.59,12.48,12.48,12.48,6.89,0,12.48-5.59,12.48-12.48,0-6.89,5.59-12.48,12.48-12.48,6.89,0,12.48-5.59,12.48-12.48,0-6.89-5.59-12.48-12.48-12.48-6.89,0-12.48,5.59-12.48,12.48,0,6.89-5.59,12.48-12.48,12.48-6.89,0-12.48-5.59-12.48-12.48,0-6.89-5.59-12.48-12.48-12.48s-12.48,5.59-12.48,12.48c0,6.85,5.52,12.42,12.36,12.48M475.77,189.72c0-6.89,5.59-12.69,12.48-12.69h-.29c.1,0,.2,0,.29,0,6.89,0,12.48-5.59,12.48-12.48,0-6.89-5.59-12.48-12.48-12.48s-12.48-5.59-12.48-12.48c0-6.89-5.59-12.48-12.48-12.48-6.89,0-12.48,5.59-12.48,12.48,0,6.89,5.59,12.48,12.48,12.48,6.89,0,12.48,5.59,12.48,12.48,0,6.89-5.59,12.48-12.48,12.48s-12.48,5.59-12.48,12.48c0,6.89,5.59,12.48,12.48,12.48,6.85,0,12.42-5.52,12.48-12.36M438.56,177.03c-.1,0-.2,0-.29,0-6.89,0-12.48,5.59-12.48,12.48s5.59,12.48,12.48,12.48,12.48-5.59,12.48-12.48,5.59-12.48,12.48-12.48,12.48-5.59,12.48-12.48c0-6.89-5.59-12.48-12.48-12.48s-12.42,5.52-12.48,12.36v-.08c0,6.89-5.59,12.69-12.48,12.69M401.13,189.72c0-6.89,5.59-12.69,12.48-12.69h-.29c.1,0,.2,0,.29,0,6.89,0,12.48-5.59,12.48-12.48,0-6.89-5.59-12.48-12.48-12.48-6.89,0-12.48-5.59-12.48-12.48,0-6.89-5.59-12.48-12.48-12.48s-12.48,5.59-12.48,12.48c0,6.89,5.59,12.48,12.48,12.48,6.89,0,12.48,5.59,12.48,12.48,0,6.89-5.59,12.48-12.48,12.48s-12.48,5.59-12.48,12.48,5.59,12.48,12.48,12.48,12.42-5.52,12.48-12.36M600.63,114.19c0,6.89-5.59,12.69-12.48,12.69h.29c-.1,0-.2,0-.29,0-6.89,0-12.48,5.59-12.48,12.48s5.59,12.48,12.48,12.48c6.89,0,12.48,5.59,12.48,12.48,0,6.89,5.59,12.48,12.48,12.48,6.89,0,12.48-5.59,12.48-12.48s-5.59-12.48-12.48-12.48c-6.89,0-12.48-5.59-12.48-12.48s5.59-12.48,12.48-12.48c6.89,0,12.48-5.59,12.48-12.48,0-6.89-5.59-12.48-12.48-12.48-6.85,0-12.42,5.52-12.48,12.36M638.08,226.97c-6.89,0-12.48-5.8-12.48-12.69h.05s0-24.76,0-24.76c0-6.89-5.59-12.48-12.48-12.48-.1,0-.2,0-.29,0h.29c-6.89,0-12.48-5.8-12.48-12.7v.08c-.07-6.84-5.63-12.36-12.48-12.36s-12.48,5.59-12.48,12.48c0,6.89,5.59,12.48,12.48,12.48,6.89,0,12.48,5.59,12.48,12.48v24.76c0,6.89,5.54,12.69,12.43,12.69,6.89,0,12.48,5.59,12.48,12.48,0,6.89,5.59,12.48,12.48,12.48,6.89,0,12.48-5.59,12.48-12.48,0-6.89-5.59-12.48-12.48-12.48-.1,0-.2,0-.29,0M600.51,14.42c0,6.89-5.8,12.48-12.69,12.48v-.05s-24.76,0-24.76,0c-6.89,0-12.48,5.59-12.48,12.48,0,.1,0,.2,0,.29v-.29c0,6.89-5.8,12.48-12.7,12.48h.08c-6.84.07-12.36,5.63-12.36,12.48,0,6.89,5.59,12.48,12.48,12.48s12.48-5.59,12.48-12.48c0-6.89,5.59-12.48,12.48-12.48h24.76c6.89,0,12.69-5.54,12.69-12.43,0-6.89,5.59-12.48,12.48-12.48,6.89,0,12.48-5.59,12.48-12.48,0-6.89-5.59-12.48-12.48-12.48-6.89,0-12.48,5.59-12.48,12.48,0,.1,0,.2,0,.29M612.68,51.83c6.89,0,12.69,5.59,12.69,12.48v-.29c0,.1,0,.2,0,.29,0,6.89,5.59,12.48,12.48,12.48,6.89,0,12.48-5.59,12.48-12.48,0-6.89,5.59-12.48,12.48-12.48,6.89,0,12.48-5.59,12.48-12.48s-5.59-12.48-12.48-12.48-12.48,5.59-12.48,12.48c0,6.89-5.59,12.48-12.48,12.48-6.89,0-12.48-5.59-12.48-12.48,0-6.89-5.59-12.48-12.48-12.48s-12.48,5.59-12.48,12.48c0,6.85,5.52,12.42,12.36,12.48M426.08,138.43c0,.1,0,.2,0,.29,0,6.89,5.59,12.48,12.48,12.48s12.48-5.59,12.48-12.48-5.59-12.48-12.48-12.48-12.48-5.59-12.48-12.48-5.59-12.48-12.48-12.48-12.48,5.59-12.48,12.48c0,6.85,5.52,12.42,12.36,12.48h-.08c6.89,0,12.69,5.59,12.69,12.48M450.52,89.23c0,.1,0,.2,0,.29,0,6.89,5.59,12.48,12.48,12.48s12.48-5.59,12.48-12.48-5.59-12.48-12.48-12.48-12.48-5.59-12.48-12.48-5.59-12.48-12.48-12.48-12.48,5.59-12.48,12.48c0,6.85,5.52,12.42,12.36,12.48h-.08c6.89,0,12.69,5.59,12.69,12.48M775.32,137.75c0,6.89-5.59,12.69-12.48,12.69h.29c-.1,0-.2,0-.29,0-6.89,0-12.48,5.59-12.48,12.48,0,6.89,5.59,12.48,12.48,12.48,6.89,0,12.48,5.59,12.48,12.48,0,6.89,5.59,12.48,12.48,12.48,6.89,0,12.48-5.59,12.48-12.48s-5.59-12.48-12.48-12.48c-6.89,0-12.48-5.59-12.48-12.48,0-6.89,5.59-12.48,12.48-12.48,6.89,0,12.48-5.59,12.48-12.48,0-6.89-5.59-12.48-12.48-12.48-6.85,0-12.42,5.52-12.48,12.36M850.36,87.81v-24.76s-.05,0-.05,0c0-6.89,5.59-12.69,12.48-12.69h-.29c.1,0,.2,0,.29,0,6.89,0,12.48-5.59,12.48-12.48,0-6.89-5.59-12.48-12.48-12.48-6.89,0-12.48,5.59-12.48,12.48,0,6.89-5.59,12.48-12.48,12.48s-12.43,5.79-12.43,12.69v24.76s0,.1,0,.1c0,6.85,5.52,12.42,12.36,12.48h-.08c6.89,0,12.69,5.59,12.69,12.48v-.29c0,.1,0,.2,0,.29,0,6.89,5.59,12.48,12.48,12.48s12.48-5.59,12.48-12.48-5.59-12.48-12.48-12.48c-6.89,0-12.48-5.59-12.48-12.48M737.86,151.95c-6.89,0-12.48,5.59-12.48,12.48M737.86,201.08c6.89,0,12.48-5.59,12.48-12.48s-5.59-12.48-12.48-12.48-12.48,5.59-12.48,12.48,5.59,12.48,12.48,12.48ZM750.75,213.88c0-6.89-5.59-12.48-12.48-12.48s-12.48,5.59-12.48,12.48,5.59,12.48,12.48,12.48,12.48-5.59,12.48-12.48ZM662.66,227.01c6.89,0,12.69,5.59,12.69,12.48v-.29c0,.1,0,.2,0,.29,0,6.89,5.59,12.48,12.48,12.48,6.89,0,12.48-5.59,12.48-12.48,0-6.89,5.59-12.48,12.48-12.48,6.89,0,12.48-5.59,12.48-12.48,0-6.89-5.59-12.48-12.48-12.48-6.89,0-12.48,5.59-12.48,12.48,0,6.89-5.59,12.48-12.48,12.48-6.89,0-12.48-5.59-12.48-12.48s-5.59-12.48-12.48-12.48-12.48,5.59-12.48,12.48c0,6.85,5.52,12.42,12.36,12.48M650.18,214.82c0-.1,0-.2,0-.29,0-6.89-5.59-12.48-12.48-12.48s-12.48,5.59-12.48,12.48,5.59,12.48,12.48,12.48,12.48,5.59,12.48,12.48,5.59,12.48,12.48,12.48c6.89,0,12.48-5.59,12.48-12.48s-5.52-12.42-12.36-12.48h.08c-6.89,0-12.69-5.59-12.69-12.48M700.32,214.52c0-6.89-5.59-12.48-12.48-12.48s-12.48,5.59-12.48,12.48,5.59,12.48,12.48,12.48,12.48-5.59,12.48-12.48ZM838.11,200.76c6.89,0,12.69,5.59,12.69,12.48v-.29c0,.1,0,.2,0,.29,0,6.89,5.59,12.48,12.48,12.48s12.48-5.59,12.48-12.48c0-6.89,5.59-12.48,12.48-12.48,6.89,0,12.48-5.59,12.48-12.48,0-6.89-5.59-12.48-12.48-12.48-6.89,0-12.48,5.59-12.48,12.48,0,6.89-5.59,12.48-12.48,12.48-6.89,0-12.48-5.59-12.48-12.48,0-6.89-5.59-12.48-12.48-12.48-6.89,0-12.48,5.59-12.48,12.48s5.52,12.42,12.36,12.48M1000.29,37.75c0,6.89-5.59,12.69-12.48,12.69h.29c-.1,0-.2,0-.29,0-6.89,0-12.48,5.59-12.48,12.48,0,6.89,5.59,12.48,12.48,12.48,6.89,0,12.48,5.59,12.48,12.48,0,6.89,5.59,12.48,12.48,12.48,6.89,0,12.48-5.59,12.48-12.48s-5.59-12.48-12.48-12.48c-6.89,0-12.48-5.59-12.48-12.48s5.59-12.48,12.48-12.48c6.89,0,12.48-5.59,12.48-12.48,0-6.89-5.59-12.48-12.48-12.48s-12.42,5.52-12.48,12.36M637.74,126.54c6.89,0,12.48,5.8,12.48,12.69h-.05s0,24.76,0,24.76c0,6.89,5.59,12.48,12.48,12.48.1,0,.2,0,.29,0h-.29c6.89,0,12.48,5.8,12.48,12.7v-.08c.07,6.84,5.63,12.36,12.48,12.36,6.89,0,12.48-5.59,12.48-12.48,0-6.89-5.59-12.48-12.48-12.48-6.89,0-12.48-5.59-12.48-12.48v-24.76c0-6.89-5.54-12.69-12.43-12.69s-12.48-5.59-12.48-12.48c0-6.89-5.59-12.48-12.48-12.48-6.89,0-12.48,5.59-12.48,12.48,0,6.89,5.59,12.48,12.48,12.48.1,0,.2,0,.29,0M700.06,164.04c0-6.89-5.59-12.48-12.48-12.48s-12.48,5.59-12.48,12.48,5.59,12.48,12.48,12.48,12.48-5.59,12.48-12.48ZM950.06,63.04c0-6.89-5.59-12.48-12.48-12.48s-12.48,5.59-12.48,12.48,5.59,12.48,12.48,12.48,12.48-5.59,12.48-12.48ZM975.06,38.04c0-6.89-5.59-12.48-12.48-12.48s-12.48,5.59-12.48,12.48,5.59,12.48,12.48,12.48,12.48-5.59,12.48-12.48ZM900.06,63.04c0-6.89-5.59-12.48-12.48-12.48s-12.48,5.59-12.48,12.48,5.59,12.48,12.48,12.48,12.48-5.59,12.48-12.48ZM925.06,38.04c0-6.89-5.59-12.48-12.48-12.48s-12.48,5.59-12.48,12.48,5.59,12.48,12.48,12.48,12.48-5.59,12.48-12.48ZM926.06,138.04c0-6.89-5.59-12.48-12.48-12.48s-12.48,5.59-12.48,12.48,5.59,12.48,12.48,12.48,12.48-5.59,12.48-12.48ZM675.14,14.71c0-.1,0-.2,0-.29,0-6.89-5.59-12.48-12.48-12.48s-12.48,5.59-12.48,12.48,5.59,12.48,12.48,12.48,12.48,5.59,12.48,12.48,5.59,12.48,12.48,12.48,12.48-5.59,12.48-12.48-5.52-12.42-12.36-12.48h.08c-6.89,0-12.69-5.59-12.69-12.48M951.14,188.25c0-.1,0-.2,0-.29,0-6.89-5.59-12.48-12.48-12.48s-12.48,5.59-12.48,12.48,5.59,12.48,12.48,12.48,12.48,5.59,12.48,12.48,5.59,12.48,12.48,12.48,12.48-5.59,12.48-12.48-5.52-12.42-12.36-12.48h.08c-6.89,0-12.69-5.59-12.69-12.48M650.18,63.68c0,6.89-5.59,12.69-12.48,12.69h.29c-.1,0-.2,0-.29,0-6.89,0-12.48,5.59-12.48,12.48,0,6.89,5.59,12.48,12.48,12.48,6.89,0,12.48,5.59,12.48,12.48,0,6.89,5.59,12.48,12.48,12.48,6.89,0,12.48-5.59,12.48-12.48s-5.59-12.48-12.48-12.48c-6.89,0-12.48-5.59-12.48-12.48,0-6.89,5.59-12.48,12.48-12.48,6.89,0,12.48-5.59,12.48-12.48,0-6.89-5.59-12.48-12.48-12.48-6.85,0-12.42,5.52-12.48,12.36M687.37,151.56c6.89,0,12.69,5.59,12.69,12.48v-.29c0,.1,0,.2,0,.29,0,6.89,5.59,12.48,12.48,12.48,6.89,0,12.48-5.59,12.48-12.48,0-6.89,5.59-12.48,12.48-12.48,6.89,0,12.48-5.59,12.48-12.48s-5.59-12.48-12.48-12.48c-6.89,0-12.48,5.59-12.48,12.48,0,6.89-5.59,12.48-12.48,12.48s-12.48-5.59-12.48-12.48-5.59-12.48-12.48-12.48c-6.89,0-12.48,5.59-12.48,12.48,0,6.85,5.52,12.42,12.36,12.48M700.06,114.35c0-.1,0-.2,0-.29,0-6.89-5.59-12.48-12.48-12.48s-12.48,5.59-12.48,12.48,5.59,12.48,12.48,12.48,12.48,5.59,12.48,12.48,5.59,12.48,12.48,12.48c6.89,0,12.48-5.59,12.48-12.48s-5.52-12.42-12.36-12.48h.08c-6.89,0-12.69-5.59-12.69-12.48M976.06,188.04c0-6.89-5.59-12.48-12.48-12.48s-12.48,5.59-12.48,12.48,5.59,12.48,12.48,12.48,12.48-5.59,12.48-12.48ZM963.37,175.56c6.89,0,12.69,5.59,12.69,12.48v-.29c0,.1,0,.2,0,.29,0,6.89,5.59,12.48,12.48,12.48,6.89,0,12.48-5.59,12.48-12.48,0-6.89,5.59-12.48,12.48-12.48,6.89,0,12.48-5.59,12.48-12.48s-5.59-12.48-12.48-12.48-12.48,5.59-12.48,12.48c0,6.89-5.59,12.48-12.48,12.48s-12.48-5.59-12.48-12.48-5.59-12.48-12.48-12.48c-6.89,0-12.48,5.59-12.48,12.48,0,6.85,5.52,12.42,12.36,12.48M976.06,138.35c0-.1,0-.2,0-.29,0-6.89-5.59-12.48-12.48-12.48s-12.48,5.59-12.48,12.48,5.59,12.48,12.48,12.48,12.48,5.59,12.48,12.48,5.59,12.48,12.48,12.48c6.89,0,12.48-5.59,12.48-12.48s-5.52-12.42-12.36-12.48h.08c-6.89,0-12.69-5.59-12.69-12.48M687.37,76.92c6.89,0,12.69,5.59,12.69,12.48v-.29c0,.1,0,.2,0,.29,0,6.89,5.59,12.48,12.48,12.48,6.89,0,12.48-5.59,12.48-12.48s5.59-12.48,12.48-12.48c6.89,0,12.48-5.59,12.48-12.48,0-6.89-5.59-12.48-12.48-12.48-6.89,0-12.48,5.59-12.48,12.48s-5.59,12.48-12.48,12.48c-6.89,0-12.48-5.59-12.48-12.48,0-6.89-5.59-12.48-12.48-12.48s-12.48,5.59-12.48,12.48c0,6.85,5.52,12.42,12.36,12.48M812.91,51.42c-6.89,0-12.69-5.59-12.69-12.48v.29c0-.1,0-.2,0-.29,0-6.89-5.59-12.48-12.48-12.48s-12.48,5.59-12.48,12.48c0,6.89-5.59,12.48-12.48,12.48-6.89,0-12.48,5.59-12.48,12.48,0,6.89,5.59,12.48,12.48,12.48s12.48-5.59,12.48-12.48c0-6.89,5.59-12.48,12.48-12.48,6.89,0,12.48,5.59,12.48,12.48s5.59,12.48,12.48,12.48,12.48-5.59,12.48-12.48c0-6.85-5.52-12.42-12.36-12.48M725.12,63.87c0-6.89,5.8-12.48,12.69-12.48v.05s24.76,0,24.76,0c6.89,0,12.48-5.59,12.48-12.48,0-.1,0-.2,0-.29v.29c0-6.89,5.8-12.48,12.7-12.48h-.08c6.84-.07,12.36-5.63,12.36-12.48,0-6.89-5.59-12.48-12.48-12.48-6.89,0-12.48,5.59-12.48,12.48,0,6.89-5.59,12.48-12.48,12.48h-24.76c-6.89,0-12.69,5.54-12.69,12.43s-5.59,12.48-12.48,12.48-12.48,5.59-12.48,12.48c0,6.89,5.59,12.48,12.48,12.48,6.89,0,12.48-5.59,12.48-12.48,0-.1,0-.2,0-.29M787.67,226.3c-6.89,0-12.48-5.8-12.48-12.69h.05s0-24.76,0-24.76c0-6.89-5.59-12.48-12.48-12.48-.1,0-.2,0-.29,0h.29c-6.89,0-12.48-5.8-12.48-12.7v.08c-.07-6.84-5.63-12.36-12.48-12.36s-12.48,5.59-12.48,12.48c0,6.89,5.59,12.48,12.48,12.48,6.89,0,12.48,5.59,12.48,12.48v24.76c0,6.89,5.54,12.69,12.43,12.69,6.89,0,12.48,5.59,12.48,12.48,0,6.89,5.59,12.48,12.48,12.48s12.48-5.59,12.48-12.48c0-6.89-5.59-12.48-12.48-12.48-.1,0-.2,0-.29,0M800.27,137.75c0,6.89-5.59,12.69-12.48,12.69h.29c-.1,0-.2,0-.29,0-6.89,0-12.48,5.59-12.48,12.48,0,6.89,5.59,12.48,12.48,12.48s12.48,5.59,12.48,12.48c0,6.89,5.59,12.48,12.48,12.48s12.48-5.59,12.48-12.48c0-6.89-5.59-12.48-12.48-12.48-6.89,0-12.48-5.59-12.48-12.48,0-6.89,5.59-12.48,12.48-12.48s12.48-5.59,12.48-12.48c0-6.89-5.59-12.48-12.48-12.48s-12.42,5.52-12.48,12.36M825.32,137.75c0,6.89-5.59,12.69-12.48,12.69h.29c-.1,0-.2,0-.29,0-6.89,0-12.48,5.59-12.48,12.48,0,6.89,5.59,12.48,12.48,12.48,6.89,0,12.48,5.59,12.48,12.48,0,6.89,5.59,12.48,12.48,12.48,6.89,0,12.48-5.59,12.48-12.48s-5.59-12.48-12.48-12.48c-6.89,0-12.48-5.59-12.48-12.48,0-6.89,5.59-12.48,12.48-12.48,6.89,0,12.48-5.59,12.48-12.48,0-6.89-5.59-12.48-12.48-12.48-6.85,0-12.42,5.52-12.48,12.36M900.78,112.82c0,6.9-5.59,12.49-12.49,12.49s-12.48,5.58-12.48,12.48c0,5.75-3.9,10.6-9.2,12.04-1.21.4-2.5.61-3.85.61-6.9,0-12.49,5.59-12.49,12.48s5.59,12.49,12.49,12.49,12.48,5.59,12.48,12.48-5.59,12.49-12.48,12.49-12.49-5.59-12.49-12.49-5.59-12.48-12.48-12.48-12.48-5.59-12.48-12.49,5.58-12.48,12.48-12.48,12.44-5.75,12.48-12.61v-.08c.1-5.71,4.02-10.49,9.33-11.88.01,0,.03-.01.06-.01,1.16-.36,2.39-.55,3.67-.55,6.89,0,12.48-5.8,12.48-12.7.12-6.8,5.66-12.27,12.48-12.27s12.49,5.59,12.49,12.48ZM838.08,150.44h-.29M975.26,112.96c0,6.89-5.59,12.48-12.48,12.48s-12.45,5.75-12.49,12.61v.08c-.1,6.8-5.66,12.28-12.48,12.28s-12.48-5.59-12.48-12.49,5.59-12.48,12.48-12.48,12.48-5.59,12.48-12.48-5.59-12.49-12.48-12.49c-4.35,0-8.18-2.23-10.41-5.6-.09-.14-.18-.27-.26-.41-.1-.17-.21-.34-.3-.52-1-1.79-1.57-3.85-1.57-6.05,0-6.73-5.34-12.22-12.01-12.47-.16.02-.33.02-.5.02-6.76,0-12.26,5.56-12.48,12.27.01.01.01.02,0,.03.01.08.01.17.01.25,0,6.89,5.59,12.48,12.49,12.48s12.48,5.59,12.48,12.49-5.59,12.48-12.48,12.48-12.45,5.75-12.49,12.61v.08c-.1,6.8-5.66,12.28-12.48,12.28s-12.48-5.59-12.48-12.49,5.59-12.48,12.48-12.48,12.48-5.59,12.48-12.48-5.59-12.49-12.48-12.49c-5.41,0-10.02-3.44-11.74-8.26-.09-.24-.17-.48-.24-.73-.03-.07-.05-.15-.07-.22l-.18-.75c-.08-.41-.14-.82-.19-1.24-.06-.44-.08-.89-.08-1.35,0-6.89,5.58-12.48,12.48-12.48s12.48-5.59,12.48-12.48-5.59-12.49-12.48-12.49-12.48-5.59-12.48-12.48,5.58-12.49,12.48-12.49,12.48,5.59,12.48,12.49,5.34,12.23,12.03,12.47c.16-.02.32-.02.49-.02,6.6,0,12.01-5.33,12.45-11.84v-.03c.02-.24.03-.49.03-.74v-.08c.09-5.37,3.55-9.91,8.37-11.6.91-.31,1.86-.52,2.85-.62.4-.04.81-.06,1.22-.06h.05c6.87-.03,12.43-5.81,12.43-12.69.11-6.79,5.66-12.28,12.49-12.28s12.48,5.59,12.48,12.49-5.59,12.48-12.48,12.48-12.1,5.2-12.46,11.77c-.02.24-.03.48-.03.72,0,6.05-4.31,11.1-10.04,12.25-.38.07-.77.13-1.17.17-.41.04-.84.06-1.27.06-6.88.03-12.44,5.61-12.44,12.48s5.59,12.49,12.49,12.49c4.52,0,8.48,2.41,10.67,6.01.31.51.59,1.05.83,1.61.66,1.52,1.03,3.2,1.03,4.96,0,6.89,5.59,12.48,12.49,12.48s12.48,5.59,12.48,12.49ZM738.66,101.87c-.1,0-.2,0-.29,0-6.89,0-12.48,5.59-12.48,12.48s5.59,12.48,12.48,12.48,12.48-5.59,12.48-12.48,5.59-12.48,12.48-12.48,12.48-5.59,12.48-12.48-5.59-12.48-12.48-12.48c-6.85,0-12.42,5.52-12.48,12.36v-.08c0,6.89-5.59,12.69-12.48,12.69M913.62,224.87c-.1,0-.2,0-.29,0-6.89,0-12.48,5.59-12.48,12.48s5.59,12.48,12.48,12.48,12.48-5.59,12.48-12.48,5.59-12.48,12.48-12.48,12.48-5.59,12.48-12.48-5.59-12.48-12.48-12.48c-6.85,0-12.42,5.52-12.48,12.36v-.08c0,6.89-5.59,12.69-12.48,12.69M863.62,125.31h-.29" />
        <g id="circles-and-blob-bgs">
            <g id="blob-bgs">
                <path id="blue" class="cls-6"
                    d="M601.73,114.03c.07-6.87,5.66-12.42,12.55-12.42,6.93,0,12.55,5.62,12.55,12.55,0,6.93-5.62,12.55-12.55,12.55s-12.55,5.62-12.55,12.55c0,6.93,5.62,12.55,12.55,12.55,6.93,0,12.55,5.62,12.55,12.55,0,6.93-5.62,12.55-12.55,12.55-6.93,0-12.55-5.62-12.55-12.55,0-6.93-5.62-12.55-12.55-12.55s-12.55-5.62-12.55-12.55c0-6.93,5.62-12.55,12.55-12.55.1,0,.2,0,.3,0h-.3c6.93,0,12.55-5.83,12.55-12.76" />
                <path id="blue-2" class="cls-7"
                    d="M812.68,51.49c6.87.07,12.42,5.66,12.42,12.55,0,6.93-5.62,12.55-12.55,12.55s-12.55-5.62-12.55-12.55c0-6.93-5.62-12.55-12.55-12.55s-12.55,5.62-12.55,12.55c0,6.93-5.62,12.55-12.55,12.55-6.93,0-12.55-5.62-12.55-12.55,0-6.93,5.62-12.55,12.55-12.55,6.93,0,12.55-5.62,12.55-12.55s5.62-12.55,12.55-12.55c6.93,0,12.55,5.62,12.55,12.55,0,.1,0,.2,0,.3v-.3c0,6.93,5.83,12.55,12.76,12.55" />
                <path id="fuchsia" class="cls-8"
                    d="M464.01,177.02c-6.93,0-12.55,5.83-12.55,12.76v-.08c-.07,6.87-5.66,12.42-12.55,12.42s-12.55-5.62-12.55-12.55,5.62-12.55,12.55-12.55,12.55-5.62,12.55-12.55,5.62-12.55,12.55-12.55,12.55,5.62,12.55,12.55-5.62,12.55-12.55,12.55c-.1,0-.2,0-.3,0" />
                <path id="fuchsia-2" class="cls-3"
                    d="M338.36,228.42c-7.63,0-13.84-6.21-13.84-13.84s6.21-13.84,13.84-13.84c6.21,0,11.26-5.05,11.26-11.26s-5.05-11.26-11.26-11.26-11.2,5-11.26,11.14h0c-.05,7.61-6.09,13.8-13.56,13.95h0s-.29,0-.29,0c-6.2,0-11.25,5.05-11.25,11.26s5.05,11.26,11.26,11.26c7.63,0,13.84,6.21,13.84,13.84,0,6.21,5.05,11.26,11.26,11.26,6.21,0,11.26-5.05,11.26-11.26s-5.05-11.26-11.26-11.26ZM338.3,181.03c4.64,0,8.41,3.76,8.41,8.41s-3.76,8.41-8.41,8.41-8.41-3.76-8.41-8.41,3.76-8.41,8.41-8.41ZM312.43,221.12c-3.57,0-6.47-2.9-6.47-6.47s2.9-6.47,6.47-6.47,6.47,2.9,6.47,6.47-2.9,6.47-6.47,6.47ZM338.3,248.27c-4.64,0-8.41-3.76-8.41-8.41s3.76-8.41,8.41-8.41,8.41,3.76,8.41,8.41-3.76,8.41-8.41,8.41Z" />
                <path id="fuchsia-3" class="cls-9"
                    d="M913.26,98.84c7.63,0,13.84,6.21,13.84,13.84s-6.21,13.84-13.84,13.84c-6.21,0-11.26,5.05-11.26,11.26s5.05,11.26,11.26,11.26,11.2-5,11.26-11.14h0c.05-7.61,6.09-13.8,13.56-13.95h0s.29,0,.29,0c6.2,0,11.25-5.05,11.25-11.26s-5.05-11.26-11.26-11.26c-7.63,0-13.84-6.21-13.84-13.84,0-6.21-5.05-11.26-11.26-11.26-6.21,0-11.26,5.05-11.26,11.26s5.05,11.26,11.26,11.26ZM913.32,146.24c-4.64,0-8.41-3.76-8.41-8.41s3.76-8.41,8.41-8.41,8.41,3.76,8.41,8.41-3.76,8.41-8.41,8.41ZM939.18,106.15c3.57,0,6.47,2.9,6.47,6.47s-2.9,6.47-6.47,6.47-6.47-2.9-6.47-6.47,2.9-6.47,6.47-6.47ZM913.32,78.99c4.64,0,8.41,3.76,8.41,8.41s-3.76,8.41-8.41,8.41-8.41-3.76-8.41-8.41,3.76-8.41,8.41-8.41Z" />
                <path class="cls-4"
                    d="M938.55,200.26c-6.93,0-12.55,5.62-12.55,12.55s-5.62,12.55-12.55,12.55-12.55,5.62-12.55,12.55,5.62,12.55,12.55,12.55,12.48-5.55,12.55-12.42v.08c0-6.93,5.62-12.76,12.55-12.76s12.55-5.62,12.55-12.55-5.62-12.55-12.55-12.55ZM913.71,246.18c-4.64,0-8.41-3.76-8.41-8.41s3.76-8.41,8.41-8.41,8.41,3.76,8.41,8.41-3.76,8.41-8.41,8.41Z" />
                <path class="cls-5"
                    d="M513.55,76.26c-6.93,0-12.55,5.62-12.55,12.55s-5.62,12.55-12.55,12.55-12.55,5.62-12.55,12.55,5.62,12.55,12.55,12.55,12.48-5.55,12.55-12.42v.08c0-6.93,5.62-12.76,12.55-12.76s12.55-5.62,12.55-12.55-5.62-12.55-12.55-12.55ZM488.71,122.18c-4.64,0-8.41-3.76-8.41-8.41s3.76-8.41,8.41-8.41,8.41,3.76,8.41,8.41-3.76,8.41-8.41,8.41Z" />
            </g>
            <g id="circles">
                <circle class="cls-10" cx="338.3" cy="189.43" r="8.41" />
                <circle class="cls-11" cx="338.3" cy="239.87" r="8.41" />
                <circle class="cls-15" cx="488.96" cy="113.78" r="8.41" />
                <circle class="cls-14" cx="488.96" cy="113.78" r="6.47" />
                <circle class="cls-16" cx="913.26" cy="87.44" r="8.41" />
                <circle class="cls-13" cx="913.26" cy="87.44" r="6.47" />
                <circle class="cls-17" cx="338.3" cy="214.65" r="8.41" />
                <circle class="cls-12" cx="338.3" cy="214.65" r="6.47" />
            </g>
        </g>
    </g>
</svg>